<svg width="208" height="208" viewBox="0 0 208 208" fill="none" xmlns="http://www.w3.org/2000/svg">
<rect y="103.5" width="8" height="1" fill="#E3E2E9"/>
<rect x="4.5" y="100" width="8" height="1" transform="rotate(90 4.5 100)" fill="#E3E2E9"/>
<rect y="123.5" width="8" height="1" fill="#E3E2E9"/>
<rect x="4.5" y="120" width="8" height="1" transform="rotate(90 4.5 120)" fill="#E3E2E9"/>
<rect y="143.5" width="8" height="1" fill="#E3E2E9"/>
<rect x="4.5" y="140" width="8" height="1" transform="rotate(90 4.5 140)" fill="#E3E2E9"/>
<rect y="163.5" width="8" height="1" fill="#E3E2E9"/>
<rect x="4.5" y="160" width="8" height="1" transform="rotate(90 4.5 160)" fill="#E3E2E9"/>
<rect y="183.5" width="8" height="1" fill="#E3E2E9"/>
<rect x="4.5" y="180" width="8" height="1" transform="rotate(90 4.5 180)" fill="#E3E2E9"/>
<rect y="203.5" width="8" height="1" fill="#E3E2E9"/>
<rect x="4.5" y="200" width="8" height="1" transform="rotate(90 4.5 200)" fill="#E3E2E9"/>
<rect x="20" y="103.5" width="8" height="1" fill="#E3E2E9"/>
<rect x="24.5" y="100" width="8" height="1" transform="rotate(90 24.5 100)" fill="#E3E2E9"/>
<rect x="20" y="123.5" width="8" height="1" fill="#E3E2E9"/>
<rect x="24.5" y="120" width="8" height="1" transform="rotate(90 24.5 120)" fill="#E3E2E9"/>
<rect x="20" y="143.5" width="8" height="1" fill="#E3E2E9"/>
<rect x="24.5" y="140" width="8" height="1" transform="rotate(90 24.5 140)" fill="#E3E2E9"/>
<rect x="20" y="163.5" width="8" height="1" fill="#E3E2E9"/>
<rect x="24.5" y="160" width="8" height="1" transform="rotate(90 24.5 160)" fill="#E3E2E9"/>
<rect x="20" y="183.5" width="8" height="1" fill="#E3E2E9"/>
<rect x="24.5" y="180" width="8" height="1" transform="rotate(90 24.5 180)" fill="#E3E2E9"/>
<rect x="20" y="203.5" width="8" height="1" fill="#E3E2E9"/>
<rect x="24.5" y="200" width="8" height="1" transform="rotate(90 24.5 200)" fill="#E3E2E9"/>
<rect x="40" y="103.5" width="8" height="1" fill="#E3E2E9"/>
<rect x="44.5" y="100" width="8" height="1" transform="rotate(90 44.5 100)" fill="#E3E2E9"/>
<rect x="40" y="123.5" width="8" height="1" fill="#E3E2E9"/>
<rect x="44.5" y="120" width="8" height="1" transform="rotate(90 44.5 120)" fill="#E3E2E9"/>
<rect x="40" y="143.5" width="8" height="1" fill="#E3E2E9"/>
<rect x="44.5" y="140" width="8" height="1" transform="rotate(90 44.5 140)" fill="#E3E2E9"/>
<rect x="40" y="163.5" width="8" height="1" fill="#E3E2E9"/>
<rect x="44.5" y="160" width="8" height="1" transform="rotate(90 44.5 160)" fill="#E3E2E9"/>
<rect x="40" y="183.5" width="8" height="1" fill="#E3E2E9"/>
<rect x="44.5" y="180" width="8" height="1" transform="rotate(90 44.5 180)" fill="#E3E2E9"/>
<rect x="40" y="203.5" width="8" height="1" fill="#E3E2E9"/>
<rect x="44.5" y="200" width="8" height="1" transform="rotate(90 44.5 200)" fill="#E3E2E9"/>
<rect x="60" y="103.5" width="8" height="1" fill="#E3E2E9"/>
<rect x="64.5" y="100" width="8" height="1" transform="rotate(90 64.5 100)" fill="#E3E2E9"/>
<rect x="60" y="123.5" width="8" height="1" fill="#E3E2E9"/>
<rect x="64.5" y="120" width="8" height="1" transform="rotate(90 64.5 120)" fill="#E3E2E9"/>
<rect x="60" y="143.5" width="8" height="1" fill="#E3E2E9"/>
<rect x="64.5" y="140" width="8" height="1" transform="rotate(90 64.5 140)" fill="#E3E2E9"/>
<rect x="60" y="163.5" width="8" height="1" fill="#E3E2E9"/>
<rect x="64.5" y="160" width="8" height="1" transform="rotate(90 64.5 160)" fill="#E3E2E9"/>
<rect x="60" y="183.5" width="8" height="1" fill="#E3E2E9"/>
<rect x="64.5" y="180" width="8" height="1" transform="rotate(90 64.5 180)" fill="#E3E2E9"/>
<rect x="60" y="203.5" width="8" height="1" fill="#E3E2E9"/>
<rect x="64.5" y="200" width="8" height="1" transform="rotate(90 64.5 200)" fill="#E3E2E9"/>
<rect x="80" y="103.5" width="8" height="1" fill="#E3E2E9"/>
<rect x="84.5" y="100" width="8" height="1" transform="rotate(90 84.5 100)" fill="#E3E2E9"/>
<rect x="80" y="123.5" width="8" height="1" fill="#E3E2E9"/>
<rect x="84.5" y="120" width="8" height="1" transform="rotate(90 84.5 120)" fill="#E3E2E9"/>
<rect x="80" y="143.5" width="8" height="1" fill="#E3E2E9"/>
<rect x="84.5" y="140" width="8" height="1" transform="rotate(90 84.5 140)" fill="#E3E2E9"/>
<rect x="80" y="163.5" width="8" height="1" fill="#E3E2E9"/>
<rect x="84.5" y="160" width="8" height="1" transform="rotate(90 84.5 160)" fill="#E3E2E9"/>
<rect x="80" y="183.5" width="8" height="1" fill="#E3E2E9"/>
<rect x="84.5" y="180" width="8" height="1" transform="rotate(90 84.5 180)" fill="#E3E2E9"/>
<rect x="80" y="203.5" width="8" height="1" fill="#E3E2E9"/>
<rect x="84.5" y="200" width="8" height="1" transform="rotate(90 84.5 200)" fill="#E3E2E9"/>
<rect x="100" y="3.5" width="8" height="1" fill="#E3E2E9"/>
<rect x="104.5" width="8" height="1" transform="rotate(90 104.5 0)" fill="#E3E2E9"/>
<rect x="100" y="23.5" width="8" height="1" fill="#E3E2E9"/>
<rect x="104.5" y="20" width="8" height="1" transform="rotate(90 104.5 20)" fill="#E3E2E9"/>
<rect x="100" y="43.5" width="8" height="1" fill="#E3E2E9"/>
<rect x="104.5" y="40" width="8" height="1" transform="rotate(90 104.5 40)" fill="#E3E2E9"/>
<rect x="100" y="63.5" width="8" height="1" fill="#E3E2E9"/>
<rect x="104.5" y="60" width="8" height="1" transform="rotate(90 104.5 60)" fill="#E3E2E9"/>
<rect x="100" y="83.5" width="8" height="1" fill="#E3E2E9"/>
<rect x="104.5" y="80" width="8" height="1" transform="rotate(90 104.5 80)" fill="#E3E2E9"/>
<rect x="100" y="103.5" width="8" height="1" fill="#E3E2E9"/>
<rect x="104.5" y="100" width="8" height="1" transform="rotate(90 104.5 100)" fill="#E3E2E9"/>
<rect x="100" y="123.5" width="8" height="1" fill="#E3E2E9"/>
<rect x="104.5" y="120" width="8" height="1" transform="rotate(90 104.5 120)" fill="#E3E2E9"/>
<rect x="100" y="143.5" width="8" height="1" fill="#E3E2E9"/>
<rect x="104.5" y="140" width="8" height="1" transform="rotate(90 104.5 140)" fill="#E3E2E9"/>
<rect x="100" y="163.5" width="8" height="1" fill="#E3E2E9"/>
<rect x="104.5" y="160" width="8" height="1" transform="rotate(90 104.5 160)" fill="#E3E2E9"/>
<rect x="100" y="183.5" width="8" height="1" fill="#E3E2E9"/>
<rect x="104.5" y="180" width="8" height="1" transform="rotate(90 104.5 180)" fill="#E3E2E9"/>
<rect x="100" y="203.5" width="8" height="1" fill="#E3E2E9"/>
<rect x="104.5" y="200" width="8" height="1" transform="rotate(90 104.5 200)" fill="#E3E2E9"/>
<rect x="120" y="3.5" width="8" height="1" fill="#E3E2E9"/>
<rect x="124.5" width="8" height="1" transform="rotate(90 124.5 0)" fill="#E3E2E9"/>
<rect x="120" y="23.5" width="8" height="1" fill="#E3E2E9"/>
<rect x="124.5" y="20" width="8" height="1" transform="rotate(90 124.5 20)" fill="#E3E2E9"/>
<rect x="120" y="43.5" width="8" height="1" fill="#E3E2E9"/>
<rect x="124.5" y="40" width="8" height="1" transform="rotate(90 124.5 40)" fill="#E3E2E9"/>
<rect x="120" y="63.5" width="8" height="1" fill="#E3E2E9"/>
<rect x="124.5" y="60" width="8" height="1" transform="rotate(90 124.5 60)" fill="#E3E2E9"/>
<rect x="120" y="83.5" width="8" height="1" fill="#E3E2E9"/>
<rect x="124.5" y="80" width="8" height="1" transform="rotate(90 124.5 80)" fill="#E3E2E9"/>
<rect x="120" y="103.5" width="8" height="1" fill="#F8BB1E"/>
<rect x="124.5" y="100" width="8" height="1" transform="rotate(90 124.5 100)" fill="#F8BB1E"/>
<rect x="140" y="83.5" width="8" height="1" fill="#E3E2E9"/>
<rect x="144.5" y="80" width="8" height="1" transform="rotate(90 144.5 80)" fill="#E3E2E9"/>
<rect x="140" y="103.5" width="8" height="1" fill="#E3E2E9"/>
<rect x="144.5" y="100" width="8" height="1" transform="rotate(90 144.5 100)" fill="#E3E2E9"/>
<rect x="160" y="83.5" width="8" height="1" fill="#E3E2E9"/>
<rect x="164.5" y="80" width="8" height="1" transform="rotate(90 164.5 80)" fill="#E3E2E9"/>
<rect x="160" y="103.5" width="8" height="1" fill="#E3E2E9"/>
<rect x="164.5" y="100" width="8" height="1" transform="rotate(90 164.5 100)" fill="#E3E2E9"/>
<rect x="180" y="83.5" width="8" height="1" fill="#E3E2E9"/>
<rect x="184.5" y="80" width="8" height="1" transform="rotate(90 184.5 80)" fill="#E3E2E9"/>
<rect x="180" y="103.5" width="8" height="1" fill="#E3E2E9"/>
<rect x="184.5" y="100" width="8" height="1" transform="rotate(90 184.5 100)" fill="#E3E2E9"/>
<rect x="200" y="83.5" width="8" height="1" fill="#E3E2E9"/>
<rect x="204.5" y="80" width="8" height="1" transform="rotate(90 204.5 80)" fill="#E3E2E9"/>
<rect x="200" y="103.5" width="8" height="1" fill="#E3E2E9"/>
<rect x="204.5" y="100" width="8" height="1" transform="rotate(90 204.5 100)" fill="#E3E2E9"/>
</svg>
