<svg width="926" height="333" viewBox="0 0 926 333" fill="none" xmlns="http://www.w3.org/2000/svg">
<rect y="228.5" width="8" height="1" fill="#E3E2E9"/>
<rect x="4.5" y="225" width="8" height="1" transform="rotate(90 4.5 225)" fill="#E3E2E9"/>
<rect y="248.5" width="8" height="1" fill="#E3E2E9"/>
<rect x="4.5" y="245" width="8" height="1" transform="rotate(90 4.5 245)" fill="#E3E2E9"/>
<rect y="268.5" width="8" height="1" fill="#E3E2E9"/>
<rect x="4.5" y="265" width="8" height="1" transform="rotate(90 4.5 265)" fill="#E3E2E9"/>
<rect y="288.5" width="8" height="1" fill="#E3E2E9"/>
<rect x="4.5" y="285" width="8" height="1" transform="rotate(90 4.5 285)" fill="#E3E2E9"/>
<rect y="308.5" width="8" height="1" fill="#E3E2E9"/>
<rect x="4.5" y="305" width="8" height="1" transform="rotate(90 4.5 305)" fill="#E3E2E9"/>
<rect y="328.5" width="8" height="1" fill="#E3E2E9"/>
<rect x="4.5" y="325" width="8" height="1" transform="rotate(90 4.5 325)" fill="#E3E2E9"/>
<rect x="20" y="228.5" width="8" height="1" fill="#E3E2E9"/>
<rect x="24.5" y="225" width="8" height="1" transform="rotate(90 24.5 225)" fill="#E3E2E9"/>
<rect x="20" y="248.5" width="8" height="1" fill="#E3E2E9"/>
<rect x="24.5" y="245" width="8" height="1" transform="rotate(90 24.5 245)" fill="#E3E2E9"/>
<rect x="20" y="268.5" width="8" height="1" fill="#E3E2E9"/>
<rect x="24.5" y="265" width="8" height="1" transform="rotate(90 24.5 265)" fill="#E3E2E9"/>
<rect x="20" y="288.5" width="8" height="1" fill="#E3E2E9"/>
<rect x="24.5" y="285" width="8" height="1" transform="rotate(90 24.5 285)" fill="#E3E2E9"/>
<rect x="20" y="308.5" width="8" height="1" fill="#E3E2E9"/>
<rect x="24.5" y="305" width="8" height="1" transform="rotate(90 24.5 305)" fill="#E3E2E9"/>
<rect x="20" y="328.5" width="8" height="1" fill="#E3E2E9"/>
<rect x="24.5" y="325" width="8" height="1" transform="rotate(90 24.5 325)" fill="#E3E2E9"/>
<rect x="40" y="228.5" width="8" height="1" fill="#E3E2E9"/>
<rect x="44.5" y="225" width="8" height="1" transform="rotate(90 44.5 225)" fill="#E3E2E9"/>
<rect x="40" y="248.5" width="8" height="1" fill="#E3E2E9"/>
<rect x="44.5" y="245" width="8" height="1" transform="rotate(90 44.5 245)" fill="#E3E2E9"/>
<rect x="40" y="268.5" width="8" height="1" fill="#E3E2E9"/>
<rect x="44.5" y="265" width="8" height="1" transform="rotate(90 44.5 265)" fill="#E3E2E9"/>
<rect x="40" y="288.5" width="8" height="1" fill="#E3E2E9"/>
<rect x="44.5" y="285" width="8" height="1" transform="rotate(90 44.5 285)" fill="#E3E2E9"/>
<rect x="40" y="308.5" width="8" height="1" fill="#E3E2E9"/>
<rect x="44.5" y="305" width="8" height="1" transform="rotate(90 44.5 305)" fill="#E3E2E9"/>
<rect x="40" y="328.5" width="8" height="1" fill="#E3E2E9"/>
<rect x="44.5" y="325" width="8" height="1" transform="rotate(90 44.5 325)" fill="#E3E2E9"/>
<rect x="60" y="228.5" width="8" height="1" fill="#E3E2E9"/>
<rect x="64.5" y="225" width="8" height="1" transform="rotate(90 64.5 225)" fill="#E3E2E9"/>
<rect x="60" y="248.5" width="8" height="1" fill="#E3E2E9"/>
<rect x="64.5" y="245" width="8" height="1" transform="rotate(90 64.5 245)" fill="#E3E2E9"/>
<rect x="60" y="268.5" width="8" height="1" fill="#E3E2E9"/>
<rect x="64.5" y="265" width="8" height="1" transform="rotate(90 64.5 265)" fill="#E3E2E9"/>
<rect x="60" y="288.5" width="8" height="1" fill="#E3E2E9"/>
<rect x="64.5" y="285" width="8" height="1" transform="rotate(90 64.5 285)" fill="#E3E2E9"/>
<rect x="60" y="308.5" width="8" height="1" fill="#E3E2E9"/>
<rect x="64.5" y="305" width="8" height="1" transform="rotate(90 64.5 305)" fill="#E3E2E9"/>
<rect x="60" y="328.5" width="8" height="1" fill="#E3E2E9"/>
<rect x="64.5" y="325" width="8" height="1" transform="rotate(90 64.5 325)" fill="#E3E2E9"/>
<rect x="80" y="228.5" width="8" height="1" fill="#E3E2E9"/>
<rect x="84.5" y="225" width="8" height="1" transform="rotate(90 84.5 225)" fill="#E3E2E9"/>
<rect x="80" y="248.5" width="8" height="1" fill="#E3E2E9"/>
<rect x="84.5" y="245" width="8" height="1" transform="rotate(90 84.5 245)" fill="#E3E2E9"/>
<rect x="80" y="268.5" width="8" height="1" fill="#E3E2E9"/>
<rect x="84.5" y="265" width="8" height="1" transform="rotate(90 84.5 265)" fill="#E3E2E9"/>
<rect x="80" y="288.5" width="8" height="1" fill="#E3E2E9"/>
<rect x="84.5" y="285" width="8" height="1" transform="rotate(90 84.5 285)" fill="#E3E2E9"/>
<rect x="80" y="308.5" width="8" height="1" fill="#E3E2E9"/>
<rect x="84.5" y="305" width="8" height="1" transform="rotate(90 84.5 305)" fill="#E3E2E9"/>
<rect x="80" y="328.5" width="8" height="1" fill="#E3E2E9"/>
<rect x="84.5" y="325" width="8" height="1" transform="rotate(90 84.5 325)" fill="#E3E2E9"/>
<rect x="100" y="228.5" width="8" height="1" fill="#E3E2E9"/>
<rect x="104.5" y="225" width="8" height="1" transform="rotate(90 104.5 225)" fill="#E3E2E9"/>
<rect x="100" y="248.5" width="8" height="1" fill="#E3E2E9"/>
<rect x="104.5" y="245" width="8" height="1" transform="rotate(90 104.5 245)" fill="#E3E2E9"/>
<rect x="100" y="268.5" width="8" height="1" fill="#E3E2E9"/>
<rect x="104.5" y="265" width="8" height="1" transform="rotate(90 104.5 265)" fill="#E3E2E9"/>
<rect x="100" y="288.5" width="8" height="1" fill="#E3E2E9"/>
<rect x="104.5" y="285" width="8" height="1" transform="rotate(90 104.5 285)" fill="#E3E2E9"/>
<rect x="100" y="308.5" width="8" height="1" fill="#E3E2E9"/>
<rect x="104.5" y="305" width="8" height="1" transform="rotate(90 104.5 305)" fill="#E3E2E9"/>
<rect x="100" y="328.5" width="8" height="1" fill="#E3E2E9"/>
<rect x="104.5" y="325" width="8" height="1" transform="rotate(90 104.5 325)" fill="#E3E2E9"/>
<rect x="120" y="228.5" width="8" height="1" fill="#E3E2E9"/>
<rect x="124.5" y="225" width="8" height="1" transform="rotate(90 124.5 225)" fill="#E3E2E9"/>
<rect x="120" y="248.5" width="8" height="1" fill="#E3E2E9"/>
<rect x="124.5" y="245" width="8" height="1" transform="rotate(90 124.5 245)" fill="#E3E2E9"/>
<rect x="120" y="268.5" width="8" height="1" fill="#E3E2E9"/>
<rect x="124.5" y="265" width="8" height="1" transform="rotate(90 124.5 265)" fill="#E3E2E9"/>
<rect x="120" y="288.5" width="8" height="1" fill="#E3E2E9"/>
<rect x="124.5" y="285" width="8" height="1" transform="rotate(90 124.5 285)" fill="#E3E2E9"/>
<rect x="120" y="308.5" width="8" height="1" fill="#E3E2E9"/>
<rect x="124.5" y="305" width="8" height="1" transform="rotate(90 124.5 305)" fill="#E3E2E9"/>
<rect x="120" y="328.5" width="8" height="1" fill="#E3E2E9"/>
<rect x="124.5" y="325" width="8" height="1" transform="rotate(90 124.5 325)" fill="#E3E2E9"/>
<rect x="140" y="228.5" width="8" height="1" fill="#E3E2E9"/>
<rect x="144.5" y="225" width="8" height="1" transform="rotate(90 144.5 225)" fill="#E3E2E9"/>
<rect x="140" y="248.5" width="8" height="1" fill="#E3E2E9"/>
<rect x="144.5" y="245" width="8" height="1" transform="rotate(90 144.5 245)" fill="#E3E2E9"/>
<rect x="140" y="268.5" width="8" height="1" fill="#E3E2E9"/>
<rect x="144.5" y="265" width="8" height="1" transform="rotate(90 144.5 265)" fill="#E3E2E9"/>
<rect x="140" y="288.5" width="8" height="1" fill="#E3E2E9"/>
<rect x="144.5" y="285" width="8" height="1" transform="rotate(90 144.5 285)" fill="#E3E2E9"/>
<rect x="140" y="308.5" width="8" height="1" fill="#E3E2E9"/>
<rect x="144.5" y="305" width="8" height="1" transform="rotate(90 144.5 305)" fill="#E3E2E9"/>
<rect x="140" y="328.5" width="8" height="1" fill="#E3E2E9"/>
<rect x="144.5" y="325" width="8" height="1" transform="rotate(90 144.5 325)" fill="#E3E2E9"/>
<rect x="160" y="228.5" width="8" height="1" fill="#E3E2E9"/>
<rect x="164.5" y="225" width="8" height="1" transform="rotate(90 164.5 225)" fill="#E3E2E9"/>
<rect x="160" y="248.5" width="8" height="1" fill="#E3E2E9"/>
<rect x="164.5" y="245" width="8" height="1" transform="rotate(90 164.5 245)" fill="#E3E2E9"/>
<rect x="160" y="268.5" width="8" height="1" fill="#E3E2E9"/>
<rect x="164.5" y="265" width="8" height="1" transform="rotate(90 164.5 265)" fill="#E3E2E9"/>
<rect x="160" y="288.5" width="8" height="1" fill="#E3E2E9"/>
<rect x="164.5" y="285" width="8" height="1" transform="rotate(90 164.5 285)" fill="#E3E2E9"/>
<rect x="160" y="308.5" width="8" height="1" fill="#E3E2E9"/>
<rect x="164.5" y="305" width="8" height="1" transform="rotate(90 164.5 305)" fill="#E3E2E9"/>
<rect x="160" y="328.5" width="8" height="1" fill="#E3E2E9"/>
<rect x="164.5" y="325" width="8" height="1" transform="rotate(90 164.5 325)" fill="#E3E2E9"/>
<rect x="180" y="228.5" width="8" height="1" fill="#E3E2E9"/>
<rect x="184.5" y="225" width="8" height="1" transform="rotate(90 184.5 225)" fill="#E3E2E9"/>
<rect x="180" y="248.5" width="8" height="1" fill="#E3E2E9"/>
<rect x="184.5" y="245" width="8" height="1" transform="rotate(90 184.5 245)" fill="#E3E2E9"/>
<rect x="180" y="268.5" width="8" height="1" fill="#E3E2E9"/>
<rect x="184.5" y="265" width="8" height="1" transform="rotate(90 184.5 265)" fill="#E3E2E9"/>
<rect x="180" y="288.5" width="8" height="1" fill="#E3E2E9"/>
<rect x="184.5" y="285" width="8" height="1" transform="rotate(90 184.5 285)" fill="#E3E2E9"/>
<rect x="180" y="308.5" width="8" height="1" fill="#E3E2E9"/>
<rect x="184.5" y="305" width="8" height="1" transform="rotate(90 184.5 305)" fill="#E3E2E9"/>
<rect x="180" y="328.5" width="8" height="1" fill="#E3E2E9"/>
<rect x="184.5" y="325" width="8" height="1" transform="rotate(90 184.5 325)" fill="#E3E2E9"/>
<rect x="200" y="228.5" width="8" height="1" fill="#E3E2E9"/>
<rect x="204.5" y="225" width="8" height="1" transform="rotate(90 204.5 225)" fill="#E3E2E9"/>
<rect x="200" y="248.5" width="8" height="1" fill="#E3E2E9"/>
<rect x="204.5" y="245" width="8" height="1" transform="rotate(90 204.5 245)" fill="#E3E2E9"/>
<rect x="200" y="268.5" width="8" height="1" fill="#E3E2E9"/>
<rect x="204.5" y="265" width="8" height="1" transform="rotate(90 204.5 265)" fill="#E3E2E9"/>
<rect x="200" y="288.5" width="8" height="1" fill="#E3E2E9"/>
<rect x="204.5" y="285" width="8" height="1" transform="rotate(90 204.5 285)" fill="#E3E2E9"/>
<rect x="200" y="308.5" width="8" height="1" fill="#E3E2E9"/>
<rect x="204.5" y="305" width="8" height="1" transform="rotate(90 204.5 305)" fill="#E3E2E9"/>
<rect x="200" y="328.5" width="8" height="1" fill="#E3E2E9"/>
<rect x="204.5" y="325" width="8" height="1" transform="rotate(90 204.5 325)" fill="#E3E2E9"/>
<rect x="220" y="228.5" width="8" height="1" fill="#E3E2E9"/>
<rect x="224.5" y="225" width="8" height="1" transform="rotate(90 224.5 225)" fill="#E3E2E9"/>
<rect x="220" y="248.5" width="8" height="1" fill="#E3E2E9"/>
<rect x="224.5" y="245" width="8" height="1" transform="rotate(90 224.5 245)" fill="#E3E2E9"/>
<rect x="220" y="268.5" width="8" height="1" fill="#E3E2E9"/>
<rect x="224.5" y="265" width="8" height="1" transform="rotate(90 224.5 265)" fill="#E3E2E9"/>
<rect x="220" y="288.5" width="8" height="1" fill="#E3E2E9"/>
<rect x="224.5" y="285" width="8" height="1" transform="rotate(90 224.5 285)" fill="#E3E2E9"/>
<rect x="220" y="308.5" width="8" height="1" fill="#E3E2E9"/>
<rect x="224.5" y="305" width="8" height="1" transform="rotate(90 224.5 305)" fill="#E3E2E9"/>
<rect x="220" y="328.5" width="8" height="1" fill="#E3E2E9"/>
<rect x="224.5" y="325" width="8" height="1" transform="rotate(90 224.5 325)" fill="#E3E2E9"/>
<rect x="922.5" width="8" height="1" transform="rotate(90 922.5 0)" fill="#E3E2E9"/>
<rect x="926" y="4.5" width="8" height="1" transform="rotate(-180 926 4.5)" fill="#E3E2E9"/>
<rect x="902.5" width="8" height="1" transform="rotate(90 902.5 0)" fill="#E3E2E9"/>
<rect x="906" y="4.5" width="8" height="1" transform="rotate(-180 906 4.5)" fill="#E3E2E9"/>
<rect x="882.5" width="8" height="1" transform="rotate(90 882.5 0)" fill="#E3E2E9"/>
<rect x="886" y="4.5" width="8" height="1" transform="rotate(-180 886 4.5)" fill="#E3E2E9"/>
<rect x="862.5" width="8" height="1" transform="rotate(90 862.5 0)" fill="#E3E2E9"/>
<rect x="866" y="4.5" width="8" height="1" transform="rotate(-180 866 4.5)" fill="#E3E2E9"/>
<rect x="842.5" width="8" height="1" transform="rotate(90 842.5 0)" fill="#E3E2E9"/>
<rect x="846" y="4.5" width="8" height="1" transform="rotate(-180 846 4.5)" fill="#E3E2E9"/>
<rect x="822.5" width="8" height="1" transform="rotate(90 822.5 0)" fill="#E3E2E9"/>
<rect x="826" y="4.5" width="8" height="1" transform="rotate(-180 826 4.5)" fill="#E3E2E9"/>
<rect x="922.5" y="20" width="8" height="1" transform="rotate(90 922.5 20)" fill="#E3E2E9"/>
<rect x="926" y="24.5" width="8" height="1" transform="rotate(-180 926 24.5)" fill="#E3E2E9"/>
<rect x="902.5" y="20" width="8" height="1" transform="rotate(90 902.5 20)" fill="#E3E2E9"/>
<rect x="906" y="24.5" width="8" height="1" transform="rotate(-180 906 24.5)" fill="#E3E2E9"/>
<rect x="882.5" y="20" width="8" height="1" transform="rotate(90 882.5 20)" fill="#E3E2E9"/>
<rect x="886" y="24.5" width="8" height="1" transform="rotate(-180 886 24.5)" fill="#E3E2E9"/>
<rect x="862.5" y="20" width="8" height="1" transform="rotate(90 862.5 20)" fill="#E3E2E9"/>
<rect x="866" y="24.5" width="8" height="1" transform="rotate(-180 866 24.5)" fill="#E3E2E9"/>
<rect x="842.5" y="20" width="8" height="1" transform="rotate(90 842.5 20)" fill="#E3E2E9"/>
<rect x="846" y="24.5" width="8" height="1" transform="rotate(-180 846 24.5)" fill="#E3E2E9"/>
<rect x="822.5" y="20" width="8" height="1" transform="rotate(90 822.5 20)" fill="#E3E2E9"/>
<rect x="826" y="24.5" width="8" height="1" transform="rotate(-180 826 24.5)" fill="#E3E2E9"/>
<rect x="922.5" y="40" width="8" height="1" transform="rotate(90 922.5 40)" fill="#E3E2E9"/>
<rect x="926" y="44.5" width="8" height="1" transform="rotate(-180 926 44.5)" fill="#E3E2E9"/>
<rect x="902.5" y="40" width="8" height="1" transform="rotate(90 902.5 40)" fill="#E3E2E9"/>
<rect x="906" y="44.5" width="8" height="1" transform="rotate(-180 906 44.5)" fill="#E3E2E9"/>
<rect x="882.5" y="40" width="8" height="1" transform="rotate(90 882.5 40)" fill="#E3E2E9"/>
<rect x="886" y="44.5" width="8" height="1" transform="rotate(-180 886 44.5)" fill="#E3E2E9"/>
<rect x="862.5" y="40" width="8" height="1" transform="rotate(90 862.5 40)" fill="#E3E2E9"/>
<rect x="866" y="44.5" width="8" height="1" transform="rotate(-180 866 44.5)" fill="#E3E2E9"/>
<rect x="842.5" y="40" width="8" height="1" transform="rotate(90 842.5 40)" fill="#E3E2E9"/>
<rect x="846" y="44.5" width="8" height="1" transform="rotate(-180 846 44.5)" fill="#E3E2E9"/>
<rect x="822.5" y="40" width="8" height="1" transform="rotate(90 822.5 40)" fill="#E3E2E9"/>
<rect x="826" y="44.5" width="8" height="1" transform="rotate(-180 826 44.5)" fill="#E3E2E9"/>
<rect x="922.5" y="60" width="8" height="1" transform="rotate(90 922.5 60)" fill="#E3E2E9"/>
<rect x="926" y="64.5" width="8" height="1" transform="rotate(-180 926 64.5)" fill="#E3E2E9"/>
<rect x="902.5" y="60" width="8" height="1" transform="rotate(90 902.5 60)" fill="#E3E2E9"/>
<rect x="906" y="64.5" width="8" height="1" transform="rotate(-180 906 64.5)" fill="#E3E2E9"/>
<rect x="882.5" y="60" width="8" height="1" transform="rotate(90 882.5 60)" fill="#E3E2E9"/>
<rect x="886" y="64.5" width="8" height="1" transform="rotate(-180 886 64.5)" fill="#E3E2E9"/>
<rect x="862.5" y="60" width="8" height="1" transform="rotate(90 862.5 60)" fill="#E3E2E9"/>
<rect x="866" y="64.5" width="8" height="1" transform="rotate(-180 866 64.5)" fill="#E3E2E9"/>
<rect x="842.5" y="60" width="8" height="1" transform="rotate(90 842.5 60)" fill="#E3E2E9"/>
<rect x="846" y="64.5" width="8" height="1" transform="rotate(-180 846 64.5)" fill="#E3E2E9"/>
<rect x="822.5" y="60" width="8" height="1" transform="rotate(90 822.5 60)" fill="#E3E2E9"/>
<rect x="826" y="64.5" width="8" height="1" transform="rotate(-180 826 64.5)" fill="#E3E2E9"/>
<rect x="922.5" y="80" width="8" height="1" transform="rotate(90 922.5 80)" fill="#E3E2E9"/>
<rect x="926" y="84.5" width="8" height="1" transform="rotate(-180 926 84.5)" fill="#E3E2E9"/>
<rect x="902.5" y="80" width="8" height="1" transform="rotate(90 902.5 80)" fill="#E3E2E9"/>
<rect x="906" y="84.5" width="8" height="1" transform="rotate(-180 906 84.5)" fill="#E3E2E9"/>
<rect x="882.5" y="80" width="8" height="1" transform="rotate(90 882.5 80)" fill="#E3E2E9"/>
<rect x="886" y="84.5" width="8" height="1" transform="rotate(-180 886 84.5)" fill="#E3E2E9"/>
<rect x="862.5" y="80" width="8" height="1" transform="rotate(90 862.5 80)" fill="#E3E2E9"/>
<rect x="866" y="84.5" width="8" height="1" transform="rotate(-180 866 84.5)" fill="#E3E2E9"/>
<rect x="842.5" y="80" width="8" height="1" transform="rotate(90 842.5 80)" fill="#E3E2E9"/>
<rect x="846" y="84.5" width="8" height="1" transform="rotate(-180 846 84.5)" fill="#E3E2E9"/>
<rect x="822.5" y="80" width="8" height="1" transform="rotate(90 822.5 80)" fill="#E3E2E9"/>
<rect x="826" y="84.5" width="8" height="1" transform="rotate(-180 826 84.5)" fill="#E3E2E9"/>
<rect x="922.5" y="100" width="8" height="1" transform="rotate(90 922.5 100)" fill="#E3E2E9"/>
<rect x="926" y="104.5" width="8" height="1" transform="rotate(-180 926 104.5)" fill="#E3E2E9"/>
<rect x="902.5" y="100" width="8" height="1" transform="rotate(90 902.5 100)" fill="#E3E2E9"/>
<rect x="906" y="104.5" width="8" height="1" transform="rotate(-180 906 104.5)" fill="#E3E2E9"/>
<rect x="882.5" y="100" width="8" height="1" transform="rotate(90 882.5 100)" fill="#E3E2E9"/>
<rect x="886" y="104.5" width="8" height="1" transform="rotate(-180 886 104.5)" fill="#E3E2E9"/>
<rect x="862.5" y="100" width="8" height="1" transform="rotate(90 862.5 100)" fill="#E3E2E9"/>
<rect x="866" y="104.5" width="8" height="1" transform="rotate(-180 866 104.5)" fill="#E3E2E9"/>
<rect x="842.5" y="100" width="8" height="1" transform="rotate(90 842.5 100)" fill="#E3E2E9"/>
<rect x="846" y="104.5" width="8" height="1" transform="rotate(-180 846 104.5)" fill="#E3E2E9"/>
<rect x="822.5" y="100" width="8" height="1" transform="rotate(90 822.5 100)" fill="#E3E2E9"/>
<rect x="826" y="104.5" width="8" height="1" transform="rotate(-180 826 104.5)" fill="#E3E2E9"/>
<rect x="922.5" y="120" width="8" height="1" transform="rotate(90 922.5 120)" fill="#E3E2E9"/>
<rect x="926" y="124.5" width="8" height="1" transform="rotate(-180 926 124.5)" fill="#E3E2E9"/>
<rect x="902.5" y="120" width="8" height="1" transform="rotate(90 902.5 120)" fill="#E3E2E9"/>
<rect x="906" y="124.5" width="8" height="1" transform="rotate(-180 906 124.5)" fill="#E3E2E9"/>
<rect x="882.5" y="120" width="8" height="1" transform="rotate(90 882.5 120)" fill="#E3E2E9"/>
<rect x="886" y="124.5" width="8" height="1" transform="rotate(-180 886 124.5)" fill="#E3E2E9"/>
<rect x="862.5" y="120" width="8" height="1" transform="rotate(90 862.5 120)" fill="#E3E2E9"/>
<rect x="866" y="124.5" width="8" height="1" transform="rotate(-180 866 124.5)" fill="#E3E2E9"/>
<rect x="842.5" y="120" width="8" height="1" transform="rotate(90 842.5 120)" fill="#E3E2E9"/>
<rect x="846" y="124.5" width="8" height="1" transform="rotate(-180 846 124.5)" fill="#E3E2E9"/>
<rect x="822.5" y="120" width="8" height="1" transform="rotate(90 822.5 120)" fill="#E3E2E9"/>
<rect x="826" y="124.5" width="8" height="1" transform="rotate(-180 826 124.5)" fill="#E3E2E9"/>
<rect x="922.5" y="140" width="8" height="1" transform="rotate(90 922.5 140)" fill="#E3E2E9"/>
<rect x="926" y="144.5" width="8" height="1" transform="rotate(-180 926 144.5)" fill="#E3E2E9"/>
<rect x="902.5" y="140" width="8" height="1" transform="rotate(90 902.5 140)" fill="#E3E2E9"/>
<rect x="906" y="144.5" width="8" height="1" transform="rotate(-180 906 144.5)" fill="#E3E2E9"/>
<rect x="882.5" y="140" width="8" height="1" transform="rotate(90 882.5 140)" fill="#E3E2E9"/>
<rect x="886" y="144.5" width="8" height="1" transform="rotate(-180 886 144.5)" fill="#E3E2E9"/>
<rect x="862.5" y="140" width="8" height="1" transform="rotate(90 862.5 140)" fill="#E3E2E9"/>
<rect x="866" y="144.5" width="8" height="1" transform="rotate(-180 866 144.5)" fill="#E3E2E9"/>
<rect x="842.5" y="140" width="8" height="1" transform="rotate(90 842.5 140)" fill="#E3E2E9"/>
<rect x="846" y="144.5" width="8" height="1" transform="rotate(-180 846 144.5)" fill="#E3E2E9"/>
<rect x="822.5" y="140" width="8" height="1" transform="rotate(90 822.5 140)" fill="#E3E2E9"/>
<rect x="826" y="144.5" width="8" height="1" transform="rotate(-180 826 144.5)" fill="#E3E2E9"/>
<rect x="922.5" y="160" width="8" height="1" transform="rotate(90 922.5 160)" fill="#E3E2E9"/>
<rect x="926" y="164.5" width="8" height="1" transform="rotate(-180 926 164.5)" fill="#E3E2E9"/>
<rect x="902.5" y="160" width="8" height="1" transform="rotate(90 902.5 160)" fill="#E3E2E9"/>
<rect x="906" y="164.5" width="8" height="1" transform="rotate(-180 906 164.5)" fill="#E3E2E9"/>
<rect x="882.5" y="160" width="8" height="1" transform="rotate(90 882.5 160)" fill="#E3E2E9"/>
<rect x="886" y="164.5" width="8" height="1" transform="rotate(-180 886 164.5)" fill="#E3E2E9"/>
<rect x="862.5" y="160" width="8" height="1" transform="rotate(90 862.5 160)" fill="#E3E2E9"/>
<rect x="866" y="164.5" width="8" height="1" transform="rotate(-180 866 164.5)" fill="#E3E2E9"/>
<rect x="842.5" y="160" width="8" height="1" transform="rotate(90 842.5 160)" fill="#E3E2E9"/>
<rect x="846" y="164.5" width="8" height="1" transform="rotate(-180 846 164.5)" fill="#E3E2E9"/>
<rect x="822.5" y="160" width="8" height="1" transform="rotate(90 822.5 160)" fill="#E3E2E9"/>
<rect x="826" y="164.5" width="8" height="1" transform="rotate(-180 826 164.5)" fill="#E3E2E9"/>
<rect x="922.5" y="180" width="8" height="1" transform="rotate(90 922.5 180)" fill="#E3E2E9"/>
<rect x="926" y="184.5" width="8" height="1" transform="rotate(-180 926 184.5)" fill="#E3E2E9"/>
<rect x="902.5" y="180" width="8" height="1" transform="rotate(90 902.5 180)" fill="#E3E2E9"/>
<rect x="906" y="184.5" width="8" height="1" transform="rotate(-180 906 184.5)" fill="#E3E2E9"/>
<rect x="882.5" y="180" width="8" height="1" transform="rotate(90 882.5 180)" fill="#E3E2E9"/>
<rect x="886" y="184.5" width="8" height="1" transform="rotate(-180 886 184.5)" fill="#E3E2E9"/>
<rect x="862.5" y="180" width="8" height="1" transform="rotate(90 862.5 180)" fill="#E3E2E9"/>
<rect x="866" y="184.5" width="8" height="1" transform="rotate(-180 866 184.5)" fill="#E3E2E9"/>
<rect x="842.5" y="180" width="8" height="1" transform="rotate(90 842.5 180)" fill="#E3E2E9"/>
<rect x="846" y="184.5" width="8" height="1" transform="rotate(-180 846 184.5)" fill="#E3E2E9"/>
<rect x="822.5" y="180" width="8" height="1" transform="rotate(90 822.5 180)" fill="#E3E2E9"/>
<rect x="826" y="184.5" width="8" height="1" transform="rotate(-180 826 184.5)" fill="#E3E2E9"/>
<rect x="922.5" y="200" width="8" height="1" transform="rotate(90 922.5 200)" fill="#E3E2E9"/>
<rect x="926" y="204.5" width="8" height="1" transform="rotate(-180 926 204.5)" fill="#E3E2E9"/>
<rect x="902.5" y="200" width="8" height="1" transform="rotate(90 902.5 200)" fill="#E3E2E9"/>
<rect x="906" y="204.5" width="8" height="1" transform="rotate(-180 906 204.5)" fill="#E3E2E9"/>
<rect x="882.5" y="200" width="8" height="1" transform="rotate(90 882.5 200)" fill="#E3E2E9"/>
<rect x="886" y="204.5" width="8" height="1" transform="rotate(-180 886 204.5)" fill="#E3E2E9"/>
<rect x="862.5" y="200" width="8" height="1" transform="rotate(90 862.5 200)" fill="#E3E2E9"/>
<rect x="866" y="204.5" width="8" height="1" transform="rotate(-180 866 204.5)" fill="#E3E2E9"/>
<rect x="842.5" y="200" width="8" height="1" transform="rotate(90 842.5 200)" fill="#E3E2E9"/>
<rect x="846" y="204.5" width="8" height="1" transform="rotate(-180 846 204.5)" fill="#E3E2E9"/>
<rect x="822.5" y="200" width="8" height="1" transform="rotate(90 822.5 200)" fill="#E3E2E9"/>
<rect x="826" y="204.5" width="8" height="1" transform="rotate(-180 826 204.5)" fill="#E3E2E9"/>
<rect x="922.5" y="220" width="8" height="1" transform="rotate(90 922.5 220)" fill="#E3E2E9"/>
<rect x="926" y="224.5" width="8" height="1" transform="rotate(-180 926 224.5)" fill="#E3E2E9"/>
<rect x="902.5" y="220" width="8" height="1" transform="rotate(90 902.5 220)" fill="#E3E2E9"/>
<rect x="906" y="224.5" width="8" height="1" transform="rotate(-180 906 224.5)" fill="#E3E2E9"/>
<rect x="882.5" y="220" width="8" height="1" transform="rotate(90 882.5 220)" fill="#E3E2E9"/>
<rect x="886" y="224.5" width="8" height="1" transform="rotate(-180 886 224.5)" fill="#E3E2E9"/>
<rect x="862.5" y="220" width="8" height="1" transform="rotate(90 862.5 220)" fill="#E3E2E9"/>
<rect x="866" y="224.5" width="8" height="1" transform="rotate(-180 866 224.5)" fill="#E3E2E9"/>
<rect x="842.5" y="220" width="8" height="1" transform="rotate(90 842.5 220)" fill="#E3E2E9"/>
<rect x="846" y="224.5" width="8" height="1" transform="rotate(-180 846 224.5)" fill="#E3E2E9"/>
<rect x="822.5" y="220" width="8" height="1" transform="rotate(90 822.5 220)" fill="#E3E2E9"/>
<rect x="826" y="224.5" width="8" height="1" transform="rotate(-180 826 224.5)" fill="#E3E2E9"/>
</svg>
