<svg width="804" height="322" viewBox="0 0 804 322" fill="none" xmlns="http://www.w3.org/2000/svg">
<rect x="144.5" width="8" height="1" transform="rotate(90 144.5 0)" fill="#E3E2E9"/>
<rect x="148" y="4.5" width="8" height="1" transform="rotate(-180 148 4.5)" fill="#E3E2E9"/>
<rect x="124.5" width="8" height="1" transform="rotate(90 124.5 0)" fill="#E3E2E9"/>
<rect x="128" y="4.5" width="8" height="1" transform="rotate(-180 128 4.5)" fill="#E3E2E9"/>
<rect x="144.5" y="20" width="8" height="1" transform="rotate(90 144.5 20)" fill="#E3E2E9"/>
<rect x="148" y="24.5" width="8" height="1" transform="rotate(-180 148 24.5)" fill="#E3E2E9"/>
<rect x="124.5" y="20" width="8" height="1" transform="rotate(90 124.5 20)" fill="#E3E2E9"/>
<rect x="128" y="24.5" width="8" height="1" transform="rotate(-180 128 24.5)" fill="#E3E2E9"/>
<rect x="144.5" y="40" width="8" height="1" transform="rotate(90 144.5 40)" fill="#E3E2E9"/>
<rect x="148" y="44.5" width="8" height="1" transform="rotate(-180 148 44.5)" fill="#E3E2E9"/>
<rect x="124.5" y="40" width="8" height="1" transform="rotate(90 124.5 40)" fill="#E3E2E9"/>
<rect x="128" y="44.5" width="8" height="1" transform="rotate(-180 128 44.5)" fill="#E3E2E9"/>
<rect x="144.5" y="60" width="8" height="1" transform="rotate(90 144.5 60)" fill="#E3E2E9"/>
<rect x="148" y="64.5" width="8" height="1" transform="rotate(-180 148 64.5)" fill="#E3E2E9"/>
<rect x="124.5" y="60" width="8" height="1" transform="rotate(90 124.5 60)" fill="#E3E2E9"/>
<rect x="128" y="64.5" width="8" height="1" transform="rotate(-180 128 64.5)" fill="#E3E2E9"/>
<rect x="144.5" y="80" width="8" height="1" transform="rotate(90 144.5 80)" fill="#E3E2E9"/>
<rect x="148" y="84.5" width="8" height="1" transform="rotate(-180 148 84.5)" fill="#E3E2E9"/>
<rect x="124.5" y="80" width="8" height="1" transform="rotate(90 124.5 80)" fill="#E3E2E9"/>
<rect x="128" y="84.5" width="8" height="1" transform="rotate(-180 128 84.5)" fill="#E3E2E9"/>
<rect x="144.5" y="100" width="8" height="1" transform="rotate(90 144.5 100)" fill="#E3E2E9"/>
<rect x="148" y="104.5" width="8" height="1" transform="rotate(-180 148 104.5)" fill="#E3E2E9"/>
<rect x="124.5" y="100" width="8" height="1" transform="rotate(90 124.5 100)" fill="#E3E2E9"/>
<rect x="128" y="104.5" width="8" height="1" transform="rotate(-180 128 104.5)" fill="#E3E2E9"/>
<rect x="144.5" y="120" width="8" height="1" transform="rotate(90 144.5 120)" fill="#E3E2E9"/>
<rect x="148" y="124.5" width="8" height="1" transform="rotate(-180 148 124.5)" fill="#E3E2E9"/>
<rect x="124.5" y="120" width="8" height="1" transform="rotate(90 124.5 120)" fill="#E3E2E9"/>
<rect x="128" y="124.5" width="8" height="1" transform="rotate(-180 128 124.5)" fill="#E3E2E9"/>
<rect x="144.5" y="140" width="8" height="1" transform="rotate(90 144.5 140)" fill="#E3E2E9"/>
<rect x="148" y="144.5" width="8" height="1" transform="rotate(-180 148 144.5)" fill="#E3E2E9"/>
<rect x="124.5" y="140" width="8" height="1" transform="rotate(90 124.5 140)" fill="#E3E2E9"/>
<rect x="128" y="144.5" width="8" height="1" transform="rotate(-180 128 144.5)" fill="#E3E2E9"/>
<rect x="144.5" y="160" width="8" height="1" transform="rotate(90 144.5 160)" fill="#E3E2E9"/>
<rect x="148" y="164.5" width="8" height="1" transform="rotate(-180 148 164.5)" fill="#E3E2E9"/>
<rect x="124.5" y="160" width="8" height="1" transform="rotate(90 124.5 160)" fill="#E3E2E9"/>
<rect x="128" y="164.5" width="8" height="1" transform="rotate(-180 128 164.5)" fill="#E3E2E9"/>
<rect x="144.5" y="180" width="8" height="1" transform="rotate(90 144.5 180)" fill="#E3E2E9"/>
<rect x="148" y="184.5" width="8" height="1" transform="rotate(-180 148 184.5)" fill="#E3E2E9"/>
<rect x="124.5" y="180" width="8" height="1" transform="rotate(90 124.5 180)" fill="#E3E2E9"/>
<rect x="128" y="184.5" width="8" height="1" transform="rotate(-180 128 184.5)" fill="#E3E2E9"/>
<rect x="224.5" y="200" width="8" height="1" transform="rotate(90 224.5 200)" fill="#E3E2E9"/>
<rect x="228" y="204.5" width="8" height="1" transform="rotate(-180 228 204.5)" fill="#E3E2E9"/>
<rect x="204.5" y="200" width="8" height="1" transform="rotate(90 204.5 200)" fill="#E3E2E9"/>
<rect x="208" y="204.5" width="8" height="1" transform="rotate(-180 208 204.5)" fill="#E3E2E9"/>
<rect x="184.5" y="200" width="8" height="1" transform="rotate(90 184.5 200)" fill="#E3E2E9"/>
<rect x="188" y="204.5" width="8" height="1" transform="rotate(-180 188 204.5)" fill="#E3E2E9"/>
<rect x="164.5" y="200" width="8" height="1" transform="rotate(90 164.5 200)" fill="#E3E2E9"/>
<rect x="168" y="204.5" width="8" height="1" transform="rotate(-180 168 204.5)" fill="#E3E2E9"/>
<rect x="144.5" y="200" width="8" height="1" transform="rotate(90 144.5 200)" fill="#E3E2E9"/>
<rect x="148" y="204.5" width="8" height="1" transform="rotate(-180 148 204.5)" fill="#E3E2E9"/>
<rect x="124.5" y="200" width="8" height="1" transform="rotate(90 124.5 200)" fill="#E3E2E9"/>
<rect x="128" y="204.5" width="8" height="1" transform="rotate(-180 128 204.5)" fill="#E3E2E9"/>
<rect x="224.5" y="220" width="8" height="1" transform="rotate(90 224.5 220)" fill="#E3E2E9"/>
<rect x="228" y="224.5" width="8" height="1" transform="rotate(-180 228 224.5)" fill="#E3E2E9"/>
<rect x="204.5" y="220" width="8" height="1" transform="rotate(90 204.5 220)" fill="#E3E2E9"/>
<rect x="208" y="224.5" width="8" height="1" transform="rotate(-180 208 224.5)" fill="#E3E2E9"/>
<rect x="184.5" y="220" width="8" height="1" transform="rotate(90 184.5 220)" fill="#E3E2E9"/>
<rect x="188" y="224.5" width="8" height="1" transform="rotate(-180 188 224.5)" fill="#E3E2E9"/>
<rect x="164.5" y="220" width="8" height="1" transform="rotate(90 164.5 220)" fill="#E3E2E9"/>
<rect x="168" y="224.5" width="8" height="1" transform="rotate(-180 168 224.5)" fill="#E3E2E9"/>
<rect x="144.5" y="220" width="8" height="1" transform="rotate(90 144.5 220)" fill="#E3E2E9"/>
<rect x="148" y="224.5" width="8" height="1" transform="rotate(-180 148 224.5)" fill="#E3E2E9"/>
<rect x="124.5" y="220" width="8" height="1" transform="rotate(90 124.5 220)" fill="#E3E2E9"/>
<rect x="128" y="224.5" width="8" height="1" transform="rotate(-180 128 224.5)" fill="#E3E2E9"/>
<rect x="104.5" y="120" width="8" height="1" transform="rotate(90 104.5 120)" fill="#E3E2E9"/>
<rect x="108" y="124.5" width="8" height="1" transform="rotate(-180 108 124.5)" fill="#E3E2E9"/>
<rect x="84.5" y="120" width="8" height="1" transform="rotate(90 84.5 120)" fill="#E3E2E9"/>
<rect x="88" y="124.5" width="8" height="1" transform="rotate(-180 88 124.5)" fill="#E3E2E9"/>
<rect x="64.5" y="120" width="8" height="1" transform="rotate(90 64.5 120)" fill="#E3E2E9"/>
<rect x="68" y="124.5" width="8" height="1" transform="rotate(-180 68 124.5)" fill="#E3E2E9"/>
<rect x="44.5" y="120" width="8" height="1" transform="rotate(90 44.5 120)" fill="#E3E2E9"/>
<rect x="48" y="124.5" width="8" height="1" transform="rotate(-180 48 124.5)" fill="#E3E2E9"/>
<rect x="24.5" y="120" width="8" height="1" transform="rotate(90 24.5 120)" fill="#E3E2E9"/>
<rect x="28" y="124.5" width="8" height="1" transform="rotate(-180 28 124.5)" fill="#E3E2E9"/>
<rect x="4.5" y="120" width="8" height="1" transform="rotate(90 4.5 120)" fill="#E3E2E9"/>
<rect x="8" y="124.5" width="8" height="1" transform="rotate(-180 8 124.5)" fill="#E3E2E9"/>
<rect x="104.5" y="140" width="8" height="1" transform="rotate(90 104.5 140)" fill="#E3E2E9"/>
<rect x="108" y="144.5" width="8" height="1" transform="rotate(-180 108 144.5)" fill="#E3E2E9"/>
<rect x="84.5" y="140" width="8" height="1" transform="rotate(90 84.5 140)" fill="#E3E2E9"/>
<rect x="88" y="144.5" width="8" height="1" transform="rotate(-180 88 144.5)" fill="#E3E2E9"/>
<rect x="64.5" y="140" width="8" height="1" transform="rotate(90 64.5 140)" fill="#E3E2E9"/>
<rect x="68" y="144.5" width="8" height="1" transform="rotate(-180 68 144.5)" fill="#E3E2E9"/>
<rect x="44.5" y="140" width="8" height="1" transform="rotate(90 44.5 140)" fill="#E3E2E9"/>
<rect x="48" y="144.5" width="8" height="1" transform="rotate(-180 48 144.5)" fill="#E3E2E9"/>
<rect x="24.5" y="140" width="8" height="1" transform="rotate(90 24.5 140)" fill="#E3E2E9"/>
<rect x="28" y="144.5" width="8" height="1" transform="rotate(-180 28 144.5)" fill="#E3E2E9"/>
<rect x="4.5" y="140" width="8" height="1" transform="rotate(90 4.5 140)" fill="#E3E2E9"/>
<rect x="8" y="144.5" width="8" height="1" transform="rotate(-180 8 144.5)" fill="#E3E2E9"/>
<rect x="104.5" y="160" width="8" height="1" transform="rotate(90 104.5 160)" fill="#E3E2E9"/>
<rect x="108" y="164.5" width="8" height="1" transform="rotate(-180 108 164.5)" fill="#E3E2E9"/>
<rect x="84.5" y="160" width="8" height="1" transform="rotate(90 84.5 160)" fill="#E3E2E9"/>
<rect x="88" y="164.5" width="8" height="1" transform="rotate(-180 88 164.5)" fill="#E3E2E9"/>
<rect x="64.5" y="160" width="8" height="1" transform="rotate(90 64.5 160)" fill="#E3E2E9"/>
<rect x="68" y="164.5" width="8" height="1" transform="rotate(-180 68 164.5)" fill="#E3E2E9"/>
<rect x="44.5" y="160" width="8" height="1" transform="rotate(90 44.5 160)" fill="#E3E2E9"/>
<rect x="48" y="164.5" width="8" height="1" transform="rotate(-180 48 164.5)" fill="#E3E2E9"/>
<rect x="24.5" y="160" width="8" height="1" transform="rotate(90 24.5 160)" fill="#E3E2E9"/>
<rect x="28" y="164.5" width="8" height="1" transform="rotate(-180 28 164.5)" fill="#E3E2E9"/>
<rect x="4.5" y="160" width="8" height="1" transform="rotate(90 4.5 160)" fill="#E3E2E9"/>
<rect x="8" y="164.5" width="8" height="1" transform="rotate(-180 8 164.5)" fill="#E3E2E9"/>
<rect x="104.5" y="180" width="8" height="1" transform="rotate(90 104.5 180)" fill="#E3E2E9"/>
<rect x="108" y="184.5" width="8" height="1" transform="rotate(-180 108 184.5)" fill="#E3E2E9"/>
<rect x="84.5" y="180" width="8" height="1" transform="rotate(90 84.5 180)" fill="#E3E2E9"/>
<rect x="88" y="184.5" width="8" height="1" transform="rotate(-180 88 184.5)" fill="#E3E2E9"/>
<rect x="64.5" y="180" width="8" height="1" transform="rotate(90 64.5 180)" fill="#E3E2E9"/>
<rect x="68" y="184.5" width="8" height="1" transform="rotate(-180 68 184.5)" fill="#E3E2E9"/>
<rect x="44.5" y="180" width="8" height="1" transform="rotate(90 44.5 180)" fill="#E3E2E9"/>
<rect x="48" y="184.5" width="8" height="1" transform="rotate(-180 48 184.5)" fill="#E3E2E9"/>
<rect x="24.5" y="180" width="8" height="1" transform="rotate(90 24.5 180)" fill="#E3E2E9"/>
<rect x="28" y="184.5" width="8" height="1" transform="rotate(-180 28 184.5)" fill="#E3E2E9"/>
<rect x="4.49999" y="180" width="8" height="1" transform="rotate(90 4.49999 180)" fill="#E3E2E9"/>
<rect x="7.99999" y="184.5" width="8" height="1" transform="rotate(-180 7.99999 184.5)" fill="#E3E2E9"/>
<rect x="104.5" y="200" width="8" height="1" transform="rotate(90 104.5 200)" fill="#E3E2E9"/>
<rect x="108" y="204.5" width="8" height="1" transform="rotate(-180 108 204.5)" fill="#E3E2E9"/>
<rect x="84.5" y="200" width="8" height="1" transform="rotate(90 84.5 200)" fill="#E3E2E9"/>
<rect x="88" y="204.5" width="8" height="1" transform="rotate(-180 88 204.5)" fill="#E3E2E9"/>
<rect x="64.5" y="200" width="8" height="1" transform="rotate(90 64.5 200)" fill="#E3E2E9"/>
<rect x="68" y="204.5" width="8" height="1" transform="rotate(-180 68 204.5)" fill="#E3E2E9"/>
<rect x="44.5" y="200" width="8" height="1" transform="rotate(90 44.5 200)" fill="#E3E2E9"/>
<rect x="48" y="204.5" width="8" height="1" transform="rotate(-180 48 204.5)" fill="#E3E2E9"/>
<rect x="24.5" y="200" width="8" height="1" transform="rotate(90 24.5 200)" fill="#E3E2E9"/>
<rect x="28" y="204.5" width="8" height="1" transform="rotate(-180 28 204.5)" fill="#E3E2E9"/>
<rect x="4.49999" y="200" width="8" height="1" transform="rotate(90 4.49999 200)" fill="#E3E2E9"/>
<rect x="7.99999" y="204.5" width="8" height="1" transform="rotate(-180 7.99999 204.5)" fill="#E3E2E9"/>
<rect x="104.5" y="220" width="8" height="1" transform="rotate(90 104.5 220)" fill="#E3E2E9"/>
<rect x="108" y="224.5" width="8" height="1" transform="rotate(-180 108 224.5)" fill="#E3E2E9"/>
<rect x="84.5" y="220" width="8" height="1" transform="rotate(90 84.5 220)" fill="#E3E2E9"/>
<rect x="88" y="224.5" width="8" height="1" transform="rotate(-180 88 224.5)" fill="#E3E2E9"/>
<rect x="64.5" y="220" width="8" height="1" transform="rotate(90 64.5 220)" fill="#E3E2E9"/>
<rect x="68" y="224.5" width="8" height="1" transform="rotate(-180 68 224.5)" fill="#E3E2E9"/>
<rect x="44.5" y="220" width="8" height="1" transform="rotate(90 44.5 220)" fill="#E3E2E9"/>
<rect x="48" y="224.5" width="8" height="1" transform="rotate(-180 48 224.5)" fill="#E3E2E9"/>
<rect x="24.5" y="220" width="8" height="1" transform="rotate(90 24.5 220)" fill="#E3E2E9"/>
<rect x="28" y="224.5" width="8" height="1" transform="rotate(-180 28 224.5)" fill="#E3E2E9"/>
<rect x="4.49999" y="220" width="8" height="1" transform="rotate(90 4.49999 220)" fill="#E3E2E9"/>
<rect x="7.99999" y="224.5" width="8" height="1" transform="rotate(-180 7.99999 224.5)" fill="#E3E2E9"/>
<g opacity="0.7">
<rect x="576" y="237.5" width="8" height="1" fill="#E3E2E9"/>
<rect x="580.5" y="234" width="8" height="1" transform="rotate(90 580.5 234)" fill="#E3E2E9"/>
<rect x="576" y="257.5" width="8" height="1" fill="#E3E2E9"/>
<rect x="580.5" y="254" width="8" height="1" transform="rotate(90 580.5 254)" fill="#E3E2E9"/>
<rect x="596" y="237.5" width="8" height="1" fill="#E3E2E9"/>
<rect x="600.5" y="234" width="8" height="1" transform="rotate(90 600.5 234)" fill="#E3E2E9"/>
<rect x="596" y="257.5" width="8" height="1" fill="#E3E2E9"/>
<rect x="600.5" y="254" width="8" height="1" transform="rotate(90 600.5 254)" fill="#E3E2E9"/>
<rect x="616" y="237.5" width="8" height="1" fill="#F8BB1E"/>
<rect x="620.5" y="234" width="8" height="1" transform="rotate(90 620.5 234)" fill="#F8BB1E"/>
<rect x="616" y="257.5" width="8" height="1" fill="#E3E2E9"/>
<rect x="620.5" y="254" width="8" height="1" transform="rotate(90 620.5 254)" fill="#E3E2E9"/>
<rect x="636" y="237.5" width="8" height="1" fill="#F55B19"/>
<rect x="640.5" y="234" width="8" height="1" transform="rotate(90 640.5 234)" fill="#F55B19"/>
<rect x="636" y="257.5" width="8" height="1" fill="#E3E2E9"/>
<rect x="640.5" y="254" width="8" height="1" transform="rotate(90 640.5 254)" fill="#E3E2E9"/>
<rect x="656" y="237.5" width="8" height="1" fill="#E3E2E9"/>
<rect x="660.5" y="234" width="8" height="1" transform="rotate(90 660.5 234)" fill="#E3E2E9"/>
<rect x="656" y="257.5" width="8" height="1" fill="#E3E2E9"/>
<rect x="660.5" y="254" width="8" height="1" transform="rotate(90 660.5 254)" fill="#E3E2E9"/>
<rect x="676" y="237.5" width="8" height="1" fill="#E3E2E9"/>
<rect x="680.5" y="234" width="8" height="1" transform="rotate(90 680.5 234)" fill="#E3E2E9"/>
<rect x="676" y="257.5" width="8" height="1" fill="#E3E2E9"/>
<rect x="680.5" y="254" width="8" height="1" transform="rotate(90 680.5 254)" fill="#E3E2E9"/>
<rect x="696" y="237.5" width="8" height="1" fill="#E3E2E9"/>
<rect x="700.5" y="234" width="8" height="1" transform="rotate(90 700.5 234)" fill="#E3E2E9"/>
<rect x="696" y="257.5" width="8" height="1" fill="#E3E2E9"/>
<rect x="700.5" y="254" width="8" height="1" transform="rotate(90 700.5 254)" fill="#E3E2E9"/>
<rect x="716" y="237.5" width="8" height="1" fill="#E3E2E9"/>
<rect x="720.5" y="234" width="8" height="1" transform="rotate(90 720.5 234)" fill="#E3E2E9"/>
<rect x="716" y="257.5" width="8" height="1" fill="#E3E2E9"/>
<rect x="720.5" y="254" width="8" height="1" transform="rotate(90 720.5 254)" fill="#E3E2E9"/>
<rect x="736" y="237.5" width="8" height="1" fill="#E3E2E9"/>
<rect x="740.5" y="234" width="8" height="1" transform="rotate(90 740.5 234)" fill="#E3E2E9"/>
<rect x="736" y="257.5" width="8" height="1" fill="#E3E2E9"/>
<rect x="740.5" y="254" width="8" height="1" transform="rotate(90 740.5 254)" fill="#E3E2E9"/>
<rect x="756" y="237.5" width="8" height="1" fill="#E3E2E9"/>
<rect x="760.5" y="234" width="8" height="1" transform="rotate(90 760.5 234)" fill="#E3E2E9"/>
<rect x="756" y="257.5" width="8" height="1" fill="#E3E2E9"/>
<rect x="760.5" y="254" width="8" height="1" transform="rotate(90 760.5 254)" fill="#E3E2E9"/>
<rect x="776" y="237.5" width="8" height="1" fill="#E3E2E9"/>
<rect x="780.5" y="234" width="8" height="1" transform="rotate(90 780.5 234)" fill="#E3E2E9"/>
<rect x="776" y="257.5" width="8" height="1" fill="#E3E2E9"/>
<rect x="780.5" y="254" width="8" height="1" transform="rotate(90 780.5 254)" fill="#E3E2E9"/>
<rect x="796" y="237.5" width="8" height="1" fill="#E3E2E9"/>
<rect x="800.5" y="234" width="8" height="1" transform="rotate(90 800.5 234)" fill="#E3E2E9"/>
<rect x="796" y="257.5" width="8" height="1" fill="#E3E2E9"/>
<rect x="800.5" y="254" width="8" height="1" transform="rotate(90 800.5 254)" fill="#E3E2E9"/>
<rect x="696" y="277.5" width="8" height="1" fill="#E3E2E9"/>
<rect x="700.5" y="274" width="8" height="1" transform="rotate(90 700.5 274)" fill="#E3E2E9"/>
<rect x="696" y="297.5" width="8" height="1" fill="#E3E2E9"/>
<rect x="700.5" y="294" width="8" height="1" transform="rotate(90 700.5 294)" fill="#E3E2E9"/>
<rect x="696" y="317.5" width="8" height="1" fill="#E3E2E9"/>
<rect x="700.5" y="314" width="8" height="1" transform="rotate(90 700.5 314)" fill="#E3E2E9"/>
<rect x="716" y="277.5" width="8" height="1" fill="#E3E2E9"/>
<rect x="720.5" y="274" width="8" height="1" transform="rotate(90 720.5 274)" fill="#E3E2E9"/>
<rect x="716" y="297.5" width="8" height="1" fill="#E3E2E9"/>
<rect x="720.5" y="294" width="8" height="1" transform="rotate(90 720.5 294)" fill="#E3E2E9"/>
<rect x="716" y="317.5" width="8" height="1" fill="#E3E2E9"/>
<rect x="720.5" y="314" width="8" height="1" transform="rotate(90 720.5 314)" fill="#E3E2E9"/>
<rect x="736" y="277.5" width="8" height="1" fill="#E3E2E9"/>
<rect x="740.5" y="274" width="8" height="1" transform="rotate(90 740.5 274)" fill="#E3E2E9"/>
<rect x="736" y="297.5" width="8" height="1" fill="#E3E2E9"/>
<rect x="740.5" y="294" width="8" height="1" transform="rotate(90 740.5 294)" fill="#E3E2E9"/>
<rect x="736" y="317.5" width="8" height="1" fill="#E3E2E9"/>
<rect x="740.5" y="314" width="8" height="1" transform="rotate(90 740.5 314)" fill="#E3E2E9"/>
<rect x="756" y="277.5" width="8" height="1" fill="#E3E2E9"/>
<rect x="760.5" y="274" width="8" height="1" transform="rotate(90 760.5 274)" fill="#E3E2E9"/>
<rect x="756" y="297.5" width="8" height="1" fill="#E3E2E9"/>
<rect x="760.5" y="294" width="8" height="1" transform="rotate(90 760.5 294)" fill="#E3E2E9"/>
<rect x="756" y="317.5" width="8" height="1" fill="#E3E2E9"/>
<rect x="760.5" y="314" width="8" height="1" transform="rotate(90 760.5 314)" fill="#E3E2E9"/>
<rect x="776" y="277.5" width="8" height="1" fill="#E3E2E9"/>
<rect x="780.5" y="274" width="8" height="1" transform="rotate(90 780.5 274)" fill="#E3E2E9"/>
<rect x="776" y="297.5" width="8" height="1" fill="#E3E2E9"/>
<rect x="780.5" y="294" width="8" height="1" transform="rotate(90 780.5 294)" fill="#E3E2E9"/>
<rect x="776" y="317.5" width="8" height="1" fill="#E3E2E9"/>
<rect x="780.5" y="314" width="8" height="1" transform="rotate(90 780.5 314)" fill="#E3E2E9"/>
<rect x="796" y="277.5" width="8" height="1" fill="#E3E2E9"/>
<rect x="800.5" y="274" width="8" height="1" transform="rotate(90 800.5 274)" fill="#E3E2E9"/>
<rect x="796" y="297.5" width="8" height="1" fill="#E3E2E9"/>
<rect x="800.5" y="294" width="8" height="1" transform="rotate(90 800.5 294)" fill="#E3E2E9"/>
<rect x="796" y="317.5" width="8" height="1" fill="#E3E2E9"/>
<rect x="800.5" y="314" width="8" height="1" transform="rotate(90 800.5 314)" fill="#E3E2E9"/>
</g>
<g opacity="0.7">
<rect x="556" y="137.5" width="8" height="1" fill="#E3E2E9"/>
<rect x="560.5" y="134" width="8" height="1" transform="rotate(90 560.5 134)" fill="#E3E2E9"/>
<rect x="556" y="157.5" width="8" height="1" fill="#E3E2E9"/>
<rect x="560.5" y="154" width="8" height="1" transform="rotate(90 560.5 154)" fill="#E3E2E9"/>
<rect x="576" y="137.5" width="8" height="1" fill="#E3E2E9"/>
<rect x="580.5" y="134" width="8" height="1" transform="rotate(90 580.5 134)" fill="#E3E2E9"/>
<rect x="576" y="157.5" width="8" height="1" fill="#E3E2E9"/>
<rect x="580.5" y="154" width="8" height="1" transform="rotate(90 580.5 154)" fill="#E3E2E9"/>
<rect x="596" y="137.5" width="8" height="1" fill="#E3E2E9"/>
<rect x="600.5" y="134" width="8" height="1" transform="rotate(90 600.5 134)" fill="#E3E2E9"/>
<rect x="596" y="157.5" width="8" height="1" fill="#E3E2E9"/>
<rect x="600.5" y="154" width="8" height="1" transform="rotate(90 600.5 154)" fill="#E3E2E9"/>
<rect x="556" y="177.5" width="8" height="1" fill="#E3E2E9"/>
<rect x="560.5" y="174" width="8" height="1" transform="rotate(90 560.5 174)" fill="#E3E2E9"/>
<rect x="556" y="197.5" width="8" height="1" fill="#E3E2E9"/>
<rect x="560.5" y="194" width="8" height="1" transform="rotate(90 560.5 194)" fill="#E3E2E9"/>
<rect x="556" y="217.5" width="8" height="1" fill="#E3E2E9"/>
<rect x="560.5" y="214" width="8" height="1" transform="rotate(90 560.5 214)" fill="#E3E2E9"/>
<rect x="576" y="177.5" width="8" height="1" fill="#E3E2E9"/>
<rect x="580.5" y="174" width="8" height="1" transform="rotate(90 580.5 174)" fill="#E3E2E9"/>
<rect x="576" y="197.5" width="8" height="1" fill="#E3E2E9"/>
<rect x="580.5" y="194" width="8" height="1" transform="rotate(90 580.5 194)" fill="#E3E2E9"/>
<rect x="576" y="217.5" width="8" height="1" fill="#E3E2E9"/>
<rect x="580.5" y="214" width="8" height="1" transform="rotate(90 580.5 214)" fill="#E3E2E9"/>
<rect x="596" y="177.5" width="8" height="1" fill="#E3E2E9"/>
<rect x="600.5" y="174" width="8" height="1" transform="rotate(90 600.5 174)" fill="#E3E2E9"/>
<rect x="596" y="197.5" width="8" height="1" fill="#E3E2E9"/>
<rect x="600.5" y="194" width="8" height="1" transform="rotate(90 600.5 194)" fill="#E3E2E9"/>
<rect x="596" y="217.5" width="8" height="1" fill="#E3E2E9"/>
<rect x="600.5" y="214" width="8" height="1" transform="rotate(90 600.5 214)" fill="#E3E2E9"/>
<rect x="616" y="217.5" width="8" height="1" fill="#E3E2E9"/>
<rect x="620.5" y="214" width="8" height="1" transform="rotate(90 620.5 214)" fill="#E3E2E9"/>
<rect x="636" y="217.5" width="8" height="1" fill="#E3E2E9"/>
<rect x="640.5" y="214" width="8" height="1" transform="rotate(90 640.5 214)" fill="#E3E2E9"/>
<rect x="656" y="217.5" width="8" height="1" fill="#E3E2E9"/>
<rect x="660.5" y="214" width="8" height="1" transform="rotate(90 660.5 214)" fill="#E3E2E9"/>
</g>
</svg>
