<svg width="468" height="308" viewBox="0 0 468 308" fill="none" xmlns="http://www.w3.org/2000/svg">
<rect x="240" y="83.5" width="8" height="1" fill="#E3E2E9"/>
<rect x="244.5" y="80" width="8" height="1" transform="rotate(90 244.5 80)" fill="#E3E2E9"/>
<rect x="240" y="103.5" width="8" height="1" fill="#E3E2E9"/>
<rect x="244.5" y="100" width="8" height="1" transform="rotate(90 244.5 100)" fill="#E3E2E9"/>
<rect x="240" y="123.5" width="8" height="1" fill="#E3E2E9"/>
<rect x="244.5" y="120" width="8" height="1" transform="rotate(90 244.5 120)" fill="#E3E2E9"/>
<rect x="240" y="143.5" width="8" height="1" fill="#E3E2E9"/>
<rect x="244.5" y="140" width="8" height="1" transform="rotate(90 244.5 140)" fill="#E3E2E9"/>
<rect x="240" y="163.5" width="8" height="1" fill="#E3E2E9"/>
<rect x="244.5" y="160" width="8" height="1" transform="rotate(90 244.5 160)" fill="#E3E2E9"/>
<rect x="240" y="183.5" width="8" height="1" fill="#E3E2E9"/>
<rect x="244.5" y="180" width="8" height="1" transform="rotate(90 244.5 180)" fill="#E3E2E9"/>
<rect x="260" y="83.5" width="8" height="1" fill="#E3E2E9"/>
<rect x="264.5" y="80" width="8" height="1" transform="rotate(90 264.5 80)" fill="#E3E2E9"/>
<rect x="260" y="103.5" width="8" height="1" fill="#E3E2E9"/>
<rect x="264.5" y="100" width="8" height="1" transform="rotate(90 264.5 100)" fill="#E3E2E9"/>
<rect x="260" y="123.5" width="8" height="1" fill="#E3E2E9"/>
<rect x="264.5" y="120" width="8" height="1" transform="rotate(90 264.5 120)" fill="#E3E2E9"/>
<rect x="260" y="143.5" width="8" height="1" fill="#E3E2E9"/>
<rect x="264.5" y="140" width="8" height="1" transform="rotate(90 264.5 140)" fill="#E3E2E9"/>
<rect x="260" y="163.5" width="8" height="1" fill="#E3E2E9"/>
<rect x="264.5" y="160" width="8" height="1" transform="rotate(90 264.5 160)" fill="#E3E2E9"/>
<rect x="260" y="183.5" width="8" height="1" fill="#E3E2E9"/>
<rect x="264.5" y="180" width="8" height="1" transform="rotate(90 264.5 180)" fill="#E3E2E9"/>
<rect x="280" y="83.5" width="8" height="1" fill="#E3E2E9"/>
<rect x="284.5" y="80" width="8" height="1" transform="rotate(90 284.5 80)" fill="#E3E2E9"/>
<rect x="280" y="103.5" width="8" height="1" fill="#E3E2E9"/>
<rect x="284.5" y="100" width="8" height="1" transform="rotate(90 284.5 100)" fill="#E3E2E9"/>
<rect x="280" y="123.5" width="8" height="1" fill="#E3E2E9"/>
<rect x="284.5" y="120" width="8" height="1" transform="rotate(90 284.5 120)" fill="#E3E2E9"/>
<rect x="280" y="143.5" width="8" height="1" fill="#E3E2E9"/>
<rect x="284.5" y="140" width="8" height="1" transform="rotate(90 284.5 140)" fill="#E3E2E9"/>
<rect x="280" y="163.5" width="8" height="1" fill="#E3E2E9"/>
<rect x="284.5" y="160" width="8" height="1" transform="rotate(90 284.5 160)" fill="#E3E2E9"/>
<rect x="280" y="183.5" width="8" height="1" fill="#E3E2E9"/>
<rect x="284.5" y="180" width="8" height="1" transform="rotate(90 284.5 180)" fill="#E3E2E9"/>
<rect x="300" y="83.5" width="8" height="1" fill="#E3E2E9"/>
<rect x="304.5" y="80" width="8" height="1" transform="rotate(90 304.5 80)" fill="#E3E2E9"/>
<rect x="300" y="103.5" width="8" height="1" fill="#F55B19"/>
<rect x="304.5" y="100" width="8" height="1" transform="rotate(90 304.5 100)" fill="#F55B19"/>
<rect x="300" y="123.5" width="8" height="1" fill="#E3E2E9"/>
<rect x="304.5" y="120" width="8" height="1" transform="rotate(90 304.5 120)" fill="#E3E2E9"/>
<rect x="300" y="143.5" width="8" height="1" fill="#E3E2E9"/>
<rect x="304.5" y="140" width="8" height="1" transform="rotate(90 304.5 140)" fill="#E3E2E9"/>
<rect x="300" y="163.5" width="8" height="1" fill="#E3E2E9"/>
<rect x="304.5" y="160" width="8" height="1" transform="rotate(90 304.5 160)" fill="#E3E2E9"/>
<rect x="300" y="183.5" width="8" height="1" fill="#E3E2E9"/>
<rect x="304.5" y="180" width="8" height="1" transform="rotate(90 304.5 180)" fill="#E3E2E9"/>
<rect x="320" y="83.5" width="8" height="1" fill="#E3E2E9"/>
<rect x="324.5" y="80" width="8" height="1" transform="rotate(90 324.5 80)" fill="#E3E2E9"/>
<rect x="320" y="103.5" width="8" height="1" fill="#E3E2E9"/>
<rect x="324.5" y="100" width="8" height="1" transform="rotate(90 324.5 100)" fill="#E3E2E9"/>
<rect x="320" y="123.5" width="8" height="1" fill="#E3E2E9"/>
<rect x="324.5" y="120" width="8" height="1" transform="rotate(90 324.5 120)" fill="#E3E2E9"/>
<rect x="320" y="143.5" width="8" height="1" fill="#E3E2E9"/>
<rect x="324.5" y="140" width="8" height="1" transform="rotate(90 324.5 140)" fill="#E3E2E9"/>
<rect x="320" y="163.5" width="8" height="1" fill="#E3E2E9"/>
<rect x="324.5" y="160" width="8" height="1" transform="rotate(90 324.5 160)" fill="#E3E2E9"/>
<rect x="320" y="183.5" width="8" height="1" fill="#E3E2E9"/>
<rect x="324.5" y="180" width="8" height="1" transform="rotate(90 324.5 180)" fill="#E3E2E9"/>
<rect x="340" y="83.5" width="8" height="1" fill="#E3E2E9"/>
<rect x="344.5" y="80" width="8" height="1" transform="rotate(90 344.5 80)" fill="#E3E2E9"/>
<rect x="340" y="103.5" width="8" height="1" fill="#E3E2E9"/>
<rect x="344.5" y="100" width="8" height="1" transform="rotate(90 344.5 100)" fill="#E3E2E9"/>
<rect x="340" y="123.5" width="8" height="1" fill="#E3E2E9"/>
<rect x="344.5" y="120" width="8" height="1" transform="rotate(90 344.5 120)" fill="#E3E2E9"/>
<rect x="340" y="143.5" width="8" height="1" fill="#E3E2E9"/>
<rect x="344.5" y="140" width="8" height="1" transform="rotate(90 344.5 140)" fill="#E3E2E9"/>
<rect x="340" y="163.5" width="8" height="1" fill="#E3E2E9"/>
<rect x="344.5" y="160" width="8" height="1" transform="rotate(90 344.5 160)" fill="#E3E2E9"/>
<rect x="340" y="183.5" width="8" height="1" fill="#E3E2E9"/>
<rect x="344.5" y="180" width="8" height="1" transform="rotate(90 344.5 180)" fill="#E3E2E9"/>
<rect x="360" y="83.5" width="8" height="1" fill="#E3E2E9"/>
<rect x="364.5" y="80" width="8" height="1" transform="rotate(90 364.5 80)" fill="#E3E2E9"/>
<rect x="360" y="103.5" width="8" height="1" fill="#E3E2E9"/>
<rect x="364.5" y="100" width="8" height="1" transform="rotate(90 364.5 100)" fill="#E3E2E9"/>
<rect x="360" y="123.5" width="8" height="1" fill="#E3E2E9"/>
<rect x="364.5" y="120" width="8" height="1" transform="rotate(90 364.5 120)" fill="#E3E2E9"/>
<rect x="360" y="143.5" width="8" height="1" fill="#E3E2E9"/>
<rect x="364.5" y="140" width="8" height="1" transform="rotate(90 364.5 140)" fill="#E3E2E9"/>
<rect x="360" y="163.5" width="8" height="1" fill="#E3E2E9"/>
<rect x="364.5" y="160" width="8" height="1" transform="rotate(90 364.5 160)" fill="#E3E2E9"/>
<rect x="360" y="183.5" width="8" height="1" fill="#F8BB1E"/>
<rect x="364.5" y="180" width="8" height="1" transform="rotate(90 364.5 180)" fill="#F8BB1E"/>
<rect x="380" y="83.5" width="8" height="1" fill="#E3E2E9"/>
<rect x="384.5" y="80" width="8" height="1" transform="rotate(90 384.5 80)" fill="#E3E2E9"/>
<rect x="380" y="103.5" width="8" height="1" fill="#E3E2E9"/>
<rect x="384.5" y="100" width="8" height="1" transform="rotate(90 384.5 100)" fill="#E3E2E9"/>
<rect x="380" y="123.5" width="8" height="1" fill="#E3E2E9"/>
<rect x="384.5" y="120" width="8" height="1" transform="rotate(90 384.5 120)" fill="#E3E2E9"/>
<rect x="380" y="143.5" width="8" height="1" fill="#E3E2E9"/>
<rect x="384.5" y="140" width="8" height="1" transform="rotate(90 384.5 140)" fill="#E3E2E9"/>
<rect x="380" y="163.5" width="8" height="1" fill="#E3E2E9"/>
<rect x="384.5" y="160" width="8" height="1" transform="rotate(90 384.5 160)" fill="#E3E2E9"/>
<rect x="380" y="183.5" width="8" height="1" fill="#F8BB1E"/>
<rect x="384.5" y="180" width="8" height="1" transform="rotate(90 384.5 180)" fill="#F8BB1E"/>
<rect x="400" y="83.5" width="8" height="1" fill="#E3E2E9"/>
<rect x="404.5" y="80" width="8" height="1" transform="rotate(90 404.5 80)" fill="#E3E2E9"/>
<rect x="400" y="103.5" width="8" height="1" fill="#E3E2E9"/>
<rect x="404.5" y="100" width="8" height="1" transform="rotate(90 404.5 100)" fill="#E3E2E9"/>
<rect x="400" y="123.5" width="8" height="1" fill="#E3E2E9"/>
<rect x="404.5" y="120" width="8" height="1" transform="rotate(90 404.5 120)" fill="#E3E2E9"/>
<rect x="400" y="143.5" width="8" height="1" fill="#E3E2E9"/>
<rect x="404.5" y="140" width="8" height="1" transform="rotate(90 404.5 140)" fill="#E3E2E9"/>
<rect x="400" y="163.5" width="8" height="1" fill="#E3E2E9"/>
<rect x="404.5" y="160" width="8" height="1" transform="rotate(90 404.5 160)" fill="#E3E2E9"/>
<rect x="400" y="183.5" width="8" height="1" fill="#E3E2E9"/>
<rect x="404.5" y="180" width="8" height="1" transform="rotate(90 404.5 180)" fill="#E3E2E9"/>
<rect x="420" y="83.5" width="8" height="1" fill="#E3E2E9"/>
<rect x="424.5" y="80" width="8" height="1" transform="rotate(90 424.5 80)" fill="#E3E2E9"/>
<rect x="420" y="103.5" width="8" height="1" fill="#E3E2E9"/>
<rect x="424.5" y="100" width="8" height="1" transform="rotate(90 424.5 100)" fill="#E3E2E9"/>
<rect x="420" y="123.5" width="8" height="1" fill="#E3E2E9"/>
<rect x="424.5" y="120" width="8" height="1" transform="rotate(90 424.5 120)" fill="#E3E2E9"/>
<rect x="420" y="143.5" width="8" height="1" fill="#E3E2E9"/>
<rect x="424.5" y="140" width="8" height="1" transform="rotate(90 424.5 140)" fill="#E3E2E9"/>
<rect x="420" y="163.5" width="8" height="1" fill="#E3E2E9"/>
<rect x="424.5" y="160" width="8" height="1" transform="rotate(90 424.5 160)" fill="#E3E2E9"/>
<rect x="420" y="183.5" width="8" height="1" fill="#E3E2E9"/>
<rect x="424.5" y="180" width="8" height="1" transform="rotate(90 424.5 180)" fill="#E3E2E9"/>
<rect x="440" y="83.5" width="8" height="1" fill="#E3E2E9"/>
<rect x="444.5" y="80" width="8" height="1" transform="rotate(90 444.5 80)" fill="#E3E2E9"/>
<rect x="440" y="103.5" width="8" height="1" fill="#E3E2E9"/>
<rect x="444.5" y="100" width="8" height="1" transform="rotate(90 444.5 100)" fill="#E3E2E9"/>
<rect x="440" y="123.5" width="8" height="1" fill="#E3E2E9"/>
<rect x="444.5" y="120" width="8" height="1" transform="rotate(90 444.5 120)" fill="#E3E2E9"/>
<rect x="440" y="143.5" width="8" height="1" fill="#E3E2E9"/>
<rect x="444.5" y="140" width="8" height="1" transform="rotate(90 444.5 140)" fill="#E3E2E9"/>
<rect x="440" y="163.5" width="8" height="1" fill="#E3E2E9"/>
<rect x="444.5" y="160" width="8" height="1" transform="rotate(90 444.5 160)" fill="#E3E2E9"/>
<rect x="440" y="183.5" width="8" height="1" fill="#E3E2E9"/>
<rect x="444.5" y="180" width="8" height="1" transform="rotate(90 444.5 180)" fill="#E3E2E9"/>
<rect x="460" y="83.5" width="8" height="1" fill="#E3E2E9"/>
<rect x="464.5" y="80" width="8" height="1" transform="rotate(90 464.5 80)" fill="#E3E2E9"/>
<rect x="460" y="103.5" width="8" height="1" fill="#E3E2E9"/>
<rect x="464.5" y="100" width="8" height="1" transform="rotate(90 464.5 100)" fill="#E3E2E9"/>
<rect x="460" y="123.5" width="8" height="1" fill="#E3E2E9"/>
<rect x="464.5" y="120" width="8" height="1" transform="rotate(90 464.5 120)" fill="#E3E2E9"/>
<rect x="460" y="143.5" width="8" height="1" fill="#E3E2E9"/>
<rect x="464.5" y="140" width="8" height="1" transform="rotate(90 464.5 140)" fill="#E3E2E9"/>
<rect x="460" y="163.5" width="8" height="1" fill="#E3E2E9"/>
<rect x="464.5" y="160" width="8" height="1" transform="rotate(90 464.5 160)" fill="#E3E2E9"/>
<rect x="460" y="183.5" width="8" height="1" fill="#E3E2E9"/>
<rect x="464.5" y="180" width="8" height="1" transform="rotate(90 464.5 180)" fill="#E3E2E9"/>
<rect x="360" y="203.5" width="8" height="1" fill="#E3E2E9"/>
<rect x="364.5" y="200" width="8" height="1" transform="rotate(90 364.5 200)" fill="#E3E2E9"/>
<rect x="360" y="223.5" width="8" height="1" fill="#E3E2E9"/>
<rect x="364.5" y="220" width="8" height="1" transform="rotate(90 364.5 220)" fill="#E3E2E9"/>
<rect x="360" y="243.5" width="8" height="1" fill="#E3E2E9"/>
<rect x="364.5" y="240" width="8" height="1" transform="rotate(90 364.5 240)" fill="#E3E2E9"/>
<rect x="360" y="263.5" width="8" height="1" fill="#E3E2E9"/>
<rect x="364.5" y="260" width="8" height="1" transform="rotate(90 364.5 260)" fill="#E3E2E9"/>
<rect x="360" y="283.5" width="8" height="1" fill="#E3E2E9"/>
<rect x="364.5" y="280" width="8" height="1" transform="rotate(90 364.5 280)" fill="#E3E2E9"/>
<rect x="360" y="303.5" width="8" height="1" fill="#E3E2E9"/>
<rect x="364.5" y="300" width="8" height="1" transform="rotate(90 364.5 300)" fill="#E3E2E9"/>
<rect x="380" y="203.5" width="8" height="1" fill="#E3E2E9"/>
<rect x="384.5" y="200" width="8" height="1" transform="rotate(90 384.5 200)" fill="#E3E2E9"/>
<rect x="380" y="223.5" width="8" height="1" fill="#E3E2E9"/>
<rect x="384.5" y="220" width="8" height="1" transform="rotate(90 384.5 220)" fill="#E3E2E9"/>
<rect x="380" y="243.5" width="8" height="1" fill="#E3E2E9"/>
<rect x="384.5" y="240" width="8" height="1" transform="rotate(90 384.5 240)" fill="#E3E2E9"/>
<rect x="380" y="263.5" width="8" height="1" fill="#E3E2E9"/>
<rect x="384.5" y="260" width="8" height="1" transform="rotate(90 384.5 260)" fill="#E3E2E9"/>
<rect x="380" y="283.5" width="8" height="1" fill="#E3E2E9"/>
<rect x="384.5" y="280" width="8" height="1" transform="rotate(90 384.5 280)" fill="#E3E2E9"/>
<rect x="380" y="303.5" width="8" height="1" fill="#E3E2E9"/>
<rect x="384.5" y="300" width="8" height="1" transform="rotate(90 384.5 300)" fill="#E3E2E9"/>
<rect x="400" y="203.5" width="8" height="1" fill="#E3E2E9"/>
<rect x="404.5" y="200" width="8" height="1" transform="rotate(90 404.5 200)" fill="#E3E2E9"/>
<rect x="400" y="223.5" width="8" height="1" fill="#E3E2E9"/>
<rect x="404.5" y="220" width="8" height="1" transform="rotate(90 404.5 220)" fill="#E3E2E9"/>
<rect x="400" y="243.5" width="8" height="1" fill="#E3E2E9"/>
<rect x="404.5" y="240" width="8" height="1" transform="rotate(90 404.5 240)" fill="#E3E2E9"/>
<rect x="400" y="263.5" width="8" height="1" fill="#E3E2E9"/>
<rect x="404.5" y="260" width="8" height="1" transform="rotate(90 404.5 260)" fill="#E3E2E9"/>
<rect x="400" y="283.5" width="8" height="1" fill="#E3E2E9"/>
<rect x="404.5" y="280" width="8" height="1" transform="rotate(90 404.5 280)" fill="#E3E2E9"/>
<rect x="400" y="303.5" width="8" height="1" fill="#E3E2E9"/>
<rect x="404.5" y="300" width="8" height="1" transform="rotate(90 404.5 300)" fill="#E3E2E9"/>
<rect x="420" y="203.5" width="8" height="1" fill="#E3E2E9"/>
<rect x="424.5" y="200" width="8" height="1" transform="rotate(90 424.5 200)" fill="#E3E2E9"/>
<rect x="420" y="223.5" width="8" height="1" fill="#E3E2E9"/>
<rect x="424.5" y="220" width="8" height="1" transform="rotate(90 424.5 220)" fill="#E3E2E9"/>
<rect x="420" y="243.5" width="8" height="1" fill="#E3E2E9"/>
<rect x="424.5" y="240" width="8" height="1" transform="rotate(90 424.5 240)" fill="#E3E2E9"/>
<rect x="420" y="263.5" width="8" height="1" fill="#E3E2E9"/>
<rect x="424.5" y="260" width="8" height="1" transform="rotate(90 424.5 260)" fill="#E3E2E9"/>
<rect x="420" y="283.5" width="8" height="1" fill="#E3E2E9"/>
<rect x="424.5" y="280" width="8" height="1" transform="rotate(90 424.5 280)" fill="#E3E2E9"/>
<rect x="420" y="303.5" width="8" height="1" fill="#E3E2E9"/>
<rect x="424.5" y="300" width="8" height="1" transform="rotate(90 424.5 300)" fill="#E3E2E9"/>
<rect x="440" y="203.5" width="8" height="1" fill="#E3E2E9"/>
<rect x="444.5" y="200" width="8" height="1" transform="rotate(90 444.5 200)" fill="#E3E2E9"/>
<rect x="440" y="223.5" width="8" height="1" fill="#E3E2E9"/>
<rect x="444.5" y="220" width="8" height="1" transform="rotate(90 444.5 220)" fill="#E3E2E9"/>
<rect x="440" y="243.5" width="8" height="1" fill="#E3E2E9"/>
<rect x="444.5" y="240" width="8" height="1" transform="rotate(90 444.5 240)" fill="#E3E2E9"/>
<rect x="440" y="263.5" width="8" height="1" fill="#E3E2E9"/>
<rect x="444.5" y="260" width="8" height="1" transform="rotate(90 444.5 260)" fill="#E3E2E9"/>
<rect x="440" y="283.5" width="8" height="1" fill="#E3E2E9"/>
<rect x="444.5" y="280" width="8" height="1" transform="rotate(90 444.5 280)" fill="#E3E2E9"/>
<rect x="440" y="303.5" width="8" height="1" fill="#E3E2E9"/>
<rect x="444.5" y="300" width="8" height="1" transform="rotate(90 444.5 300)" fill="#E3E2E9"/>
<rect x="460" y="203.5" width="8" height="1" fill="#E3E2E9"/>
<rect x="464.5" y="200" width="8" height="1" transform="rotate(90 464.5 200)" fill="#E3E2E9"/>
<rect x="460" y="223.5" width="8" height="1" fill="#E3E2E9"/>
<rect x="464.5" y="220" width="8" height="1" transform="rotate(90 464.5 220)" fill="#E3E2E9"/>
<rect x="460" y="243.5" width="8" height="1" fill="#E3E2E9"/>
<rect x="464.5" y="240" width="8" height="1" transform="rotate(90 464.5 240)" fill="#E3E2E9"/>
<rect x="460" y="263.5" width="8" height="1" fill="#E3E2E9"/>
<rect x="464.5" y="260" width="8" height="1" transform="rotate(90 464.5 260)" fill="#E3E2E9"/>
<rect x="460" y="283.5" width="8" height="1" fill="#E3E2E9"/>
<rect x="464.5" y="280" width="8" height="1" transform="rotate(90 464.5 280)" fill="#E3E2E9"/>
<rect x="460" y="303.5" width="8" height="1" fill="#E3E2E9"/>
<rect x="464.5" y="300" width="8" height="1" transform="rotate(90 464.5 300)" fill="#E3E2E9"/>
<rect y="3.5" width="8" height="1" fill="#E3E2E9"/>
<rect x="4.5" width="8" height="1" transform="rotate(90 4.5 0)" fill="#E3E2E9"/>
<rect y="23.5" width="8" height="1" fill="#E3E2E9"/>
<rect x="4.5" y="20" width="8" height="1" transform="rotate(90 4.5 20)" fill="#E3E2E9"/>
<rect y="43.5" width="8" height="1" fill="#E3E2E9"/>
<rect x="4.5" y="40" width="8" height="1" transform="rotate(90 4.5 40)" fill="#E3E2E9"/>
<rect y="63.5" width="8" height="1" fill="#E3E2E9"/>
<rect x="4.5" y="60" width="8" height="1" transform="rotate(90 4.5 60)" fill="#E3E2E9"/>
<rect y="83.5" width="8" height="1" fill="#E3E2E9"/>
<rect x="4.5" y="80" width="8" height="1" transform="rotate(90 4.5 80)" fill="#E3E2E9"/>
<rect y="103.5" width="8" height="1" fill="#E3E2E9"/>
<rect x="4.5" y="100" width="8" height="1" transform="rotate(90 4.5 100)" fill="#E3E2E9"/>
<rect x="20" y="3.5" width="8" height="1" fill="#E3E2E9"/>
<rect x="24.5" width="8" height="1" transform="rotate(90 24.5 0)" fill="#E3E2E9"/>
<rect x="20" y="23.5" width="8" height="1" fill="#E3E2E9"/>
<rect x="24.5" y="20" width="8" height="1" transform="rotate(90 24.5 20)" fill="#E3E2E9"/>
<rect x="20" y="43.5" width="8" height="1" fill="#E3E2E9"/>
<rect x="24.5" y="40" width="8" height="1" transform="rotate(90 24.5 40)" fill="#E3E2E9"/>
<rect x="20" y="63.5" width="8" height="1" fill="#E3E2E9"/>
<rect x="24.5" y="60" width="8" height="1" transform="rotate(90 24.5 60)" fill="#E3E2E9"/>
<rect x="20" y="83.5" width="8" height="1" fill="#E3E2E9"/>
<rect x="24.5" y="80" width="8" height="1" transform="rotate(90 24.5 80)" fill="#E3E2E9"/>
<rect x="20" y="103.5" width="8" height="1" fill="#E3E2E9"/>
<rect x="24.5" y="100" width="8" height="1" transform="rotate(90 24.5 100)" fill="#E3E2E9"/>
<rect x="40" y="3.5" width="8" height="1" fill="#E3E2E9"/>
<rect x="44.5" width="8" height="1" transform="rotate(90 44.5 0)" fill="#E3E2E9"/>
<rect x="40" y="23.5" width="8" height="1" fill="#E3E2E9"/>
<rect x="44.5" y="20" width="8" height="1" transform="rotate(90 44.5 20)" fill="#E3E2E9"/>
<rect x="40" y="43.5" width="8" height="1" fill="#E3E2E9"/>
<rect x="44.5" y="40" width="8" height="1" transform="rotate(90 44.5 40)" fill="#E3E2E9"/>
<rect x="40" y="63.5" width="8" height="1" fill="#E3E2E9"/>
<rect x="44.5" y="60" width="8" height="1" transform="rotate(90 44.5 60)" fill="#E3E2E9"/>
<rect x="40" y="83.5" width="8" height="1" fill="#E3E2E9"/>
<rect x="44.5" y="80" width="8" height="1" transform="rotate(90 44.5 80)" fill="#E3E2E9"/>
<rect x="40" y="103.5" width="8" height="1" fill="#E3E2E9"/>
<rect x="44.5" y="100" width="8" height="1" transform="rotate(90 44.5 100)" fill="#E3E2E9"/>
<rect x="60" y="3.5" width="8" height="1" fill="#E3E2E9"/>
<rect x="64.5" width="8" height="1" transform="rotate(90 64.5 0)" fill="#E3E2E9"/>
<rect x="60" y="23.5" width="8" height="1" fill="#E3E2E9"/>
<rect x="64.5" y="20" width="8" height="1" transform="rotate(90 64.5 20)" fill="#E3E2E9"/>
<rect x="60" y="43.5" width="8" height="1" fill="#E3E2E9"/>
<rect x="64.5" y="40" width="8" height="1" transform="rotate(90 64.5 40)" fill="#E3E2E9"/>
<rect x="60" y="63.5" width="8" height="1" fill="#E3E2E9"/>
<rect x="64.5" y="60" width="8" height="1" transform="rotate(90 64.5 60)" fill="#E3E2E9"/>
<rect x="60" y="83.5" width="8" height="1" fill="#E3E2E9"/>
<rect x="64.5" y="80" width="8" height="1" transform="rotate(90 64.5 80)" fill="#E3E2E9"/>
<rect x="60" y="103.5" width="8" height="1" fill="#E3E2E9"/>
<rect x="64.5" y="100" width="8" height="1" transform="rotate(90 64.5 100)" fill="#E3E2E9"/>
<rect x="80" y="3.5" width="8" height="1" fill="#E3E2E9"/>
<rect x="84.5" width="8" height="1" transform="rotate(90 84.5 0)" fill="#E3E2E9"/>
<rect x="80" y="23.5" width="8" height="1" fill="#E3E2E9"/>
<rect x="84.5" y="20" width="8" height="1" transform="rotate(90 84.5 20)" fill="#E3E2E9"/>
<rect x="80" y="43.5" width="8" height="1" fill="#E3E2E9"/>
<rect x="84.5" y="40" width="8" height="1" transform="rotate(90 84.5 40)" fill="#E3E2E9"/>
<rect x="80" y="63.5" width="8" height="1" fill="#E3E2E9"/>
<rect x="84.5" y="60" width="8" height="1" transform="rotate(90 84.5 60)" fill="#E3E2E9"/>
<rect x="80" y="83.5" width="8" height="1" fill="#E3E2E9"/>
<rect x="84.5" y="80" width="8" height="1" transform="rotate(90 84.5 80)" fill="#E3E2E9"/>
<rect x="80" y="103.5" width="8" height="1" fill="#E3E2E9"/>
<rect x="84.5" y="100" width="8" height="1" transform="rotate(90 84.5 100)" fill="#E3E2E9"/>
<rect x="100" y="3.5" width="8" height="1" fill="#E3E2E9"/>
<rect x="104.5" width="8" height="1" transform="rotate(90 104.5 0)" fill="#E3E2E9"/>
<rect x="100" y="23.5" width="8" height="1" fill="#E3E2E9"/>
<rect x="104.5" y="20" width="8" height="1" transform="rotate(90 104.5 20)" fill="#E3E2E9"/>
<rect x="100" y="43.5" width="8" height="1" fill="#E3E2E9"/>
<rect x="104.5" y="40" width="8" height="1" transform="rotate(90 104.5 40)" fill="#E3E2E9"/>
<rect x="100" y="63.5" width="8" height="1" fill="#E3E2E9"/>
<rect x="104.5" y="60" width="8" height="1" transform="rotate(90 104.5 60)" fill="#E3E2E9"/>
<rect x="100" y="83.5" width="8" height="1" fill="#E3E2E9"/>
<rect x="104.5" y="80" width="8" height="1" transform="rotate(90 104.5 80)" fill="#E3E2E9"/>
<rect x="100" y="103.5" width="8" height="1" fill="#E3E2E9"/>
<rect x="104.5" y="100" width="8" height="1" transform="rotate(90 104.5 100)" fill="#E3E2E9"/>
<rect x="120" y="3.5" width="8" height="1" fill="#E3E2E9"/>
<rect x="124.5" width="8" height="1" transform="rotate(90 124.5 0)" fill="#E3E2E9"/>
<rect x="120" y="23.5" width="8" height="1" fill="#E3E2E9"/>
<rect x="124.5" y="20" width="8" height="1" transform="rotate(90 124.5 20)" fill="#E3E2E9"/>
<rect x="120" y="43.5" width="8" height="1" fill="#E3E2E9"/>
<rect x="124.5" y="40" width="8" height="1" transform="rotate(90 124.5 40)" fill="#E3E2E9"/>
<rect x="120" y="63.5" width="8" height="1" fill="#E3E2E9"/>
<rect x="124.5" y="60" width="8" height="1" transform="rotate(90 124.5 60)" fill="#E3E2E9"/>
<rect x="120" y="83.5" width="8" height="1" fill="#E3E2E9"/>
<rect x="124.5" y="80" width="8" height="1" transform="rotate(90 124.5 80)" fill="#E3E2E9"/>
<rect x="120" y="103.5" width="8" height="1" fill="#E3E2E9"/>
<rect x="124.5" y="100" width="8" height="1" transform="rotate(90 124.5 100)" fill="#E3E2E9"/>
<rect x="140" y="3.5" width="8" height="1" fill="#E3E2E9"/>
<rect x="144.5" width="8" height="1" transform="rotate(90 144.5 0)" fill="#E3E2E9"/>
<rect x="140" y="23.5" width="8" height="1" fill="#E3E2E9"/>
<rect x="144.5" y="20" width="8" height="1" transform="rotate(90 144.5 20)" fill="#E3E2E9"/>
<rect x="140" y="43.5" width="8" height="1" fill="#E3E2E9"/>
<rect x="144.5" y="40" width="8" height="1" transform="rotate(90 144.5 40)" fill="#E3E2E9"/>
<rect x="140" y="63.5" width="8" height="1" fill="#E3E2E9"/>
<rect x="144.5" y="60" width="8" height="1" transform="rotate(90 144.5 60)" fill="#E3E2E9"/>
<rect x="140" y="83.5" width="8" height="1" fill="#E3E2E9"/>
<rect x="144.5" y="80" width="8" height="1" transform="rotate(90 144.5 80)" fill="#E3E2E9"/>
<rect x="140" y="103.5" width="8" height="1" fill="#E3E2E9"/>
<rect x="144.5" y="100" width="8" height="1" transform="rotate(90 144.5 100)" fill="#E3E2E9"/>
<rect x="160" y="3.5" width="8" height="1" fill="#E3E2E9"/>
<rect x="164.5" width="8" height="1" transform="rotate(90 164.5 0)" fill="#E3E2E9"/>
<rect x="160" y="23.5" width="8" height="1" fill="#E3E2E9"/>
<rect x="164.5" y="20" width="8" height="1" transform="rotate(90 164.5 20)" fill="#E3E2E9"/>
<rect x="160" y="43.5" width="8" height="1" fill="#E3E2E9"/>
<rect x="164.5" y="40" width="8" height="1" transform="rotate(90 164.5 40)" fill="#E3E2E9"/>
<rect x="160" y="63.5" width="8" height="1" fill="#E3E2E9"/>
<rect x="164.5" y="60" width="8" height="1" transform="rotate(90 164.5 60)" fill="#E3E2E9"/>
<rect x="160" y="83.5" width="8" height="1" fill="#E3E2E9"/>
<rect x="164.5" y="80" width="8" height="1" transform="rotate(90 164.5 80)" fill="#E3E2E9"/>
<rect x="160" y="103.5" width="8" height="1" fill="#E3E2E9"/>
<rect x="164.5" y="100" width="8" height="1" transform="rotate(90 164.5 100)" fill="#E3E2E9"/>
<rect x="180" y="3.5" width="8" height="1" fill="#E3E2E9"/>
<rect x="184.5" width="8" height="1" transform="rotate(90 184.5 0)" fill="#E3E2E9"/>
<rect x="180" y="23.5" width="8" height="1" fill="#E3E2E9"/>
<rect x="184.5" y="20" width="8" height="1" transform="rotate(90 184.5 20)" fill="#E3E2E9"/>
<rect x="180" y="43.5" width="8" height="1" fill="#E3E2E9"/>
<rect x="184.5" y="40" width="8" height="1" transform="rotate(90 184.5 40)" fill="#E3E2E9"/>
<rect x="180" y="63.5" width="8" height="1" fill="#E3E2E9"/>
<rect x="184.5" y="60" width="8" height="1" transform="rotate(90 184.5 60)" fill="#E3E2E9"/>
<rect x="180" y="83.5" width="8" height="1" fill="#E3E2E9"/>
<rect x="184.5" y="80" width="8" height="1" transform="rotate(90 184.5 80)" fill="#E3E2E9"/>
<rect x="180" y="103.5" width="8" height="1" fill="#E3E2E9"/>
<rect x="184.5" y="100" width="8" height="1" transform="rotate(90 184.5 100)" fill="#E3E2E9"/>
<rect x="200" y="3.5" width="8" height="1" fill="#E3E2E9"/>
<rect x="204.5" width="8" height="1" transform="rotate(90 204.5 0)" fill="#E3E2E9"/>
<rect x="200" y="23.5" width="8" height="1" fill="#E3E2E9"/>
<rect x="204.5" y="20" width="8" height="1" transform="rotate(90 204.5 20)" fill="#E3E2E9"/>
<rect x="200" y="43.5" width="8" height="1" fill="#E3E2E9"/>
<rect x="204.5" y="40" width="8" height="1" transform="rotate(90 204.5 40)" fill="#E3E2E9"/>
<rect x="200" y="63.5" width="8" height="1" fill="#E3E2E9"/>
<rect x="204.5" y="60" width="8" height="1" transform="rotate(90 204.5 60)" fill="#E3E2E9"/>
<rect x="200" y="83.5" width="8" height="1" fill="#E3E2E9"/>
<rect x="204.5" y="80" width="8" height="1" transform="rotate(90 204.5 80)" fill="#E3E2E9"/>
<rect x="200" y="103.5" width="8" height="1" fill="#E3E2E9"/>
<rect x="204.5" y="100" width="8" height="1" transform="rotate(90 204.5 100)" fill="#E3E2E9"/>
<rect x="220" y="3.5" width="8" height="1" fill="#E3E2E9"/>
<rect x="224.5" width="8" height="1" transform="rotate(90 224.5 0)" fill="#E3E2E9"/>
<rect x="220" y="23.5" width="8" height="1" fill="#E3E2E9"/>
<rect x="224.5" y="20" width="8" height="1" transform="rotate(90 224.5 20)" fill="#E3E2E9"/>
<rect x="220" y="43.5" width="8" height="1" fill="#E3E2E9"/>
<rect x="224.5" y="40" width="8" height="1" transform="rotate(90 224.5 40)" fill="#E3E2E9"/>
<rect x="220" y="63.5" width="8" height="1" fill="#E3E2E9"/>
<rect x="224.5" y="60" width="8" height="1" transform="rotate(90 224.5 60)" fill="#E3E2E9"/>
<rect x="220" y="83.5" width="8" height="1" fill="#E3E2E9"/>
<rect x="224.5" y="80" width="8" height="1" transform="rotate(90 224.5 80)" fill="#E3E2E9"/>
<rect x="220" y="103.5" width="8" height="1" fill="#E3E2E9"/>
<rect x="224.5" y="100" width="8" height="1" transform="rotate(90 224.5 100)" fill="#E3E2E9"/>
</svg>
