<svg width="764" height="624" viewBox="0 0 764 624" fill="none" xmlns="http://www.w3.org/2000/svg">
<g opacity="0.7">
<rect x="240" y="103.5" width="8" height="1" fill="#E3E2E9"/>
<rect x="244.5" y="100" width="8" height="1" transform="rotate(90 244.5 100)" fill="#E3E2E9"/>
<rect x="240" y="123.5" width="8" height="1" fill="#E3E2E9"/>
<rect x="244.5" y="120" width="8" height="1" transform="rotate(90 244.5 120)" fill="#E3E2E9"/>
<rect x="260" y="103.5" width="8" height="1" fill="#E3E2E9"/>
<rect x="264.5" y="100" width="8" height="1" transform="rotate(90 264.5 100)" fill="#E3E2E9"/>
<rect x="260" y="123.5" width="8" height="1" fill="#E3E2E9"/>
<rect x="264.5" y="120" width="8" height="1" transform="rotate(90 264.5 120)" fill="#E3E2E9"/>
<rect x="280" y="103.5" width="8" height="1" fill="#F8BB1E"/>
<rect x="284.5" y="100" width="8" height="1" transform="rotate(90 284.5 100)" fill="#F8BB1E"/>
<rect x="280" y="123.5" width="8" height="1" fill="#E3E2E9"/>
<rect x="284.5" y="120" width="8" height="1" transform="rotate(90 284.5 120)" fill="#E3E2E9"/>
<rect x="300" y="103.5" width="8" height="1" fill="#F55B19"/>
<rect x="304.5" y="100" width="8" height="1" transform="rotate(90 304.5 100)" fill="#F55B19"/>
<rect x="300" y="123.5" width="8" height="1" fill="#E3E2E9"/>
<rect x="304.5" y="120" width="8" height="1" transform="rotate(90 304.5 120)" fill="#E3E2E9"/>
<rect x="320" y="103.5" width="8" height="1" fill="#E3E2E9"/>
<rect x="324.5" y="100" width="8" height="1" transform="rotate(90 324.5 100)" fill="#E3E2E9"/>
<rect x="320" y="123.5" width="8" height="1" fill="#E3E2E9"/>
<rect x="324.5" y="120" width="8" height="1" transform="rotate(90 324.5 120)" fill="#E3E2E9"/>
<rect x="340" y="103.5" width="8" height="1" fill="#E3E2E9"/>
<rect x="344.5" y="100" width="8" height="1" transform="rotate(90 344.5 100)" fill="#E3E2E9"/>
<rect x="340" y="123.5" width="8" height="1" fill="#E3E2E9"/>
<rect x="344.5" y="120" width="8" height="1" transform="rotate(90 344.5 120)" fill="#E3E2E9"/>
<rect x="360" y="103.5" width="8" height="1" fill="#E3E2E9"/>
<rect x="364.5" y="100" width="8" height="1" transform="rotate(90 364.5 100)" fill="#E3E2E9"/>
<rect x="360" y="123.5" width="8" height="1" fill="#E3E2E9"/>
<rect x="364.5" y="120" width="8" height="1" transform="rotate(90 364.5 120)" fill="#E3E2E9"/>
<rect x="380" y="103.5" width="8" height="1" fill="#E3E2E9"/>
<rect x="384.5" y="100" width="8" height="1" transform="rotate(90 384.5 100)" fill="#E3E2E9"/>
<rect x="380" y="123.5" width="8" height="1" fill="#E3E2E9"/>
<rect x="384.5" y="120" width="8" height="1" transform="rotate(90 384.5 120)" fill="#E3E2E9"/>
<rect x="400" y="103.5" width="8" height="1" fill="#E3E2E9"/>
<rect x="404.5" y="100" width="8" height="1" transform="rotate(90 404.5 100)" fill="#E3E2E9"/>
<rect x="400" y="123.5" width="8" height="1" fill="#E3E2E9"/>
<rect x="404.5" y="120" width="8" height="1" transform="rotate(90 404.5 120)" fill="#E3E2E9"/>
<rect x="420" y="103.5" width="8" height="1" fill="#E3E2E9"/>
<rect x="424.5" y="100" width="8" height="1" transform="rotate(90 424.5 100)" fill="#E3E2E9"/>
<rect x="420" y="123.5" width="8" height="1" fill="#E3E2E9"/>
<rect x="424.5" y="120" width="8" height="1" transform="rotate(90 424.5 120)" fill="#E3E2E9"/>
<rect x="440" y="103.5" width="8" height="1" fill="#E3E2E9"/>
<rect x="444.5" y="100" width="8" height="1" transform="rotate(90 444.5 100)" fill="#E3E2E9"/>
<rect x="440" y="123.5" width="8" height="1" fill="#E3E2E9"/>
<rect x="444.5" y="120" width="8" height="1" transform="rotate(90 444.5 120)" fill="#E3E2E9"/>
<rect x="460" y="103.5" width="8" height="1" fill="#E3E2E9"/>
<rect x="464.5" y="100" width="8" height="1" transform="rotate(90 464.5 100)" fill="#E3E2E9"/>
<rect x="460" y="123.5" width="8" height="1" fill="#E3E2E9"/>
<rect x="464.5" y="120" width="8" height="1" transform="rotate(90 464.5 120)" fill="#E3E2E9"/>
<rect x="360" y="143.5" width="8" height="1" fill="#E3E2E9"/>
<rect x="364.5" y="140" width="8" height="1" transform="rotate(90 364.5 140)" fill="#E3E2E9"/>
<rect x="360" y="163.5" width="8" height="1" fill="#E3E2E9"/>
<rect x="364.5" y="160" width="8" height="1" transform="rotate(90 364.5 160)" fill="#E3E2E9"/>
<rect x="360" y="183.5" width="8" height="1" fill="#E3E2E9"/>
<rect x="364.5" y="180" width="8" height="1" transform="rotate(90 364.5 180)" fill="#E3E2E9"/>
<rect x="380" y="143.5" width="8" height="1" fill="#E3E2E9"/>
<rect x="384.5" y="140" width="8" height="1" transform="rotate(90 384.5 140)" fill="#E3E2E9"/>
<rect x="380" y="163.5" width="8" height="1" fill="#E3E2E9"/>
<rect x="384.5" y="160" width="8" height="1" transform="rotate(90 384.5 160)" fill="#E3E2E9"/>
<rect x="380" y="183.5" width="8" height="1" fill="#E3E2E9"/>
<rect x="384.5" y="180" width="8" height="1" transform="rotate(90 384.5 180)" fill="#E3E2E9"/>
<rect x="400" y="143.5" width="8" height="1" fill="#E3E2E9"/>
<rect x="404.5" y="140" width="8" height="1" transform="rotate(90 404.5 140)" fill="#E3E2E9"/>
<rect x="400" y="163.5" width="8" height="1" fill="#E3E2E9"/>
<rect x="404.5" y="160" width="8" height="1" transform="rotate(90 404.5 160)" fill="#E3E2E9"/>
<rect x="400" y="183.5" width="8" height="1" fill="#E3E2E9"/>
<rect x="404.5" y="180" width="8" height="1" transform="rotate(90 404.5 180)" fill="#E3E2E9"/>
<rect x="420" y="143.5" width="8" height="1" fill="#E3E2E9"/>
<rect x="424.5" y="140" width="8" height="1" transform="rotate(90 424.5 140)" fill="#E3E2E9"/>
<rect x="420" y="163.5" width="8" height="1" fill="#E3E2E9"/>
<rect x="424.5" y="160" width="8" height="1" transform="rotate(90 424.5 160)" fill="#E3E2E9"/>
<rect x="420" y="183.5" width="8" height="1" fill="#E3E2E9"/>
<rect x="424.5" y="180" width="8" height="1" transform="rotate(90 424.5 180)" fill="#E3E2E9"/>
<rect x="440" y="143.5" width="8" height="1" fill="#E3E2E9"/>
<rect x="444.5" y="140" width="8" height="1" transform="rotate(90 444.5 140)" fill="#E3E2E9"/>
<rect x="440" y="163.5" width="8" height="1" fill="#E3E2E9"/>
<rect x="444.5" y="160" width="8" height="1" transform="rotate(90 444.5 160)" fill="#E3E2E9"/>
<rect x="440" y="183.5" width="8" height="1" fill="#E3E2E9"/>
<rect x="444.5" y="180" width="8" height="1" transform="rotate(90 444.5 180)" fill="#E3E2E9"/>
<rect x="460" y="143.5" width="8" height="1" fill="#E3E2E9"/>
<rect x="464.5" y="140" width="8" height="1" transform="rotate(90 464.5 140)" fill="#E3E2E9"/>
<rect x="460" y="163.5" width="8" height="1" fill="#E3E2E9"/>
<rect x="464.5" y="160" width="8" height="1" transform="rotate(90 464.5 160)" fill="#E3E2E9"/>
<rect x="460" y="183.5" width="8" height="1" fill="#E3E2E9"/>
<rect x="464.5" y="180" width="8" height="1" transform="rotate(90 464.5 180)" fill="#E3E2E9"/>
</g>
<g opacity="0.7">
<rect x="220" y="3.5" width="8" height="1" fill="#E3E2E9"/>
<rect x="224.5" width="8" height="1" transform="rotate(90 224.5 0)" fill="#E3E2E9"/>
<rect x="220" y="23.5" width="8" height="1" fill="#E3E2E9"/>
<rect x="224.5" y="20" width="8" height="1" transform="rotate(90 224.5 20)" fill="#E3E2E9"/>
<rect x="240" y="3.5" width="8" height="1" fill="#E3E2E9"/>
<rect x="244.5" width="8" height="1" transform="rotate(90 244.5 0)" fill="#E3E2E9"/>
<rect x="240" y="23.5" width="8" height="1" fill="#E3E2E9"/>
<rect x="244.5" y="20" width="8" height="1" transform="rotate(90 244.5 20)" fill="#E3E2E9"/>
<rect x="260" y="3.5" width="8" height="1" fill="#E3E2E9"/>
<rect x="264.5" width="8" height="1" transform="rotate(90 264.5 0)" fill="#E3E2E9"/>
<rect x="260" y="23.5" width="8" height="1" fill="#E3E2E9"/>
<rect x="264.5" y="20" width="8" height="1" transform="rotate(90 264.5 20)" fill="#E3E2E9"/>
<rect x="220" y="43.5" width="8" height="1" fill="#E3E2E9"/>
<rect x="224.5" y="40" width="8" height="1" transform="rotate(90 224.5 40)" fill="#E3E2E9"/>
<rect x="220" y="63.5" width="8" height="1" fill="#E3E2E9"/>
<rect x="224.5" y="60" width="8" height="1" transform="rotate(90 224.5 60)" fill="#E3E2E9"/>
<rect x="220" y="83.5" width="8" height="1" fill="#E3E2E9"/>
<rect x="224.5" y="80" width="8" height="1" transform="rotate(90 224.5 80)" fill="#E3E2E9"/>
<rect x="240" y="43.5" width="8" height="1" fill="#E3E2E9"/>
<rect x="244.5" y="40" width="8" height="1" transform="rotate(90 244.5 40)" fill="#E3E2E9"/>
<rect x="240" y="63.5" width="8" height="1" fill="#E3E2E9"/>
<rect x="244.5" y="60" width="8" height="1" transform="rotate(90 244.5 60)" fill="#E3E2E9"/>
<rect x="240" y="83.5" width="8" height="1" fill="#E3E2E9"/>
<rect x="244.5" y="80" width="8" height="1" transform="rotate(90 244.5 80)" fill="#E3E2E9"/>
<rect x="260" y="43.5" width="8" height="1" fill="#E3E2E9"/>
<rect x="264.5" y="40" width="8" height="1" transform="rotate(90 264.5 40)" fill="#E3E2E9"/>
<rect x="260" y="63.5" width="8" height="1" fill="#E3E2E9"/>
<rect x="264.5" y="60" width="8" height="1" transform="rotate(90 264.5 60)" fill="#E3E2E9"/>
<rect x="260" y="83.5" width="8" height="1" fill="#E3E2E9"/>
<rect x="264.5" y="80" width="8" height="1" transform="rotate(90 264.5 80)" fill="#E3E2E9"/>
<rect x="280" y="83.5" width="8" height="1" fill="#E3E2E9"/>
<rect x="284.5" y="80" width="8" height="1" transform="rotate(90 284.5 80)" fill="#E3E2E9"/>
<rect x="300" y="83.5" width="8" height="1" fill="#E3E2E9"/>
<rect x="304.5" y="80" width="8" height="1" transform="rotate(90 304.5 80)" fill="#E3E2E9"/>
<rect x="320" y="83.5" width="8" height="1" fill="#E3E2E9"/>
<rect x="324.5" y="80" width="8" height="1" transform="rotate(90 324.5 80)" fill="#E3E2E9"/>
</g>
<rect x="144.5" y="284" width="8" height="1" transform="rotate(90 144.5 284)" fill="#E3E2E9"/>
<rect x="148" y="288.5" width="8" height="1" transform="rotate(-180 148 288.5)" fill="#E3E2E9"/>
<rect x="124.5" y="284" width="8" height="1" transform="rotate(90 124.5 284)" fill="#E3E2E9"/>
<rect x="128" y="288.5" width="8" height="1" transform="rotate(-180 128 288.5)" fill="#E3E2E9"/>
<rect x="144.5" y="304" width="8" height="1" transform="rotate(90 144.5 304)" fill="#E3E2E9"/>
<rect x="148" y="308.5" width="8" height="1" transform="rotate(-180 148 308.5)" fill="#E3E2E9"/>
<rect x="124.5" y="304" width="8" height="1" transform="rotate(90 124.5 304)" fill="#E3E2E9"/>
<rect x="128" y="308.5" width="8" height="1" transform="rotate(-180 128 308.5)" fill="#E3E2E9"/>
<rect x="144.5" y="324" width="8" height="1" transform="rotate(90 144.5 324)" fill="#E3E2E9"/>
<rect x="148" y="328.5" width="8" height="1" transform="rotate(-180 148 328.5)" fill="#E3E2E9"/>
<rect x="124.5" y="324" width="8" height="1" transform="rotate(90 124.5 324)" fill="#E3E2E9"/>
<rect x="128" y="328.5" width="8" height="1" transform="rotate(-180 128 328.5)" fill="#E3E2E9"/>
<rect x="144.5" y="344" width="8" height="1" transform="rotate(90 144.5 344)" fill="#E3E2E9"/>
<rect x="148" y="348.5" width="8" height="1" transform="rotate(-180 148 348.5)" fill="#E3E2E9"/>
<rect x="124.5" y="344" width="8" height="1" transform="rotate(90 124.5 344)" fill="#E3E2E9"/>
<rect x="128" y="348.5" width="8" height="1" transform="rotate(-180 128 348.5)" fill="#E3E2E9"/>
<rect x="144.5" y="364" width="8" height="1" transform="rotate(90 144.5 364)" fill="#E3E2E9"/>
<rect x="148" y="368.5" width="8" height="1" transform="rotate(-180 148 368.5)" fill="#E3E2E9"/>
<rect x="124.5" y="364" width="8" height="1" transform="rotate(90 124.5 364)" fill="#E3E2E9"/>
<rect x="128" y="368.5" width="8" height="1" transform="rotate(-180 128 368.5)" fill="#E3E2E9"/>
<rect x="144.5" y="384" width="8" height="1" transform="rotate(90 144.5 384)" fill="#E3E2E9"/>
<rect x="148" y="388.5" width="8" height="1" transform="rotate(-180 148 388.5)" fill="#E3E2E9"/>
<rect x="124.5" y="384" width="8" height="1" transform="rotate(90 124.5 384)" fill="#E3E2E9"/>
<rect x="128" y="388.5" width="8" height="1" transform="rotate(-180 128 388.5)" fill="#E3E2E9"/>
<rect x="144.5" y="404" width="8" height="1" transform="rotate(90 144.5 404)" fill="#E3E2E9"/>
<rect x="148" y="408.5" width="8" height="1" transform="rotate(-180 148 408.5)" fill="#E3E2E9"/>
<rect x="124.5" y="404" width="8" height="1" transform="rotate(90 124.5 404)" fill="#E3E2E9"/>
<rect x="128" y="408.5" width="8" height="1" transform="rotate(-180 128 408.5)" fill="#E3E2E9"/>
<rect x="144.5" y="424" width="8" height="1" transform="rotate(90 144.5 424)" fill="#E3E2E9"/>
<rect x="148" y="428.5" width="8" height="1" transform="rotate(-180 148 428.5)" fill="#E3E2E9"/>
<rect x="124.5" y="424" width="8" height="1" transform="rotate(90 124.5 424)" fill="#E3E2E9"/>
<rect x="128" y="428.5" width="8" height="1" transform="rotate(-180 128 428.5)" fill="#E3E2E9"/>
<rect x="144.5" y="444" width="8" height="1" transform="rotate(90 144.5 444)" fill="#E3E2E9"/>
<rect x="148" y="448.5" width="8" height="1" transform="rotate(-180 148 448.5)" fill="#E3E2E9"/>
<rect x="124.5" y="444" width="8" height="1" transform="rotate(90 124.5 444)" fill="#E3E2E9"/>
<rect x="128" y="448.5" width="8" height="1" transform="rotate(-180 128 448.5)" fill="#E3E2E9"/>
<rect x="144.5" y="464" width="8" height="1" transform="rotate(90 144.5 464)" fill="#E3E2E9"/>
<rect x="148" y="468.5" width="8" height="1" transform="rotate(-180 148 468.5)" fill="#E3E2E9"/>
<rect x="124.5" y="464" width="8" height="1" transform="rotate(90 124.5 464)" fill="#E3E2E9"/>
<rect x="128" y="468.5" width="8" height="1" transform="rotate(-180 128 468.5)" fill="#E3E2E9"/>
<rect x="224.5" y="484" width="8" height="1" transform="rotate(90 224.5 484)" fill="#E3E2E9"/>
<rect x="228" y="488.5" width="8" height="1" transform="rotate(-180 228 488.5)" fill="#E3E2E9"/>
<rect x="204.5" y="484" width="8" height="1" transform="rotate(90 204.5 484)" fill="#E3E2E9"/>
<rect x="208" y="488.5" width="8" height="1" transform="rotate(-180 208 488.5)" fill="#E3E2E9"/>
<rect x="184.5" y="484" width="8" height="1" transform="rotate(90 184.5 484)" fill="#E3E2E9"/>
<rect x="188" y="488.5" width="8" height="1" transform="rotate(-180 188 488.5)" fill="#E3E2E9"/>
<rect x="164.5" y="484" width="8" height="1" transform="rotate(90 164.5 484)" fill="#E3E2E9"/>
<rect x="168" y="488.5" width="8" height="1" transform="rotate(-180 168 488.5)" fill="#E3E2E9"/>
<rect x="144.5" y="484" width="8" height="1" transform="rotate(90 144.5 484)" fill="#E3E2E9"/>
<rect x="148" y="488.5" width="8" height="1" transform="rotate(-180 148 488.5)" fill="#E3E2E9"/>
<rect x="124.5" y="484" width="8" height="1" transform="rotate(90 124.5 484)" fill="#E3E2E9"/>
<rect x="128" y="488.5" width="8" height="1" transform="rotate(-180 128 488.5)" fill="#E3E2E9"/>
<rect x="224.5" y="504" width="8" height="1" transform="rotate(90 224.5 504)" fill="#E3E2E9"/>
<rect x="228" y="508.5" width="8" height="1" transform="rotate(-180 228 508.5)" fill="#E3E2E9"/>
<rect x="204.5" y="504" width="8" height="1" transform="rotate(90 204.5 504)" fill="#E3E2E9"/>
<rect x="208" y="508.5" width="8" height="1" transform="rotate(-180 208 508.5)" fill="#E3E2E9"/>
<rect x="184.5" y="504" width="8" height="1" transform="rotate(90 184.5 504)" fill="#E3E2E9"/>
<rect x="188" y="508.5" width="8" height="1" transform="rotate(-180 188 508.5)" fill="#E3E2E9"/>
<rect x="164.5" y="504" width="8" height="1" transform="rotate(90 164.5 504)" fill="#E3E2E9"/>
<rect x="168" y="508.5" width="8" height="1" transform="rotate(-180 168 508.5)" fill="#E3E2E9"/>
<rect x="144.5" y="504" width="8" height="1" transform="rotate(90 144.5 504)" fill="#E3E2E9"/>
<rect x="148" y="508.5" width="8" height="1" transform="rotate(-180 148 508.5)" fill="#E3E2E9"/>
<rect x="124.5" y="504" width="8" height="1" transform="rotate(90 124.5 504)" fill="#E3E2E9"/>
<rect x="128" y="508.5" width="8" height="1" transform="rotate(-180 128 508.5)" fill="#E3E2E9"/>
<rect x="104.5" y="404" width="8" height="1" transform="rotate(90 104.5 404)" fill="#E3E2E9"/>
<rect x="108" y="408.5" width="8" height="1" transform="rotate(-180 108 408.5)" fill="#E3E2E9"/>
<rect x="84.5" y="404" width="8" height="1" transform="rotate(90 84.5 404)" fill="#E3E2E9"/>
<rect x="88" y="408.5" width="8" height="1" transform="rotate(-180 88 408.5)" fill="#E3E2E9"/>
<rect x="64.5" y="404" width="8" height="1" transform="rotate(90 64.5 404)" fill="#E3E2E9"/>
<rect x="68" y="408.5" width="8" height="1" transform="rotate(-180 68 408.5)" fill="#E3E2E9"/>
<rect x="44.5" y="404" width="8" height="1" transform="rotate(90 44.5 404)" fill="#E3E2E9"/>
<rect x="48" y="408.5" width="8" height="1" transform="rotate(-180 48 408.5)" fill="#E3E2E9"/>
<rect x="24.5" y="404" width="8" height="1" transform="rotate(90 24.5 404)" fill="#E3E2E9"/>
<rect x="28" y="408.5" width="8" height="1" transform="rotate(-180 28 408.5)" fill="#E3E2E9"/>
<rect x="4.49999" y="404" width="8" height="1" transform="rotate(90 4.49999 404)" fill="#E3E2E9"/>
<rect x="7.99999" y="408.5" width="8" height="1" transform="rotate(-180 7.99999 408.5)" fill="#E3E2E9"/>
<rect x="104.5" y="424" width="8" height="1" transform="rotate(90 104.5 424)" fill="#E3E2E9"/>
<rect x="108" y="428.5" width="8" height="1" transform="rotate(-180 108 428.5)" fill="#E3E2E9"/>
<rect x="84.5" y="424" width="8" height="1" transform="rotate(90 84.5 424)" fill="#E3E2E9"/>
<rect x="88" y="428.5" width="8" height="1" transform="rotate(-180 88 428.5)" fill="#E3E2E9"/>
<rect x="64.5" y="424" width="8" height="1" transform="rotate(90 64.5 424)" fill="#E3E2E9"/>
<rect x="68" y="428.5" width="8" height="1" transform="rotate(-180 68 428.5)" fill="#E3E2E9"/>
<rect x="44.5" y="424" width="8" height="1" transform="rotate(90 44.5 424)" fill="#E3E2E9"/>
<rect x="48" y="428.5" width="8" height="1" transform="rotate(-180 48 428.5)" fill="#E3E2E9"/>
<rect x="24.5" y="424" width="8" height="1" transform="rotate(90 24.5 424)" fill="#E3E2E9"/>
<rect x="28" y="428.5" width="8" height="1" transform="rotate(-180 28 428.5)" fill="#E3E2E9"/>
<rect x="4.49999" y="424" width="8" height="1" transform="rotate(90 4.49999 424)" fill="#E3E2E9"/>
<rect x="7.99999" y="428.5" width="8" height="1" transform="rotate(-180 7.99999 428.5)" fill="#E3E2E9"/>
<rect x="104.5" y="444" width="8" height="1" transform="rotate(90 104.5 444)" fill="#E3E2E9"/>
<rect x="108" y="448.5" width="8" height="1" transform="rotate(-180 108 448.5)" fill="#E3E2E9"/>
<rect x="84.5" y="444" width="8" height="1" transform="rotate(90 84.5 444)" fill="#E3E2E9"/>
<rect x="88" y="448.5" width="8" height="1" transform="rotate(-180 88 448.5)" fill="#E3E2E9"/>
<rect x="64.5" y="444" width="8" height="1" transform="rotate(90 64.5 444)" fill="#E3E2E9"/>
<rect x="68" y="448.5" width="8" height="1" transform="rotate(-180 68 448.5)" fill="#E3E2E9"/>
<rect x="44.5" y="444" width="8" height="1" transform="rotate(90 44.5 444)" fill="#E3E2E9"/>
<rect x="48" y="448.5" width="8" height="1" transform="rotate(-180 48 448.5)" fill="#E3E2E9"/>
<rect x="24.5" y="444" width="8" height="1" transform="rotate(90 24.5 444)" fill="#E3E2E9"/>
<rect x="28" y="448.5" width="8" height="1" transform="rotate(-180 28 448.5)" fill="#E3E2E9"/>
<rect x="4.49999" y="444" width="8" height="1" transform="rotate(90 4.49999 444)" fill="#E3E2E9"/>
<rect x="7.99999" y="448.5" width="8" height="1" transform="rotate(-180 7.99999 448.5)" fill="#E3E2E9"/>
<rect x="104.5" y="464" width="8" height="1" transform="rotate(90 104.5 464)" fill="#E3E2E9"/>
<rect x="108" y="468.5" width="8" height="1" transform="rotate(-180 108 468.5)" fill="#E3E2E9"/>
<rect x="84.5" y="464" width="8" height="1" transform="rotate(90 84.5 464)" fill="#E3E2E9"/>
<rect x="88" y="468.5" width="8" height="1" transform="rotate(-180 88 468.5)" fill="#E3E2E9"/>
<rect x="64.5" y="464" width="8" height="1" transform="rotate(90 64.5 464)" fill="#E3E2E9"/>
<rect x="68" y="468.5" width="8" height="1" transform="rotate(-180 68 468.5)" fill="#E3E2E9"/>
<rect x="44.5" y="464" width="8" height="1" transform="rotate(90 44.5 464)" fill="#E3E2E9"/>
<rect x="48" y="468.5" width="8" height="1" transform="rotate(-180 48 468.5)" fill="#E3E2E9"/>
<rect x="24.5" y="464" width="8" height="1" transform="rotate(90 24.5 464)" fill="#E3E2E9"/>
<rect x="28" y="468.5" width="8" height="1" transform="rotate(-180 28 468.5)" fill="#E3E2E9"/>
<rect x="4.49999" y="464" width="8" height="1" transform="rotate(90 4.49999 464)" fill="#E3E2E9"/>
<rect x="7.99999" y="468.5" width="8" height="1" transform="rotate(-180 7.99999 468.5)" fill="#E3E2E9"/>
<rect x="104.5" y="484" width="8" height="1" transform="rotate(90 104.5 484)" fill="#E3E2E9"/>
<rect x="108" y="488.5" width="8" height="1" transform="rotate(-180 108 488.5)" fill="#E3E2E9"/>
<rect x="84.5" y="484" width="8" height="1" transform="rotate(90 84.5 484)" fill="#E3E2E9"/>
<rect x="88" y="488.5" width="8" height="1" transform="rotate(-180 88 488.5)" fill="#E3E2E9"/>
<rect x="64.5" y="484" width="8" height="1" transform="rotate(90 64.5 484)" fill="#E3E2E9"/>
<rect x="68" y="488.5" width="8" height="1" transform="rotate(-180 68 488.5)" fill="#E3E2E9"/>
<rect x="44.5" y="484" width="8" height="1" transform="rotate(90 44.5 484)" fill="#E3E2E9"/>
<rect x="48" y="488.5" width="8" height="1" transform="rotate(-180 48 488.5)" fill="#E3E2E9"/>
<rect x="24.5" y="484" width="8" height="1" transform="rotate(90 24.5 484)" fill="#E3E2E9"/>
<rect x="28" y="488.5" width="8" height="1" transform="rotate(-180 28 488.5)" fill="#E3E2E9"/>
<rect x="4.49999" y="484" width="8" height="1" transform="rotate(90 4.49999 484)" fill="#E3E2E9"/>
<rect x="7.99999" y="488.5" width="8" height="1" transform="rotate(-180 7.99999 488.5)" fill="#E3E2E9"/>
<rect x="104.5" y="504" width="8" height="1" transform="rotate(90 104.5 504)" fill="#E3E2E9"/>
<rect x="108" y="508.5" width="8" height="1" transform="rotate(-180 108 508.5)" fill="#E3E2E9"/>
<rect x="84.5" y="504" width="8" height="1" transform="rotate(90 84.5 504)" fill="#E3E2E9"/>
<rect x="88" y="508.5" width="8" height="1" transform="rotate(-180 88 508.5)" fill="#E3E2E9"/>
<rect x="64.5" y="504" width="8" height="1" transform="rotate(90 64.5 504)" fill="#E3E2E9"/>
<rect x="68" y="508.5" width="8" height="1" transform="rotate(-180 68 508.5)" fill="#E3E2E9"/>
<rect x="44.5" y="504" width="8" height="1" transform="rotate(90 44.5 504)" fill="#E3E2E9"/>
<rect x="48" y="508.5" width="8" height="1" transform="rotate(-180 48 508.5)" fill="#E3E2E9"/>
<rect x="24.5" y="504" width="8" height="1" transform="rotate(90 24.5 504)" fill="#E3E2E9"/>
<rect x="28" y="508.5" width="8" height="1" transform="rotate(-180 28 508.5)" fill="#E3E2E9"/>
<rect x="4.49999" y="504" width="8" height="1" transform="rotate(90 4.49999 504)" fill="#E3E2E9"/>
<rect x="7.99999" y="508.5" width="8" height="1" transform="rotate(-180 7.99999 508.5)" fill="#E3E2E9"/>
<g opacity="0.7">
<rect x="536" y="539.5" width="8" height="1" fill="#E3E2E9"/>
<rect x="540.5" y="536" width="8" height="1" transform="rotate(90 540.5 536)" fill="#E3E2E9"/>
<rect x="536" y="559.5" width="8" height="1" fill="#E3E2E9"/>
<rect x="540.5" y="556" width="8" height="1" transform="rotate(90 540.5 556)" fill="#E3E2E9"/>
<rect x="556" y="539.5" width="8" height="1" fill="#E3E2E9"/>
<rect x="560.5" y="536" width="8" height="1" transform="rotate(90 560.5 536)" fill="#E3E2E9"/>
<rect x="556" y="559.5" width="8" height="1" fill="#E3E2E9"/>
<rect x="560.5" y="556" width="8" height="1" transform="rotate(90 560.5 556)" fill="#E3E2E9"/>
<rect x="576" y="539.5" width="8" height="1" fill="#F8BB1E"/>
<rect x="580.5" y="536" width="8" height="1" transform="rotate(90 580.5 536)" fill="#F8BB1E"/>
<rect x="576" y="559.5" width="8" height="1" fill="#E3E2E9"/>
<rect x="580.5" y="556" width="8" height="1" transform="rotate(90 580.5 556)" fill="#E3E2E9"/>
<rect x="596" y="539.5" width="8" height="1" fill="#F55B19"/>
<rect x="600.5" y="536" width="8" height="1" transform="rotate(90 600.5 536)" fill="#F55B19"/>
<rect x="596" y="559.5" width="8" height="1" fill="#E3E2E9"/>
<rect x="600.5" y="556" width="8" height="1" transform="rotate(90 600.5 556)" fill="#E3E2E9"/>
<rect x="616" y="539.5" width="8" height="1" fill="#E3E2E9"/>
<rect x="620.5" y="536" width="8" height="1" transform="rotate(90 620.5 536)" fill="#E3E2E9"/>
<rect x="616" y="559.5" width="8" height="1" fill="#E3E2E9"/>
<rect x="620.5" y="556" width="8" height="1" transform="rotate(90 620.5 556)" fill="#E3E2E9"/>
<rect x="636" y="539.5" width="8" height="1" fill="#E3E2E9"/>
<rect x="640.5" y="536" width="8" height="1" transform="rotate(90 640.5 536)" fill="#E3E2E9"/>
<rect x="636" y="559.5" width="8" height="1" fill="#E3E2E9"/>
<rect x="640.5" y="556" width="8" height="1" transform="rotate(90 640.5 556)" fill="#E3E2E9"/>
<rect x="656" y="539.5" width="8" height="1" fill="#E3E2E9"/>
<rect x="660.5" y="536" width="8" height="1" transform="rotate(90 660.5 536)" fill="#E3E2E9"/>
<rect x="656" y="559.5" width="8" height="1" fill="#E3E2E9"/>
<rect x="660.5" y="556" width="8" height="1" transform="rotate(90 660.5 556)" fill="#E3E2E9"/>
<rect x="676" y="539.5" width="8" height="1" fill="#E3E2E9"/>
<rect x="680.5" y="536" width="8" height="1" transform="rotate(90 680.5 536)" fill="#E3E2E9"/>
<rect x="676" y="559.5" width="8" height="1" fill="#E3E2E9"/>
<rect x="680.5" y="556" width="8" height="1" transform="rotate(90 680.5 556)" fill="#E3E2E9"/>
<rect x="696" y="539.5" width="8" height="1" fill="#E3E2E9"/>
<rect x="700.5" y="536" width="8" height="1" transform="rotate(90 700.5 536)" fill="#E3E2E9"/>
<rect x="696" y="559.5" width="8" height="1" fill="#E3E2E9"/>
<rect x="700.5" y="556" width="8" height="1" transform="rotate(90 700.5 556)" fill="#E3E2E9"/>
<rect x="716" y="539.5" width="8" height="1" fill="#E3E2E9"/>
<rect x="720.5" y="536" width="8" height="1" transform="rotate(90 720.5 536)" fill="#E3E2E9"/>
<rect x="716" y="559.5" width="8" height="1" fill="#E3E2E9"/>
<rect x="720.5" y="556" width="8" height="1" transform="rotate(90 720.5 556)" fill="#E3E2E9"/>
<rect x="736" y="539.5" width="8" height="1" fill="#E3E2E9"/>
<rect x="740.5" y="536" width="8" height="1" transform="rotate(90 740.5 536)" fill="#E3E2E9"/>
<rect x="736" y="559.5" width="8" height="1" fill="#E3E2E9"/>
<rect x="740.5" y="556" width="8" height="1" transform="rotate(90 740.5 556)" fill="#E3E2E9"/>
<rect x="756" y="539.5" width="8" height="1" fill="#E3E2E9"/>
<rect x="760.5" y="536" width="8" height="1" transform="rotate(90 760.5 536)" fill="#E3E2E9"/>
<rect x="756" y="559.5" width="8" height="1" fill="#E3E2E9"/>
<rect x="760.5" y="556" width="8" height="1" transform="rotate(90 760.5 556)" fill="#E3E2E9"/>
<rect x="656" y="579.5" width="8" height="1" fill="#E3E2E9"/>
<rect x="660.5" y="576" width="8" height="1" transform="rotate(90 660.5 576)" fill="#E3E2E9"/>
<rect x="656" y="599.5" width="8" height="1" fill="#E3E2E9"/>
<rect x="660.5" y="596" width="8" height="1" transform="rotate(90 660.5 596)" fill="#E3E2E9"/>
<rect x="656" y="619.5" width="8" height="1" fill="#E3E2E9"/>
<rect x="660.5" y="616" width="8" height="1" transform="rotate(90 660.5 616)" fill="#E3E2E9"/>
<rect x="676" y="579.5" width="8" height="1" fill="#E3E2E9"/>
<rect x="680.5" y="576" width="8" height="1" transform="rotate(90 680.5 576)" fill="#E3E2E9"/>
<rect x="676" y="599.5" width="8" height="1" fill="#E3E2E9"/>
<rect x="680.5" y="596" width="8" height="1" transform="rotate(90 680.5 596)" fill="#E3E2E9"/>
<rect x="676" y="619.5" width="8" height="1" fill="#E3E2E9"/>
<rect x="680.5" y="616" width="8" height="1" transform="rotate(90 680.5 616)" fill="#E3E2E9"/>
<rect x="696" y="579.5" width="8" height="1" fill="#E3E2E9"/>
<rect x="700.5" y="576" width="8" height="1" transform="rotate(90 700.5 576)" fill="#E3E2E9"/>
<rect x="696" y="599.5" width="8" height="1" fill="#E3E2E9"/>
<rect x="700.5" y="596" width="8" height="1" transform="rotate(90 700.5 596)" fill="#E3E2E9"/>
<rect x="696" y="619.5" width="8" height="1" fill="#E3E2E9"/>
<rect x="700.5" y="616" width="8" height="1" transform="rotate(90 700.5 616)" fill="#E3E2E9"/>
<rect x="716" y="579.5" width="8" height="1" fill="#E3E2E9"/>
<rect x="720.5" y="576" width="8" height="1" transform="rotate(90 720.5 576)" fill="#E3E2E9"/>
<rect x="716" y="599.5" width="8" height="1" fill="#E3E2E9"/>
<rect x="720.5" y="596" width="8" height="1" transform="rotate(90 720.5 596)" fill="#E3E2E9"/>
<rect x="716" y="619.5" width="8" height="1" fill="#E3E2E9"/>
<rect x="720.5" y="616" width="8" height="1" transform="rotate(90 720.5 616)" fill="#E3E2E9"/>
<rect x="736" y="579.5" width="8" height="1" fill="#E3E2E9"/>
<rect x="740.5" y="576" width="8" height="1" transform="rotate(90 740.5 576)" fill="#E3E2E9"/>
<rect x="736" y="599.5" width="8" height="1" fill="#E3E2E9"/>
<rect x="740.5" y="596" width="8" height="1" transform="rotate(90 740.5 596)" fill="#E3E2E9"/>
<rect x="736" y="619.5" width="8" height="1" fill="#E3E2E9"/>
<rect x="740.5" y="616" width="8" height="1" transform="rotate(90 740.5 616)" fill="#E3E2E9"/>
<rect x="756" y="579.5" width="8" height="1" fill="#E3E2E9"/>
<rect x="760.5" y="576" width="8" height="1" transform="rotate(90 760.5 576)" fill="#E3E2E9"/>
<rect x="756" y="599.5" width="8" height="1" fill="#E3E2E9"/>
<rect x="760.5" y="596" width="8" height="1" transform="rotate(90 760.5 596)" fill="#E3E2E9"/>
<rect x="756" y="619.5" width="8" height="1" fill="#E3E2E9"/>
<rect x="760.5" y="616" width="8" height="1" transform="rotate(90 760.5 616)" fill="#E3E2E9"/>
</g>
<g opacity="0.7">
<rect x="516" y="479.5" width="8" height="1" fill="#E3E2E9"/>
<rect x="520.5" y="476" width="8" height="1" transform="rotate(90 520.5 476)" fill="#E3E2E9"/>
<rect x="516" y="499.5" width="8" height="1" fill="#E3E2E9"/>
<rect x="520.5" y="496" width="8" height="1" transform="rotate(90 520.5 496)" fill="#E3E2E9"/>
<rect x="516" y="519.5" width="8" height="1" fill="#E3E2E9"/>
<rect x="520.5" y="516" width="8" height="1" transform="rotate(90 520.5 516)" fill="#E3E2E9"/>
<rect x="536" y="479.5" width="8" height="1" fill="#E3E2E9"/>
<rect x="540.5" y="476" width="8" height="1" transform="rotate(90 540.5 476)" fill="#E3E2E9"/>
<rect x="536" y="499.5" width="8" height="1" fill="#E3E2E9"/>
<rect x="540.5" y="496" width="8" height="1" transform="rotate(90 540.5 496)" fill="#E3E2E9"/>
<rect x="536" y="519.5" width="8" height="1" fill="#E3E2E9"/>
<rect x="540.5" y="516" width="8" height="1" transform="rotate(90 540.5 516)" fill="#E3E2E9"/>
<rect x="556" y="479.5" width="8" height="1" fill="#E3E2E9"/>
<rect x="560.5" y="476" width="8" height="1" transform="rotate(90 560.5 476)" fill="#E3E2E9"/>
<rect x="556" y="499.5" width="8" height="1" fill="#E3E2E9"/>
<rect x="560.5" y="496" width="8" height="1" transform="rotate(90 560.5 496)" fill="#E3E2E9"/>
<rect x="556" y="519.5" width="8" height="1" fill="#E3E2E9"/>
<rect x="560.5" y="516" width="8" height="1" transform="rotate(90 560.5 516)" fill="#E3E2E9"/>
<rect x="576" y="519.5" width="8" height="1" fill="#E3E2E9"/>
<rect x="580.5" y="516" width="8" height="1" transform="rotate(90 580.5 516)" fill="#E3E2E9"/>
<rect x="596" y="519.5" width="8" height="1" fill="#E3E2E9"/>
<rect x="600.5" y="516" width="8" height="1" transform="rotate(90 600.5 516)" fill="#E3E2E9"/>
<rect x="616" y="519.5" width="8" height="1" fill="#E3E2E9"/>
<rect x="620.5" y="516" width="8" height="1" transform="rotate(90 620.5 516)" fill="#E3E2E9"/>
</g>
</svg>
