<svg width="228" height="228" viewBox="0 0 228 228" fill="none" xmlns="http://www.w3.org/2000/svg">
<rect y="3.5" width="8" height="1" fill="#E3E2E9"/>
<rect x="4.5" width="8" height="1" transform="rotate(90 4.5 0)" fill="#E3E2E9"/>
<rect y="23.5" width="8" height="1" fill="#E3E2E9"/>
<rect x="4.5" y="20" width="8" height="1" transform="rotate(90 4.5 20)" fill="#E3E2E9"/>
<rect y="43.5" width="8" height="1" fill="#E3E2E9"/>
<rect x="4.5" y="40" width="8" height="1" transform="rotate(90 4.5 40)" fill="#E3E2E9"/>
<rect y="63.5" width="8" height="1" fill="#E3E2E9"/>
<rect x="4.5" y="60" width="8" height="1" transform="rotate(90 4.5 60)" fill="#E3E2E9"/>
<rect y="83.5" width="8" height="1" fill="#E3E2E9"/>
<rect x="4.5" y="80" width="8" height="1" transform="rotate(90 4.5 80)" fill="#E3E2E9"/>
<rect y="103.5" width="8" height="1" fill="#E3E2E9"/>
<rect x="4.5" y="100" width="8" height="1" transform="rotate(90 4.5 100)" fill="#E3E2E9"/>
<rect x="20" y="3.5" width="8" height="1" fill="#E3E2E9"/>
<rect x="24.5" width="8" height="1" transform="rotate(90 24.5 0)" fill="#E3E2E9"/>
<rect x="20" y="23.5" width="8" height="1" fill="#E3E2E9"/>
<rect x="24.5" y="20" width="8" height="1" transform="rotate(90 24.5 20)" fill="#E3E2E9"/>
<rect x="20" y="43.5" width="8" height="1" fill="#E3E2E9"/>
<rect x="24.5" y="40" width="8" height="1" transform="rotate(90 24.5 40)" fill="#E3E2E9"/>
<rect x="20" y="63.5" width="8" height="1" fill="#E3E2E9"/>
<rect x="24.5" y="60" width="8" height="1" transform="rotate(90 24.5 60)" fill="#E3E2E9"/>
<rect x="20" y="83.5" width="8" height="1" fill="#E3E2E9"/>
<rect x="24.5" y="80" width="8" height="1" transform="rotate(90 24.5 80)" fill="#E3E2E9"/>
<rect x="20" y="103.5" width="8" height="1" fill="#E3E2E9"/>
<rect x="24.5" y="100" width="8" height="1" transform="rotate(90 24.5 100)" fill="#E3E2E9"/>
<rect x="40" y="3.5" width="8" height="1" fill="#E3E2E9"/>
<rect x="44.5" width="8" height="1" transform="rotate(90 44.5 0)" fill="#E3E2E9"/>
<rect x="40" y="23.5" width="8" height="1" fill="#E3E2E9"/>
<rect x="44.5" y="20" width="8" height="1" transform="rotate(90 44.5 20)" fill="#E3E2E9"/>
<rect x="40" y="43.5" width="8" height="1" fill="#E3E2E9"/>
<rect x="44.5" y="40" width="8" height="1" transform="rotate(90 44.5 40)" fill="#E3E2E9"/>
<rect x="40" y="63.5" width="8" height="1" fill="#E3E2E9"/>
<rect x="44.5" y="60" width="8" height="1" transform="rotate(90 44.5 60)" fill="#E3E2E9"/>
<rect x="40" y="83.5" width="8" height="1" fill="#E3E2E9"/>
<rect x="44.5" y="80" width="8" height="1" transform="rotate(90 44.5 80)" fill="#E3E2E9"/>
<rect x="40" y="103.5" width="8" height="1" fill="#E3E2E9"/>
<rect x="44.5" y="100" width="8" height="1" transform="rotate(90 44.5 100)" fill="#E3E2E9"/>
<rect x="60" y="3.5" width="8" height="1" fill="#E3E2E9"/>
<rect x="64.5" width="8" height="1" transform="rotate(90 64.5 0)" fill="#E3E2E9"/>
<rect x="60" y="23.5" width="8" height="1" fill="#F55B19"/>
<rect x="64.5" y="20" width="8" height="1" transform="rotate(90 64.5 20)" fill="#F55B19"/>
<rect x="60" y="43.5" width="8" height="1" fill="#E3E2E9"/>
<rect x="64.5" y="40" width="8" height="1" transform="rotate(90 64.5 40)" fill="#E3E2E9"/>
<rect x="60" y="63.5" width="8" height="1" fill="#E3E2E9"/>
<rect x="64.5" y="60" width="8" height="1" transform="rotate(90 64.5 60)" fill="#E3E2E9"/>
<rect x="60" y="83.5" width="8" height="1" fill="#E3E2E9"/>
<rect x="64.5" y="80" width="8" height="1" transform="rotate(90 64.5 80)" fill="#E3E2E9"/>
<rect x="60" y="103.5" width="8" height="1" fill="#E3E2E9"/>
<rect x="64.5" y="100" width="8" height="1" transform="rotate(90 64.5 100)" fill="#E3E2E9"/>
<rect x="80" y="3.5" width="8" height="1" fill="#E3E2E9"/>
<rect x="84.5" width="8" height="1" transform="rotate(90 84.5 0)" fill="#E3E2E9"/>
<rect x="80" y="23.5" width="8" height="1" fill="#E3E2E9"/>
<rect x="84.5" y="20" width="8" height="1" transform="rotate(90 84.5 20)" fill="#E3E2E9"/>
<rect x="80" y="43.5" width="8" height="1" fill="#E3E2E9"/>
<rect x="84.5" y="40" width="8" height="1" transform="rotate(90 84.5 40)" fill="#E3E2E9"/>
<rect x="80" y="63.5" width="8" height="1" fill="#E3E2E9"/>
<rect x="84.5" y="60" width="8" height="1" transform="rotate(90 84.5 60)" fill="#E3E2E9"/>
<rect x="80" y="83.5" width="8" height="1" fill="#E3E2E9"/>
<rect x="84.5" y="80" width="8" height="1" transform="rotate(90 84.5 80)" fill="#E3E2E9"/>
<rect x="80" y="103.5" width="8" height="1" fill="#E3E2E9"/>
<rect x="84.5" y="100" width="8" height="1" transform="rotate(90 84.5 100)" fill="#E3E2E9"/>
<rect x="100" y="3.5" width="8" height="1" fill="#E3E2E9"/>
<rect x="104.5" width="8" height="1" transform="rotate(90 104.5 0)" fill="#E3E2E9"/>
<rect x="100" y="23.5" width="8" height="1" fill="#E3E2E9"/>
<rect x="104.5" y="20" width="8" height="1" transform="rotate(90 104.5 20)" fill="#E3E2E9"/>
<rect x="100" y="43.5" width="8" height="1" fill="#E3E2E9"/>
<rect x="104.5" y="40" width="8" height="1" transform="rotate(90 104.5 40)" fill="#E3E2E9"/>
<rect x="100" y="63.5" width="8" height="1" fill="#E3E2E9"/>
<rect x="104.5" y="60" width="8" height="1" transform="rotate(90 104.5 60)" fill="#E3E2E9"/>
<rect x="100" y="83.5" width="8" height="1" fill="#E3E2E9"/>
<rect x="104.5" y="80" width="8" height="1" transform="rotate(90 104.5 80)" fill="#E3E2E9"/>
<rect x="100" y="103.5" width="8" height="1" fill="#E3E2E9"/>
<rect x="104.5" y="100" width="8" height="1" transform="rotate(90 104.5 100)" fill="#E3E2E9"/>
<rect x="120" y="3.5" width="8" height="1" fill="#E3E2E9"/>
<rect x="124.5" width="8" height="1" transform="rotate(90 124.5 0)" fill="#E3E2E9"/>
<rect x="120" y="23.5" width="8" height="1" fill="#E3E2E9"/>
<rect x="124.5" y="20" width="8" height="1" transform="rotate(90 124.5 20)" fill="#E3E2E9"/>
<rect x="120" y="43.5" width="8" height="1" fill="#E3E2E9"/>
<rect x="124.5" y="40" width="8" height="1" transform="rotate(90 124.5 40)" fill="#E3E2E9"/>
<rect x="120" y="63.5" width="8" height="1" fill="#E3E2E9"/>
<rect x="124.5" y="60" width="8" height="1" transform="rotate(90 124.5 60)" fill="#E3E2E9"/>
<rect x="120" y="83.5" width="8" height="1" fill="#E3E2E9"/>
<rect x="124.5" y="80" width="8" height="1" transform="rotate(90 124.5 80)" fill="#E3E2E9"/>
<rect x="120" y="103.5" width="8" height="1" fill="#F8BB1E"/>
<rect x="124.5" y="100" width="8" height="1" transform="rotate(90 124.5 100)" fill="#F8BB1E"/>
<rect x="140" y="3.5" width="8" height="1" fill="#E3E2E9"/>
<rect x="144.5" width="8" height="1" transform="rotate(90 144.5 0)" fill="#E3E2E9"/>
<rect x="140" y="23.5" width="8" height="1" fill="#E3E2E9"/>
<rect x="144.5" y="20" width="8" height="1" transform="rotate(90 144.5 20)" fill="#E3E2E9"/>
<rect x="140" y="43.5" width="8" height="1" fill="#E3E2E9"/>
<rect x="144.5" y="40" width="8" height="1" transform="rotate(90 144.5 40)" fill="#E3E2E9"/>
<rect x="140" y="63.5" width="8" height="1" fill="#E3E2E9"/>
<rect x="144.5" y="60" width="8" height="1" transform="rotate(90 144.5 60)" fill="#E3E2E9"/>
<rect x="140" y="83.5" width="8" height="1" fill="#E3E2E9"/>
<rect x="144.5" y="80" width="8" height="1" transform="rotate(90 144.5 80)" fill="#E3E2E9"/>
<rect x="140" y="103.5" width="8" height="1" fill="#F8BB1E"/>
<rect x="144.5" y="100" width="8" height="1" transform="rotate(90 144.5 100)" fill="#F8BB1E"/>
<rect x="160" y="3.5" width="8" height="1" fill="#E3E2E9"/>
<rect x="164.5" width="8" height="1" transform="rotate(90 164.5 0)" fill="#E3E2E9"/>
<rect x="160" y="23.5" width="8" height="1" fill="#E3E2E9"/>
<rect x="164.5" y="20" width="8" height="1" transform="rotate(90 164.5 20)" fill="#E3E2E9"/>
<rect x="160" y="43.5" width="8" height="1" fill="#E3E2E9"/>
<rect x="164.5" y="40" width="8" height="1" transform="rotate(90 164.5 40)" fill="#E3E2E9"/>
<rect x="160" y="63.5" width="8" height="1" fill="#E3E2E9"/>
<rect x="164.5" y="60" width="8" height="1" transform="rotate(90 164.5 60)" fill="#E3E2E9"/>
<rect x="160" y="83.5" width="8" height="1" fill="#E3E2E9"/>
<rect x="164.5" y="80" width="8" height="1" transform="rotate(90 164.5 80)" fill="#E3E2E9"/>
<rect x="160" y="103.5" width="8" height="1" fill="#E3E2E9"/>
<rect x="164.5" y="100" width="8" height="1" transform="rotate(90 164.5 100)" fill="#E3E2E9"/>
<rect x="180" y="3.5" width="8" height="1" fill="#E3E2E9"/>
<rect x="184.5" width="8" height="1" transform="rotate(90 184.5 0)" fill="#E3E2E9"/>
<rect x="180" y="23.5" width="8" height="1" fill="#E3E2E9"/>
<rect x="184.5" y="20" width="8" height="1" transform="rotate(90 184.5 20)" fill="#E3E2E9"/>
<rect x="180" y="43.5" width="8" height="1" fill="#E3E2E9"/>
<rect x="184.5" y="40" width="8" height="1" transform="rotate(90 184.5 40)" fill="#E3E2E9"/>
<rect x="180" y="63.5" width="8" height="1" fill="#E3E2E9"/>
<rect x="184.5" y="60" width="8" height="1" transform="rotate(90 184.5 60)" fill="#E3E2E9"/>
<rect x="180" y="83.5" width="8" height="1" fill="#E3E2E9"/>
<rect x="184.5" y="80" width="8" height="1" transform="rotate(90 184.5 80)" fill="#E3E2E9"/>
<rect x="180" y="103.5" width="8" height="1" fill="#E3E2E9"/>
<rect x="184.5" y="100" width="8" height="1" transform="rotate(90 184.5 100)" fill="#E3E2E9"/>
<rect x="200" y="3.5" width="8" height="1" fill="#E3E2E9"/>
<rect x="204.5" width="8" height="1" transform="rotate(90 204.5 0)" fill="#E3E2E9"/>
<rect x="200" y="23.5" width="8" height="1" fill="#E3E2E9"/>
<rect x="204.5" y="20" width="8" height="1" transform="rotate(90 204.5 20)" fill="#E3E2E9"/>
<rect x="200" y="43.5" width="8" height="1" fill="#E3E2E9"/>
<rect x="204.5" y="40" width="8" height="1" transform="rotate(90 204.5 40)" fill="#E3E2E9"/>
<rect x="200" y="63.5" width="8" height="1" fill="#E3E2E9"/>
<rect x="204.5" y="60" width="8" height="1" transform="rotate(90 204.5 60)" fill="#E3E2E9"/>
<rect x="200" y="83.5" width="8" height="1" fill="#E3E2E9"/>
<rect x="204.5" y="80" width="8" height="1" transform="rotate(90 204.5 80)" fill="#E3E2E9"/>
<rect x="200" y="103.5" width="8" height="1" fill="#E3E2E9"/>
<rect x="204.5" y="100" width="8" height="1" transform="rotate(90 204.5 100)" fill="#E3E2E9"/>
<rect x="220" y="3.5" width="8" height="1" fill="#E3E2E9"/>
<rect x="224.5" width="8" height="1" transform="rotate(90 224.5 0)" fill="#E3E2E9"/>
<rect x="220" y="23.5" width="8" height="1" fill="#E3E2E9"/>
<rect x="224.5" y="20" width="8" height="1" transform="rotate(90 224.5 20)" fill="#E3E2E9"/>
<rect x="220" y="43.5" width="8" height="1" fill="#E3E2E9"/>
<rect x="224.5" y="40" width="8" height="1" transform="rotate(90 224.5 40)" fill="#E3E2E9"/>
<rect x="220" y="63.5" width="8" height="1" fill="#E3E2E9"/>
<rect x="224.5" y="60" width="8" height="1" transform="rotate(90 224.5 60)" fill="#E3E2E9"/>
<rect x="220" y="83.5" width="8" height="1" fill="#E3E2E9"/>
<rect x="224.5" y="80" width="8" height="1" transform="rotate(90 224.5 80)" fill="#E3E2E9"/>
<rect x="220" y="103.5" width="8" height="1" fill="#E3E2E9"/>
<rect x="224.5" y="100" width="8" height="1" transform="rotate(90 224.5 100)" fill="#E3E2E9"/>
<rect x="120" y="123.5" width="8" height="1" fill="#E3E2E9"/>
<rect x="124.5" y="120" width="8" height="1" transform="rotate(90 124.5 120)" fill="#E3E2E9"/>
<rect x="120" y="143.5" width="8" height="1" fill="#E3E2E9"/>
<rect x="124.5" y="140" width="8" height="1" transform="rotate(90 124.5 140)" fill="#E3E2E9"/>
<rect x="120" y="163.5" width="8" height="1" fill="#E3E2E9"/>
<rect x="124.5" y="160" width="8" height="1" transform="rotate(90 124.5 160)" fill="#E3E2E9"/>
<rect x="120" y="183.5" width="8" height="1" fill="#E3E2E9"/>
<rect x="124.5" y="180" width="8" height="1" transform="rotate(90 124.5 180)" fill="#E3E2E9"/>
<rect x="120" y="203.5" width="8" height="1" fill="#E3E2E9"/>
<rect x="124.5" y="200" width="8" height="1" transform="rotate(90 124.5 200)" fill="#E3E2E9"/>
<rect x="120" y="223.5" width="8" height="1" fill="#E3E2E9"/>
<rect x="124.5" y="220" width="8" height="1" transform="rotate(90 124.5 220)" fill="#E3E2E9"/>
<rect x="140" y="123.5" width="8" height="1" fill="#E3E2E9"/>
<rect x="144.5" y="120" width="8" height="1" transform="rotate(90 144.5 120)" fill="#E3E2E9"/>
<rect x="140" y="143.5" width="8" height="1" fill="#E3E2E9"/>
<rect x="144.5" y="140" width="8" height="1" transform="rotate(90 144.5 140)" fill="#E3E2E9"/>
<rect x="140" y="163.5" width="8" height="1" fill="#E3E2E9"/>
<rect x="144.5" y="160" width="8" height="1" transform="rotate(90 144.5 160)" fill="#E3E2E9"/>
<rect x="140" y="183.5" width="8" height="1" fill="#E3E2E9"/>
<rect x="144.5" y="180" width="8" height="1" transform="rotate(90 144.5 180)" fill="#E3E2E9"/>
<rect x="140" y="203.5" width="8" height="1" fill="#E3E2E9"/>
<rect x="144.5" y="200" width="8" height="1" transform="rotate(90 144.5 200)" fill="#E3E2E9"/>
<rect x="140" y="223.5" width="8" height="1" fill="#E3E2E9"/>
<rect x="144.5" y="220" width="8" height="1" transform="rotate(90 144.5 220)" fill="#E3E2E9"/>
<rect x="160" y="123.5" width="8" height="1" fill="#E3E2E9"/>
<rect x="164.5" y="120" width="8" height="1" transform="rotate(90 164.5 120)" fill="#E3E2E9"/>
<rect x="160" y="143.5" width="8" height="1" fill="#E3E2E9"/>
<rect x="164.5" y="140" width="8" height="1" transform="rotate(90 164.5 140)" fill="#E3E2E9"/>
<rect x="160" y="163.5" width="8" height="1" fill="#E3E2E9"/>
<rect x="164.5" y="160" width="8" height="1" transform="rotate(90 164.5 160)" fill="#E3E2E9"/>
<rect x="160" y="183.5" width="8" height="1" fill="#E3E2E9"/>
<rect x="164.5" y="180" width="8" height="1" transform="rotate(90 164.5 180)" fill="#E3E2E9"/>
<rect x="160" y="203.5" width="8" height="1" fill="#E3E2E9"/>
<rect x="164.5" y="200" width="8" height="1" transform="rotate(90 164.5 200)" fill="#E3E2E9"/>
<rect x="160" y="223.5" width="8" height="1" fill="#E3E2E9"/>
<rect x="164.5" y="220" width="8" height="1" transform="rotate(90 164.5 220)" fill="#E3E2E9"/>
<rect x="180" y="123.5" width="8" height="1" fill="#E3E2E9"/>
<rect x="184.5" y="120" width="8" height="1" transform="rotate(90 184.5 120)" fill="#E3E2E9"/>
<rect x="180" y="143.5" width="8" height="1" fill="#E3E2E9"/>
<rect x="184.5" y="140" width="8" height="1" transform="rotate(90 184.5 140)" fill="#E3E2E9"/>
<rect x="180" y="163.5" width="8" height="1" fill="#E3E2E9"/>
<rect x="184.5" y="160" width="8" height="1" transform="rotate(90 184.5 160)" fill="#E3E2E9"/>
<rect x="180" y="183.5" width="8" height="1" fill="#E3E2E9"/>
<rect x="184.5" y="180" width="8" height="1" transform="rotate(90 184.5 180)" fill="#E3E2E9"/>
<rect x="180" y="203.5" width="8" height="1" fill="#E3E2E9"/>
<rect x="184.5" y="200" width="8" height="1" transform="rotate(90 184.5 200)" fill="#E3E2E9"/>
<rect x="180" y="223.5" width="8" height="1" fill="#E3E2E9"/>
<rect x="184.5" y="220" width="8" height="1" transform="rotate(90 184.5 220)" fill="#E3E2E9"/>
<rect x="200" y="123.5" width="8" height="1" fill="#E3E2E9"/>
<rect x="204.5" y="120" width="8" height="1" transform="rotate(90 204.5 120)" fill="#E3E2E9"/>
<rect x="200" y="143.5" width="8" height="1" fill="#E3E2E9"/>
<rect x="204.5" y="140" width="8" height="1" transform="rotate(90 204.5 140)" fill="#E3E2E9"/>
<rect x="200" y="163.5" width="8" height="1" fill="#E3E2E9"/>
<rect x="204.5" y="160" width="8" height="1" transform="rotate(90 204.5 160)" fill="#E3E2E9"/>
<rect x="200" y="183.5" width="8" height="1" fill="#E3E2E9"/>
<rect x="204.5" y="180" width="8" height="1" transform="rotate(90 204.5 180)" fill="#E3E2E9"/>
<rect x="200" y="203.5" width="8" height="1" fill="#E3E2E9"/>
<rect x="204.5" y="200" width="8" height="1" transform="rotate(90 204.5 200)" fill="#E3E2E9"/>
<rect x="200" y="223.5" width="8" height="1" fill="#E3E2E9"/>
<rect x="204.5" y="220" width="8" height="1" transform="rotate(90 204.5 220)" fill="#E3E2E9"/>
<rect x="220" y="123.5" width="8" height="1" fill="#E3E2E9"/>
<rect x="224.5" y="120" width="8" height="1" transform="rotate(90 224.5 120)" fill="#E3E2E9"/>
<rect x="220" y="143.5" width="8" height="1" fill="#E3E2E9"/>
<rect x="224.5" y="140" width="8" height="1" transform="rotate(90 224.5 140)" fill="#E3E2E9"/>
<rect x="220" y="163.5" width="8" height="1" fill="#E3E2E9"/>
<rect x="224.5" y="160" width="8" height="1" transform="rotate(90 224.5 160)" fill="#E3E2E9"/>
<rect x="220" y="183.5" width="8" height="1" fill="#E3E2E9"/>
<rect x="224.5" y="180" width="8" height="1" transform="rotate(90 224.5 180)" fill="#E3E2E9"/>
<rect x="220" y="203.5" width="8" height="1" fill="#E3E2E9"/>
<rect x="224.5" y="200" width="8" height="1" transform="rotate(90 224.5 200)" fill="#E3E2E9"/>
<rect x="220" y="223.5" width="8" height="1" fill="#E3E2E9"/>
<rect x="224.5" y="220" width="8" height="1" transform="rotate(90 224.5 220)" fill="#E3E2E9"/>
</svg>
