<svg width="148" height="636" viewBox="0 0 148 636" fill="none" xmlns="http://www.w3.org/2000/svg">
<rect x="19" y="551.5" width="8" height="1" fill="#E3E2E9"/>
<rect x="23.5" y="548" width="8" height="1" transform="rotate(90 23.5 548)" fill="#E3E2E9"/>
<rect x="19" y="571.5" width="8" height="1" fill="#E3E2E9"/>
<rect x="23.5" y="568" width="8" height="1" transform="rotate(90 23.5 568)" fill="#E3E2E9"/>
<rect x="19" y="591.5" width="8" height="1" fill="#E3E2E9"/>
<rect x="23.5" y="588" width="8" height="1" transform="rotate(90 23.5 588)" fill="#E3E2E9"/>
<rect x="19" y="611.5" width="8" height="1" fill="#E3E2E9"/>
<rect x="23.5" y="608" width="8" height="1" transform="rotate(90 23.5 608)" fill="#E3E2E9"/>
<rect x="19" y="631.5" width="8" height="1" fill="#E3E2E9"/>
<rect x="23.5" y="628" width="8" height="1" transform="rotate(90 23.5 628)" fill="#E3E2E9"/>
<rect x="39" y="551.5" width="8" height="1" fill="#E3E2E9"/>
<rect x="43.5" y="548" width="8" height="1" transform="rotate(90 43.5 548)" fill="#E3E2E9"/>
<rect x="39" y="571.5" width="8" height="1" fill="#E3E2E9"/>
<rect x="43.5" y="568" width="8" height="1" transform="rotate(90 43.5 568)" fill="#E3E2E9"/>
<rect x="39" y="591.5" width="8" height="1" fill="#E3E2E9"/>
<rect x="43.5" y="588" width="8" height="1" transform="rotate(90 43.5 588)" fill="#E3E2E9"/>
<rect x="39" y="611.5" width="8" height="1" fill="#E3E2E9"/>
<rect x="43.5" y="608" width="8" height="1" transform="rotate(90 43.5 608)" fill="#E3E2E9"/>
<rect x="39" y="631.5" width="8" height="1" fill="#E3E2E9"/>
<rect x="43.5" y="628" width="8" height="1" transform="rotate(90 43.5 628)" fill="#E3E2E9"/>
<rect x="59" y="551.5" width="8" height="1" fill="#E3E2E9"/>
<rect x="63.5" y="548" width="8" height="1" transform="rotate(90 63.5 548)" fill="#E3E2E9"/>
<rect x="59" y="571.5" width="8" height="1" fill="#E3E2E9"/>
<rect x="63.5" y="568" width="8" height="1" transform="rotate(90 63.5 568)" fill="#E3E2E9"/>
<rect x="59" y="591.5" width="8" height="1" fill="#E3E2E9"/>
<rect x="63.5" y="588" width="8" height="1" transform="rotate(90 63.5 588)" fill="#E3E2E9"/>
<rect x="59" y="611.5" width="8" height="1" fill="#E3E2E9"/>
<rect x="63.5" y="608" width="8" height="1" transform="rotate(90 63.5 608)" fill="#E3E2E9"/>
<rect x="59" y="631.5" width="8" height="1" fill="#E3E2E9"/>
<rect x="63.5" y="628" width="8" height="1" transform="rotate(90 63.5 628)" fill="#E3E2E9"/>
<rect x="79" y="611.5" width="8" height="1" fill="#E3E2E9"/>
<rect x="83.5" y="608" width="8" height="1" transform="rotate(90 83.5 608)" fill="#E3E2E9"/>
<rect x="79" y="631.5" width="8" height="1" fill="#E3E2E9"/>
<rect x="83.5" y="628" width="8" height="1" transform="rotate(90 83.5 628)" fill="#E3E2E9"/>
<rect x="99" y="611.5" width="8" height="1" fill="#E3E2E9"/>
<rect x="103.5" y="608" width="8" height="1" transform="rotate(90 103.5 608)" fill="#E3E2E9"/>
<rect x="99" y="631.5" width="8" height="1" fill="#E3E2E9"/>
<rect x="103.5" y="628" width="8" height="1" transform="rotate(90 103.5 628)" fill="#E3E2E9"/>
<rect x="119" y="611.5" width="8" height="1" fill="#E3E2E9"/>
<rect x="123.5" y="608" width="8" height="1" transform="rotate(90 123.5 608)" fill="#E3E2E9"/>
<rect x="119" y="631.5" width="8" height="1" fill="#E3E2E9"/>
<rect x="123.5" y="628" width="8" height="1" transform="rotate(90 123.5 628)" fill="#E3E2E9"/>
<g opacity="0.7">
<rect x="84.5" y="20" width="8" height="1" transform="rotate(90 84.5 20)" fill="#E3E2E9"/>
<rect x="88" y="24.5" width="8" height="1" transform="rotate(-180 88 24.5)" fill="#E3E2E9"/>
<rect x="64.5" y="20" width="8" height="1" transform="rotate(90 64.5 20)" fill="#E3E2E9"/>
<rect x="68" y="24.5" width="8" height="1" transform="rotate(-180 68 24.5)" fill="#E3E2E9"/>
<rect x="84.5" y="40" width="8" height="1" transform="rotate(90 84.5 40)" fill="#E3E2E9"/>
<rect x="88" y="44.5" width="8" height="1" transform="rotate(-180 88 44.5)" fill="#E3E2E9"/>
<rect x="64.5" y="40" width="8" height="1" transform="rotate(90 64.5 40)" fill="#E3E2E9"/>
<rect x="68" y="44.5" width="8" height="1" transform="rotate(-180 68 44.5)" fill="#E3E2E9"/>
<rect x="84.5" y="60" width="8" height="1" transform="rotate(90 84.5 60)" fill="#F8BB1E"/>
<rect x="88" y="64.5" width="8" height="1" transform="rotate(-180 88 64.5)" fill="#F8BB1E"/>
<rect x="64.5" y="60" width="8" height="1" transform="rotate(90 64.5 60)" fill="#E3E2E9"/>
<rect x="68" y="64.5" width="8" height="1" transform="rotate(-180 68 64.5)" fill="#E3E2E9"/>
<rect x="84.5" y="80" width="8" height="1" transform="rotate(90 84.5 80)" fill="#F55B19"/>
<rect x="88" y="84.5" width="8" height="1" transform="rotate(-180 88 84.5)" fill="#F55B19"/>
<rect x="64.5" y="80" width="8" height="1" transform="rotate(90 64.5 80)" fill="#E3E2E9"/>
<rect x="68" y="84.5" width="8" height="1" transform="rotate(-180 68 84.5)" fill="#E3E2E9"/>
<rect x="84.5" y="100" width="8" height="1" transform="rotate(90 84.5 100)" fill="#E3E2E9"/>
<rect x="88" y="104.5" width="8" height="1" transform="rotate(-180 88 104.5)" fill="#E3E2E9"/>
<rect x="64.5" y="100" width="8" height="1" transform="rotate(90 64.5 100)" fill="#E3E2E9"/>
<rect x="68" y="104.5" width="8" height="1" transform="rotate(-180 68 104.5)" fill="#E3E2E9"/>
<rect x="84.5" y="120" width="8" height="1" transform="rotate(90 84.5 120)" fill="#E3E2E9"/>
<rect x="88" y="124.5" width="8" height="1" transform="rotate(-180 88 124.5)" fill="#E3E2E9"/>
<rect x="64.5" y="120" width="8" height="1" transform="rotate(90 64.5 120)" fill="#E3E2E9"/>
<rect x="68" y="124.5" width="8" height="1" transform="rotate(-180 68 124.5)" fill="#E3E2E9"/>
<rect x="84.5" y="140" width="8" height="1" transform="rotate(90 84.5 140)" fill="#E3E2E9"/>
<rect x="88" y="144.5" width="8" height="1" transform="rotate(-180 88 144.5)" fill="#E3E2E9"/>
<rect x="64.5" y="140" width="8" height="1" transform="rotate(90 64.5 140)" fill="#E3E2E9"/>
<rect x="68" y="144.5" width="8" height="1" transform="rotate(-180 68 144.5)" fill="#E3E2E9"/>
<rect x="84.5" y="160" width="8" height="1" transform="rotate(90 84.5 160)" fill="#E3E2E9"/>
<rect x="88" y="164.5" width="8" height="1" transform="rotate(-180 88 164.5)" fill="#E3E2E9"/>
<rect x="64.5" y="160" width="8" height="1" transform="rotate(90 64.5 160)" fill="#E3E2E9"/>
<rect x="68" y="164.5" width="8" height="1" transform="rotate(-180 68 164.5)" fill="#E3E2E9"/>
<rect x="84.5" y="180" width="8" height="1" transform="rotate(90 84.5 180)" fill="#E3E2E9"/>
<rect x="88" y="184.5" width="8" height="1" transform="rotate(-180 88 184.5)" fill="#E3E2E9"/>
<rect x="64.5" y="180" width="8" height="1" transform="rotate(90 64.5 180)" fill="#E3E2E9"/>
<rect x="68" y="184.5" width="8" height="1" transform="rotate(-180 68 184.5)" fill="#E3E2E9"/>
<rect x="84.5" y="200" width="8" height="1" transform="rotate(90 84.5 200)" fill="#E3E2E9"/>
<rect x="88" y="204.5" width="8" height="1" transform="rotate(-180 88 204.5)" fill="#E3E2E9"/>
<rect x="64.5" y="200" width="8" height="1" transform="rotate(90 64.5 200)" fill="#E3E2E9"/>
<rect x="68" y="204.5" width="8" height="1" transform="rotate(-180 68 204.5)" fill="#E3E2E9"/>
<rect x="84.5" y="220" width="8" height="1" transform="rotate(90 84.5 220)" fill="#E3E2E9"/>
<rect x="88" y="224.5" width="8" height="1" transform="rotate(-180 88 224.5)" fill="#E3E2E9"/>
<rect x="64.5" y="220" width="8" height="1" transform="rotate(90 64.5 220)" fill="#E3E2E9"/>
<rect x="68" y="224.5" width="8" height="1" transform="rotate(-180 68 224.5)" fill="#E3E2E9"/>
<rect x="84.5" y="240" width="8" height="1" transform="rotate(90 84.5 240)" fill="#E3E2E9"/>
<rect x="88" y="244.5" width="8" height="1" transform="rotate(-180 88 244.5)" fill="#E3E2E9"/>
<rect x="64.5" y="240" width="8" height="1" transform="rotate(90 64.5 240)" fill="#E3E2E9"/>
<rect x="68" y="244.5" width="8" height="1" transform="rotate(-180 68 244.5)" fill="#E3E2E9"/>
<rect x="44.5" y="140" width="8" height="1" transform="rotate(90 44.5 140)" fill="#E3E2E9"/>
<rect x="48" y="144.5" width="8" height="1" transform="rotate(-180 48 144.5)" fill="#E3E2E9"/>
<rect x="24.5" y="140" width="8" height="1" transform="rotate(90 24.5 140)" fill="#E3E2E9"/>
<rect x="28" y="144.5" width="8" height="1" transform="rotate(-180 28 144.5)" fill="#E3E2E9"/>
<rect x="4.50001" y="140" width="8" height="1" transform="rotate(90 4.50001 140)" fill="#E3E2E9"/>
<rect x="8.00001" y="144.5" width="8" height="1" transform="rotate(-180 8.00001 144.5)" fill="#E3E2E9"/>
<rect x="44.5" y="160" width="8" height="1" transform="rotate(90 44.5 160)" fill="#E3E2E9"/>
<rect x="48" y="164.5" width="8" height="1" transform="rotate(-180 48 164.5)" fill="#E3E2E9"/>
<rect x="24.5" y="160" width="8" height="1" transform="rotate(90 24.5 160)" fill="#E3E2E9"/>
<rect x="28" y="164.5" width="8" height="1" transform="rotate(-180 28 164.5)" fill="#E3E2E9"/>
<rect x="4.50001" y="160" width="8" height="1" transform="rotate(90 4.50001 160)" fill="#E3E2E9"/>
<rect x="8.00001" y="164.5" width="8" height="1" transform="rotate(-180 8.00001 164.5)" fill="#E3E2E9"/>
<rect x="44.5" y="180" width="8" height="1" transform="rotate(90 44.5 180)" fill="#E3E2E9"/>
<rect x="48" y="184.5" width="8" height="1" transform="rotate(-180 48 184.5)" fill="#E3E2E9"/>
<rect x="24.5" y="180" width="8" height="1" transform="rotate(90 24.5 180)" fill="#E3E2E9"/>
<rect x="28" y="184.5" width="8" height="1" transform="rotate(-180 28 184.5)" fill="#E3E2E9"/>
<rect x="4.50001" y="180" width="8" height="1" transform="rotate(90 4.50001 180)" fill="#E3E2E9"/>
<rect x="8.00001" y="184.5" width="8" height="1" transform="rotate(-180 8.00001 184.5)" fill="#E3E2E9"/>
<rect x="44.5" y="200" width="8" height="1" transform="rotate(90 44.5 200)" fill="#E3E2E9"/>
<rect x="48" y="204.5" width="8" height="1" transform="rotate(-180 48 204.5)" fill="#E3E2E9"/>
<rect x="24.5" y="200" width="8" height="1" transform="rotate(90 24.5 200)" fill="#E3E2E9"/>
<rect x="28" y="204.5" width="8" height="1" transform="rotate(-180 28 204.5)" fill="#E3E2E9"/>
<rect x="4.50001" y="200" width="8" height="1" transform="rotate(90 4.50001 200)" fill="#E3E2E9"/>
<rect x="8.00001" y="204.5" width="8" height="1" transform="rotate(-180 8.00001 204.5)" fill="#E3E2E9"/>
<rect x="44.5" y="220" width="8" height="1" transform="rotate(90 44.5 220)" fill="#E3E2E9"/>
<rect x="48" y="224.5" width="8" height="1" transform="rotate(-180 48 224.5)" fill="#E3E2E9"/>
<rect x="24.5" y="220" width="8" height="1" transform="rotate(90 24.5 220)" fill="#E3E2E9"/>
<rect x="28" y="224.5" width="8" height="1" transform="rotate(-180 28 224.5)" fill="#E3E2E9"/>
<rect x="4.50001" y="220" width="8" height="1" transform="rotate(90 4.50001 220)" fill="#E3E2E9"/>
<rect x="8.00001" y="224.5" width="8" height="1" transform="rotate(-180 8.00001 224.5)" fill="#E3E2E9"/>
<rect x="44.5" y="240" width="8" height="1" transform="rotate(90 44.5 240)" fill="#E3E2E9"/>
<rect x="48" y="244.5" width="8" height="1" transform="rotate(-180 48 244.5)" fill="#E3E2E9"/>
<rect x="24.5" y="240" width="8" height="1" transform="rotate(90 24.5 240)" fill="#E3E2E9"/>
<rect x="28" y="244.5" width="8" height="1" transform="rotate(-180 28 244.5)" fill="#E3E2E9"/>
<rect x="4.5" y="240" width="8" height="1" transform="rotate(90 4.5 240)" fill="#E3E2E9"/>
<rect x="8" y="244.5" width="8" height="1" transform="rotate(-180 8 244.5)" fill="#E3E2E9"/>
</g>
<g opacity="0.7">
<rect x="144.5" width="8" height="1" transform="rotate(90 144.5 0)" fill="#E3E2E9"/>
<rect x="148" y="4.5" width="8" height="1" transform="rotate(-180 148 4.5)" fill="#E3E2E9"/>
<rect x="124.5" width="8" height="1" transform="rotate(90 124.5 0)" fill="#E3E2E9"/>
<rect x="128" y="4.5" width="8" height="1" transform="rotate(-180 128 4.5)" fill="#E3E2E9"/>
<rect x="104.5" width="8" height="1" transform="rotate(90 104.5 0)" fill="#E3E2E9"/>
<rect x="108" y="4.5" width="8" height="1" transform="rotate(-180 108 4.5)" fill="#E3E2E9"/>
<rect x="144.5" y="20" width="8" height="1" transform="rotate(90 144.5 20)" fill="#E3E2E9"/>
<rect x="148" y="24.5" width="8" height="1" transform="rotate(-180 148 24.5)" fill="#E3E2E9"/>
<rect x="124.5" y="20" width="8" height="1" transform="rotate(90 124.5 20)" fill="#E3E2E9"/>
<rect x="128" y="24.5" width="8" height="1" transform="rotate(-180 128 24.5)" fill="#E3E2E9"/>
<rect x="104.5" y="20" width="8" height="1" transform="rotate(90 104.5 20)" fill="#E3E2E9"/>
<rect x="108" y="24.5" width="8" height="1" transform="rotate(-180 108 24.5)" fill="#E3E2E9"/>
<rect x="144.5" y="40" width="8" height="1" transform="rotate(90 144.5 40)" fill="#E3E2E9"/>
<rect x="148" y="44.5" width="8" height="1" transform="rotate(-180 148 44.5)" fill="#E3E2E9"/>
<rect x="124.5" y="40" width="8" height="1" transform="rotate(90 124.5 40)" fill="#E3E2E9"/>
<rect x="128" y="44.5" width="8" height="1" transform="rotate(-180 128 44.5)" fill="#E3E2E9"/>
<rect x="104.5" y="40" width="8" height="1" transform="rotate(90 104.5 40)" fill="#E3E2E9"/>
<rect x="108" y="44.5" width="8" height="1" transform="rotate(-180 108 44.5)" fill="#E3E2E9"/>
<rect x="104.5" y="60" width="8" height="1" transform="rotate(90 104.5 60)" fill="#E3E2E9"/>
<rect x="108" y="64.5" width="8" height="1" transform="rotate(-180 108 64.5)" fill="#E3E2E9"/>
<rect x="104.5" y="80" width="8" height="1" transform="rotate(90 104.5 80)" fill="#E3E2E9"/>
<rect x="108" y="84.5" width="8" height="1" transform="rotate(-180 108 84.5)" fill="#E3E2E9"/>
<rect x="104.5" y="100" width="8" height="1" transform="rotate(90 104.5 100)" fill="#E3E2E9"/>
<rect x="108" y="104.5" width="8" height="1" transform="rotate(-180 108 104.5)" fill="#E3E2E9"/>
</g>
</svg>
