<svg width="108" height="88" viewBox="0 0 108 88" fill="none" xmlns="http://www.w3.org/2000/svg">
<rect y="3.5" width="8" height="1" fill="#E3E2E9"/>
<rect x="4.5" width="8" height="1" transform="rotate(90 4.5 0)" fill="#E3E2E9"/>
<rect y="23.5" width="8" height="1" fill="#E3E2E9"/>
<rect x="4.5" y="20" width="8" height="1" transform="rotate(90 4.5 20)" fill="#E3E2E9"/>
<rect y="43.5" width="8" height="1" fill="#E3E2E9"/>
<rect x="4.5" y="40" width="8" height="1" transform="rotate(90 4.5 40)" fill="#E3E2E9"/>
<rect y="63.5" width="8" height="1" fill="#E3E2E9"/>
<rect x="4.5" y="60" width="8" height="1" transform="rotate(90 4.5 60)" fill="#E3E2E9"/>
<rect y="83.5" width="8" height="1" fill="#E3E2E9"/>
<rect x="4.5" y="80" width="8" height="1" transform="rotate(90 4.5 80)" fill="#E3E2E9"/>
<rect x="20" y="3.5" width="8" height="1" fill="#E3E2E9"/>
<rect x="24.5" width="8" height="1" transform="rotate(90 24.5 0)" fill="#E3E2E9"/>
<rect x="20" y="23.5" width="8" height="1" fill="#E3E2E9"/>
<rect x="24.5" y="20" width="8" height="1" transform="rotate(90 24.5 20)" fill="#E3E2E9"/>
<rect x="20" y="43.5" width="8" height="1" fill="#E3E2E9"/>
<rect x="24.5" y="40" width="8" height="1" transform="rotate(90 24.5 40)" fill="#E3E2E9"/>
<rect x="20" y="63.5" width="8" height="1" fill="#E3E2E9"/>
<rect x="24.5" y="60" width="8" height="1" transform="rotate(90 24.5 60)" fill="#E3E2E9"/>
<rect x="20" y="83.5" width="8" height="1" fill="#E3E2E9"/>
<rect x="24.5" y="80" width="8" height="1" transform="rotate(90 24.5 80)" fill="#E3E2E9"/>
<rect x="40" y="3.5" width="8" height="1" fill="#E3E2E9"/>
<rect x="44.5" width="8" height="1" transform="rotate(90 44.5 0)" fill="#E3E2E9"/>
<rect x="40" y="23.5" width="8" height="1" fill="#E3E2E9"/>
<rect x="44.5" y="20" width="8" height="1" transform="rotate(90 44.5 20)" fill="#E3E2E9"/>
<rect x="40" y="43.5" width="8" height="1" fill="#E3E2E9"/>
<rect x="44.5" y="40" width="8" height="1" transform="rotate(90 44.5 40)" fill="#E3E2E9"/>
<rect x="40" y="63.5" width="8" height="1" fill="#E3E2E9"/>
<rect x="44.5" y="60" width="8" height="1" transform="rotate(90 44.5 60)" fill="#E3E2E9"/>
<rect x="40" y="83.5" width="8" height="1" fill="#E3E2E9"/>
<rect x="44.5" y="80" width="8" height="1" transform="rotate(90 44.5 80)" fill="#E3E2E9"/>
<rect x="60" y="63.5" width="8" height="1" fill="#E3E2E9"/>
<rect x="64.5" y="60" width="8" height="1" transform="rotate(90 64.5 60)" fill="#E3E2E9"/>
<rect x="60" y="83.5" width="8" height="1" fill="#E3E2E9"/>
<rect x="64.5" y="80" width="8" height="1" transform="rotate(90 64.5 80)" fill="#E3E2E9"/>
<rect x="80" y="63.5" width="8" height="1" fill="#E3E2E9"/>
<rect x="84.5" y="60" width="8" height="1" transform="rotate(90 84.5 60)" fill="#E3E2E9"/>
<rect x="80" y="83.5" width="8" height="1" fill="#E3E2E9"/>
<rect x="84.5" y="80" width="8" height="1" transform="rotate(90 84.5 80)" fill="#E3E2E9"/>
<rect x="100" y="63.5" width="8" height="1" fill="#E3E2E9"/>
<rect x="104.5" y="60" width="8" height="1" transform="rotate(90 104.5 60)" fill="#E3E2E9"/>
<rect x="100" y="83.5" width="8" height="1" fill="#E3E2E9"/>
<rect x="104.5" y="80" width="8" height="1" transform="rotate(90 104.5 80)" fill="#E3E2E9"/>
</svg>
