<svg width="418" height="333" viewBox="0 0 418 333" fill="none" xmlns="http://www.w3.org/2000/svg">
<rect y="3.5" width="8" height="1" fill="#E3E2E9"/>
<rect x="4.5" width="8" height="1" transform="rotate(90 4.5 0)" fill="#E3E2E9"/>
<rect y="23.5" width="8" height="1" fill="#E3E2E9"/>
<rect x="4.5" y="20" width="8" height="1" transform="rotate(90 4.5 20)" fill="#E3E2E9"/>
<rect y="43.5" width="8" height="1" fill="#E3E2E9"/>
<rect x="4.5" y="40" width="8" height="1" transform="rotate(90 4.5 40)" fill="#E3E2E9"/>
<rect y="63.5" width="8" height="1" fill="#E3E2E9"/>
<rect x="4.5" y="60" width="8" height="1" transform="rotate(90 4.5 60)" fill="#E3E2E9"/>
<rect x="20" y="3.5" width="8" height="1" fill="#E3E2E9"/>
<rect x="24.5" width="8" height="1" transform="rotate(90 24.5 0)" fill="#E3E2E9"/>
<rect x="20" y="23.5" width="8" height="1" fill="#E3E2E9"/>
<rect x="24.5" y="20" width="8" height="1" transform="rotate(90 24.5 20)" fill="#E3E2E9"/>
<rect x="20" y="43.5" width="8" height="1" fill="#E3E2E9"/>
<rect x="24.5" y="40" width="8" height="1" transform="rotate(90 24.5 40)" fill="#E3E2E9"/>
<rect x="20" y="63.5" width="8" height="1" fill="#E3E2E9"/>
<rect x="24.5" y="60" width="8" height="1" transform="rotate(90 24.5 60)" fill="#E3E2E9"/>
<rect x="40" y="43.5" width="8" height="1" fill="#E3E2E9"/>
<rect x="44.5" y="40" width="8" height="1" transform="rotate(90 44.5 40)" fill="#E3E2E9"/>
<rect x="40" y="63.5" width="8" height="1" fill="#E3E2E9"/>
<rect x="44.5" y="60" width="8" height="1" transform="rotate(90 44.5 60)" fill="#E3E2E9"/>
<rect x="330" y="208.5" width="8" height="1" fill="#E3E2E9"/>
<rect x="334.5" y="205" width="8" height="1" transform="rotate(90 334.5 205)" fill="#E3E2E9"/>
<rect x="330" y="228.5" width="8" height="1" fill="#E3E2E9"/>
<rect x="334.5" y="225" width="8" height="1" transform="rotate(90 334.5 225)" fill="#E3E2E9"/>
<rect x="330" y="248.5" width="8" height="1" fill="#E3E2E9"/>
<rect x="334.5" y="245" width="8" height="1" transform="rotate(90 334.5 245)" fill="#E3E2E9"/>
<rect x="330" y="268.5" width="8" height="1" fill="#E3E2E9"/>
<rect x="334.5" y="265" width="8" height="1" transform="rotate(90 334.5 265)" fill="#E3E2E9"/>
<rect x="350" y="208.5" width="8" height="1" fill="#E3E2E9"/>
<rect x="354.5" y="205" width="8" height="1" transform="rotate(90 354.5 205)" fill="#E3E2E9"/>
<rect x="350" y="228.5" width="8" height="1" fill="#E3E2E9"/>
<rect x="354.5" y="225" width="8" height="1" transform="rotate(90 354.5 225)" fill="#E3E2E9"/>
<rect x="350" y="248.5" width="8" height="1" fill="#E3E2E9"/>
<rect x="354.5" y="245" width="8" height="1" transform="rotate(90 354.5 245)" fill="#E3E2E9"/>
<rect x="350" y="268.5" width="8" height="1" fill="#E3E2E9"/>
<rect x="354.5" y="265" width="8" height="1" transform="rotate(90 354.5 265)" fill="#E3E2E9"/>
<rect x="370" y="248.5" width="8" height="1" fill="#E3E2E9"/>
<rect x="374.5" y="245" width="8" height="1" transform="rotate(90 374.5 245)" fill="#E3E2E9"/>
<rect x="370" y="268.5" width="8" height="1" fill="#E3E2E9"/>
<rect x="374.5" y="265" width="8" height="1" transform="rotate(90 374.5 265)" fill="#E3E2E9"/>
<rect x="370" y="268.5" width="8" height="1" fill="#E3E2E9"/>
<rect x="374.5" y="265" width="8" height="1" transform="rotate(90 374.5 265)" fill="#E3E2E9"/>
<rect x="370" y="288.5" width="8" height="1" fill="#E3E2E9"/>
<rect x="374.5" y="285" width="8" height="1" transform="rotate(90 374.5 285)" fill="#E3E2E9"/>
<rect x="370" y="308.5" width="8" height="1" fill="#E3E2E9"/>
<rect x="374.5" y="305" width="8" height="1" transform="rotate(90 374.5 305)" fill="#E3E2E9"/>
<rect x="370" y="328.5" width="8" height="1" fill="#E3E2E9"/>
<rect x="374.5" y="325" width="8" height="1" transform="rotate(90 374.5 325)" fill="#E3E2E9"/>
<rect x="390" y="268.5" width="8" height="1" fill="#E3E2E9"/>
<rect x="394.5" y="265" width="8" height="1" transform="rotate(90 394.5 265)" fill="#E3E2E9"/>
<rect x="390" y="288.5" width="8" height="1" fill="#E3E2E9"/>
<rect x="394.5" y="285" width="8" height="1" transform="rotate(90 394.5 285)" fill="#E3E2E9"/>
<rect x="390" y="308.5" width="8" height="1" fill="#E3E2E9"/>
<rect x="394.5" y="305" width="8" height="1" transform="rotate(90 394.5 305)" fill="#E3E2E9"/>
<rect x="390" y="328.5" width="8" height="1" fill="#E3E2E9"/>
<rect x="394.5" y="325" width="8" height="1" transform="rotate(90 394.5 325)" fill="#E3E2E9"/>
<rect x="410" y="308.5" width="8" height="1" fill="#E3E2E9"/>
<rect x="414.5" y="305" width="8" height="1" transform="rotate(90 414.5 305)" fill="#E3E2E9"/>
<rect x="410" y="328.5" width="8" height="1" fill="#E3E2E9"/>
<rect x="414.5" y="325" width="8" height="1" transform="rotate(90 414.5 325)" fill="#E3E2E9"/>
</svg>
