<svg width="108" height="228" viewBox="0 0 108 228" fill="none" xmlns="http://www.w3.org/2000/svg">
<rect x="104.5" width="8" height="1" transform="rotate(90 104.5 0)" fill="#E3E2E9"/>
<rect x="108" y="4.5" width="8" height="1" transform="rotate(-180 108 4.5)" fill="#E3E2E9"/>
<rect x="84.5" width="8" height="1" transform="rotate(90 84.5 0)" fill="#E3E2E9"/>
<rect x="88" y="4.5" width="8" height="1" transform="rotate(-180 88 4.5)" fill="#E3E2E9"/>
<rect x="64.5" width="8" height="1" transform="rotate(90 64.5 0)" fill="#E3E2E9"/>
<rect x="68" y="4.5" width="8" height="1" transform="rotate(-180 68 4.5)" fill="#E3E2E9"/>
<rect x="44.5" width="8" height="1" transform="rotate(90 44.5 0)" fill="#E3E2E9"/>
<rect x="48" y="4.5" width="8" height="1" transform="rotate(-180 48 4.5)" fill="#E3E2E9"/>
<rect x="24.5" width="8" height="1" transform="rotate(90 24.5 0)" fill="#E3E2E9"/>
<rect x="28" y="4.5" width="8" height="1" transform="rotate(-180 28 4.5)" fill="#E3E2E9"/>
<rect x="4.5" width="8" height="1" transform="rotate(90 4.5 0)" fill="#E3E2E9"/>
<rect x="8" y="4.5" width="8" height="1" transform="rotate(-180 8 4.5)" fill="#E3E2E9"/>
<rect x="104.5" y="20" width="8" height="1" transform="rotate(90 104.5 20)" fill="#E3E2E9"/>
<rect x="108" y="24.5" width="8" height="1" transform="rotate(-180 108 24.5)" fill="#E3E2E9"/>
<rect x="84.5" y="20" width="8" height="1" transform="rotate(90 84.5 20)" fill="#E3E2E9"/>
<rect x="88" y="24.5" width="8" height="1" transform="rotate(-180 88 24.5)" fill="#E3E2E9"/>
<rect x="64.5" y="20" width="8" height="1" transform="rotate(90 64.5 20)" fill="#E3E2E9"/>
<rect x="68" y="24.5" width="8" height="1" transform="rotate(-180 68 24.5)" fill="#E3E2E9"/>
<rect x="44.5" y="20" width="8" height="1" transform="rotate(90 44.5 20)" fill="#E3E2E9"/>
<rect x="48" y="24.5" width="8" height="1" transform="rotate(-180 48 24.5)" fill="#E3E2E9"/>
<rect x="24.5" y="20" width="8" height="1" transform="rotate(90 24.5 20)" fill="#E3E2E9"/>
<rect x="28" y="24.5" width="8" height="1" transform="rotate(-180 28 24.5)" fill="#E3E2E9"/>
<rect x="4.5" y="20" width="8" height="1" transform="rotate(90 4.5 20)" fill="#E3E2E9"/>
<rect x="8" y="24.5" width="8" height="1" transform="rotate(-180 8 24.5)" fill="#E3E2E9"/>
<rect x="104.5" y="40" width="8" height="1" transform="rotate(90 104.5 40)" fill="#E3E2E9"/>
<rect x="108" y="44.5" width="8" height="1" transform="rotate(-180 108 44.5)" fill="#E3E2E9"/>
<rect x="84.5" y="40" width="8" height="1" transform="rotate(90 84.5 40)" fill="#E3E2E9"/>
<rect x="88" y="44.5" width="8" height="1" transform="rotate(-180 88 44.5)" fill="#E3E2E9"/>
<rect x="64.5" y="40" width="8" height="1" transform="rotate(90 64.5 40)" fill="#E3E2E9"/>
<rect x="68" y="44.5" width="8" height="1" transform="rotate(-180 68 44.5)" fill="#E3E2E9"/>
<rect x="44.5" y="40" width="8" height="1" transform="rotate(90 44.5 40)" fill="#E3E2E9"/>
<rect x="48" y="44.5" width="8" height="1" transform="rotate(-180 48 44.5)" fill="#E3E2E9"/>
<rect x="24.5" y="40" width="8" height="1" transform="rotate(90 24.5 40)" fill="#E3E2E9"/>
<rect x="28" y="44.5" width="8" height="1" transform="rotate(-180 28 44.5)" fill="#E3E2E9"/>
<rect x="4.5" y="40" width="8" height="1" transform="rotate(90 4.5 40)" fill="#E3E2E9"/>
<rect x="8" y="44.5" width="8" height="1" transform="rotate(-180 8 44.5)" fill="#E3E2E9"/>
<rect x="104.5" y="60" width="8" height="1" transform="rotate(90 104.5 60)" fill="#E3E2E9"/>
<rect x="108" y="64.5" width="8" height="1" transform="rotate(-180 108 64.5)" fill="#E3E2E9"/>
<rect x="84.5" y="60" width="8" height="1" transform="rotate(90 84.5 60)" fill="#E3E2E9"/>
<rect x="88" y="64.5" width="8" height="1" transform="rotate(-180 88 64.5)" fill="#E3E2E9"/>
<rect x="64.5" y="60" width="8" height="1" transform="rotate(90 64.5 60)" fill="#E3E2E9"/>
<rect x="68" y="64.5" width="8" height="1" transform="rotate(-180 68 64.5)" fill="#E3E2E9"/>
<rect x="44.5" y="60" width="8" height="1" transform="rotate(90 44.5 60)" fill="#E3E2E9"/>
<rect x="48" y="64.5" width="8" height="1" transform="rotate(-180 48 64.5)" fill="#E3E2E9"/>
<rect x="24.5" y="60" width="8" height="1" transform="rotate(90 24.5 60)" fill="#E3E2E9"/>
<rect x="28" y="64.5" width="8" height="1" transform="rotate(-180 28 64.5)" fill="#E3E2E9"/>
<rect x="4.5" y="60" width="8" height="1" transform="rotate(90 4.5 60)" fill="#E3E2E9"/>
<rect x="8" y="64.5" width="8" height="1" transform="rotate(-180 8 64.5)" fill="#E3E2E9"/>
<rect x="104.5" y="80" width="8" height="1" transform="rotate(90 104.5 80)" fill="#E3E2E9"/>
<rect x="108" y="84.5" width="8" height="1" transform="rotate(-180 108 84.5)" fill="#E3E2E9"/>
<rect x="84.5" y="80" width="8" height="1" transform="rotate(90 84.5 80)" fill="#E3E2E9"/>
<rect x="88" y="84.5" width="8" height="1" transform="rotate(-180 88 84.5)" fill="#E3E2E9"/>
<rect x="64.5" y="80" width="8" height="1" transform="rotate(90 64.5 80)" fill="#E3E2E9"/>
<rect x="68" y="84.5" width="8" height="1" transform="rotate(-180 68 84.5)" fill="#E3E2E9"/>
<rect x="44.5" y="80" width="8" height="1" transform="rotate(90 44.5 80)" fill="#E3E2E9"/>
<rect x="48" y="84.5" width="8" height="1" transform="rotate(-180 48 84.5)" fill="#E3E2E9"/>
<rect x="24.5" y="80" width="8" height="1" transform="rotate(90 24.5 80)" fill="#E3E2E9"/>
<rect x="28" y="84.5" width="8" height="1" transform="rotate(-180 28 84.5)" fill="#E3E2E9"/>
<rect x="4.5" y="80" width="8" height="1" transform="rotate(90 4.5 80)" fill="#E3E2E9"/>
<rect x="8" y="84.5" width="8" height="1" transform="rotate(-180 8 84.5)" fill="#E3E2E9"/>
<rect x="104.5" y="100" width="8" height="1" transform="rotate(90 104.5 100)" fill="#E3E2E9"/>
<rect x="108" y="104.5" width="8" height="1" transform="rotate(-180 108 104.5)" fill="#E3E2E9"/>
<rect x="84.5" y="100" width="8" height="1" transform="rotate(90 84.5 100)" fill="#E3E2E9"/>
<rect x="88" y="104.5" width="8" height="1" transform="rotate(-180 88 104.5)" fill="#E3E2E9"/>
<rect x="64.5" y="100" width="8" height="1" transform="rotate(90 64.5 100)" fill="#E3E2E9"/>
<rect x="68" y="104.5" width="8" height="1" transform="rotate(-180 68 104.5)" fill="#E3E2E9"/>
<rect x="44.5" y="100" width="8" height="1" transform="rotate(90 44.5 100)" fill="#E3E2E9"/>
<rect x="48" y="104.5" width="8" height="1" transform="rotate(-180 48 104.5)" fill="#E3E2E9"/>
<rect x="24.5" y="100" width="8" height="1" transform="rotate(90 24.5 100)" fill="#E3E2E9"/>
<rect x="28" y="104.5" width="8" height="1" transform="rotate(-180 28 104.5)" fill="#E3E2E9"/>
<rect x="4.5" y="100" width="8" height="1" transform="rotate(90 4.5 100)" fill="#E3E2E9"/>
<rect x="8" y="104.5" width="8" height="1" transform="rotate(-180 8 104.5)" fill="#E3E2E9"/>
<rect x="104.5" y="120" width="8" height="1" transform="rotate(90 104.5 120)" fill="#E3E2E9"/>
<rect x="108" y="124.5" width="8" height="1" transform="rotate(-180 108 124.5)" fill="#E3E2E9"/>
<rect x="84.5" y="120" width="8" height="1" transform="rotate(90 84.5 120)" fill="#E3E2E9"/>
<rect x="88" y="124.5" width="8" height="1" transform="rotate(-180 88 124.5)" fill="#E3E2E9"/>
<rect x="64.5" y="120" width="8" height="1" transform="rotate(90 64.5 120)" fill="#E3E2E9"/>
<rect x="68" y="124.5" width="8" height="1" transform="rotate(-180 68 124.5)" fill="#E3E2E9"/>
<rect x="44.5" y="120" width="8" height="1" transform="rotate(90 44.5 120)" fill="#E3E2E9"/>
<rect x="48" y="124.5" width="8" height="1" transform="rotate(-180 48 124.5)" fill="#E3E2E9"/>
<rect x="24.5" y="120" width="8" height="1" transform="rotate(90 24.5 120)" fill="#E3E2E9"/>
<rect x="28" y="124.5" width="8" height="1" transform="rotate(-180 28 124.5)" fill="#E3E2E9"/>
<rect x="4.5" y="120" width="8" height="1" transform="rotate(90 4.5 120)" fill="#E3E2E9"/>
<rect x="8" y="124.5" width="8" height="1" transform="rotate(-180 8 124.5)" fill="#E3E2E9"/>
<rect x="104.5" y="140" width="8" height="1" transform="rotate(90 104.5 140)" fill="#E3E2E9"/>
<rect x="108" y="144.5" width="8" height="1" transform="rotate(-180 108 144.5)" fill="#E3E2E9"/>
<rect x="84.5" y="140" width="8" height="1" transform="rotate(90 84.5 140)" fill="#E3E2E9"/>
<rect x="88" y="144.5" width="8" height="1" transform="rotate(-180 88 144.5)" fill="#E3E2E9"/>
<rect x="64.5" y="140" width="8" height="1" transform="rotate(90 64.5 140)" fill="#E3E2E9"/>
<rect x="68" y="144.5" width="8" height="1" transform="rotate(-180 68 144.5)" fill="#E3E2E9"/>
<rect x="44.5" y="140" width="8" height="1" transform="rotate(90 44.5 140)" fill="#E3E2E9"/>
<rect x="48" y="144.5" width="8" height="1" transform="rotate(-180 48 144.5)" fill="#E3E2E9"/>
<rect x="24.5" y="140" width="8" height="1" transform="rotate(90 24.5 140)" fill="#E3E2E9"/>
<rect x="28" y="144.5" width="8" height="1" transform="rotate(-180 28 144.5)" fill="#E3E2E9"/>
<rect x="4.5" y="140" width="8" height="1" transform="rotate(90 4.5 140)" fill="#E3E2E9"/>
<rect x="8" y="144.5" width="8" height="1" transform="rotate(-180 8 144.5)" fill="#E3E2E9"/>
<rect x="104.5" y="160" width="8" height="1" transform="rotate(90 104.5 160)" fill="#E3E2E9"/>
<rect x="108" y="164.5" width="8" height="1" transform="rotate(-180 108 164.5)" fill="#E3E2E9"/>
<rect x="84.5" y="160" width="8" height="1" transform="rotate(90 84.5 160)" fill="#E3E2E9"/>
<rect x="88" y="164.5" width="8" height="1" transform="rotate(-180 88 164.5)" fill="#E3E2E9"/>
<rect x="64.5" y="160" width="8" height="1" transform="rotate(90 64.5 160)" fill="#E3E2E9"/>
<rect x="68" y="164.5" width="8" height="1" transform="rotate(-180 68 164.5)" fill="#E3E2E9"/>
<rect x="44.5" y="160" width="8" height="1" transform="rotate(90 44.5 160)" fill="#E3E2E9"/>
<rect x="48" y="164.5" width="8" height="1" transform="rotate(-180 48 164.5)" fill="#E3E2E9"/>
<rect x="24.5" y="160" width="8" height="1" transform="rotate(90 24.5 160)" fill="#E3E2E9"/>
<rect x="28" y="164.5" width="8" height="1" transform="rotate(-180 28 164.5)" fill="#E3E2E9"/>
<rect x="4.5" y="160" width="8" height="1" transform="rotate(90 4.5 160)" fill="#E3E2E9"/>
<rect x="8" y="164.5" width="8" height="1" transform="rotate(-180 8 164.5)" fill="#E3E2E9"/>
<rect x="104.5" y="180" width="8" height="1" transform="rotate(90 104.5 180)" fill="#E3E2E9"/>
<rect x="108" y="184.5" width="8" height="1" transform="rotate(-180 108 184.5)" fill="#E3E2E9"/>
<rect x="84.5" y="180" width="8" height="1" transform="rotate(90 84.5 180)" fill="#E3E2E9"/>
<rect x="88" y="184.5" width="8" height="1" transform="rotate(-180 88 184.5)" fill="#E3E2E9"/>
<rect x="64.5" y="180" width="8" height="1" transform="rotate(90 64.5 180)" fill="#E3E2E9"/>
<rect x="68" y="184.5" width="8" height="1" transform="rotate(-180 68 184.5)" fill="#E3E2E9"/>
<rect x="44.5" y="180" width="8" height="1" transform="rotate(90 44.5 180)" fill="#E3E2E9"/>
<rect x="48" y="184.5" width="8" height="1" transform="rotate(-180 48 184.5)" fill="#E3E2E9"/>
<rect x="24.5" y="180" width="8" height="1" transform="rotate(90 24.5 180)" fill="#E3E2E9"/>
<rect x="28" y="184.5" width="8" height="1" transform="rotate(-180 28 184.5)" fill="#E3E2E9"/>
<rect x="4.5" y="180" width="8" height="1" transform="rotate(90 4.5 180)" fill="#E3E2E9"/>
<rect x="8" y="184.5" width="8" height="1" transform="rotate(-180 8 184.5)" fill="#E3E2E9"/>
<rect x="104.5" y="200" width="8" height="1" transform="rotate(90 104.5 200)" fill="#E3E2E9"/>
<rect x="108" y="204.5" width="8" height="1" transform="rotate(-180 108 204.5)" fill="#E3E2E9"/>
<rect x="84.5" y="200" width="8" height="1" transform="rotate(90 84.5 200)" fill="#E3E2E9"/>
<rect x="88" y="204.5" width="8" height="1" transform="rotate(-180 88 204.5)" fill="#E3E2E9"/>
<rect x="64.5" y="200" width="8" height="1" transform="rotate(90 64.5 200)" fill="#E3E2E9"/>
<rect x="68" y="204.5" width="8" height="1" transform="rotate(-180 68 204.5)" fill="#E3E2E9"/>
<rect x="44.5" y="200" width="8" height="1" transform="rotate(90 44.5 200)" fill="#E3E2E9"/>
<rect x="48" y="204.5" width="8" height="1" transform="rotate(-180 48 204.5)" fill="#E3E2E9"/>
<rect x="24.5" y="200" width="8" height="1" transform="rotate(90 24.5 200)" fill="#E3E2E9"/>
<rect x="28" y="204.5" width="8" height="1" transform="rotate(-180 28 204.5)" fill="#E3E2E9"/>
<rect x="4.5" y="200" width="8" height="1" transform="rotate(90 4.5 200)" fill="#E3E2E9"/>
<rect x="8" y="204.5" width="8" height="1" transform="rotate(-180 8 204.5)" fill="#E3E2E9"/>
<rect x="104.5" y="220" width="8" height="1" transform="rotate(90 104.5 220)" fill="#E3E2E9"/>
<rect x="108" y="224.5" width="8" height="1" transform="rotate(-180 108 224.5)" fill="#E3E2E9"/>
<rect x="84.5" y="220" width="8" height="1" transform="rotate(90 84.5 220)" fill="#E3E2E9"/>
<rect x="88" y="224.5" width="8" height="1" transform="rotate(-180 88 224.5)" fill="#E3E2E9"/>
<rect x="64.5" y="220" width="8" height="1" transform="rotate(90 64.5 220)" fill="#E3E2E9"/>
<rect x="68" y="224.5" width="8" height="1" transform="rotate(-180 68 224.5)" fill="#E3E2E9"/>
<rect x="44.5" y="220" width="8" height="1" transform="rotate(90 44.5 220)" fill="#E3E2E9"/>
<rect x="48" y="224.5" width="8" height="1" transform="rotate(-180 48 224.5)" fill="#E3E2E9"/>
<rect x="24.5" y="220" width="8" height="1" transform="rotate(90 24.5 220)" fill="#E3E2E9"/>
<rect x="28" y="224.5" width="8" height="1" transform="rotate(-180 28 224.5)" fill="#E3E2E9"/>
<rect x="4.5" y="220" width="8" height="1" transform="rotate(90 4.5 220)" fill="#E3E2E9"/>
<rect x="8" y="224.5" width="8" height="1" transform="rotate(-180 8 224.5)" fill="#E3E2E9"/>
</svg>
