<svg width="1400" height="275" viewBox="0 0 1400 275" fill="none" xmlns="http://www.w3.org/2000/svg">
<rect y="110.5" width="8" height="1" fill="#4B445C"/>
<rect x="4.5" y="107" width="8" height="1" transform="rotate(90 4.5 107)" fill="#4B445C"/>
<rect y="130.5" width="8" height="1" fill="#4B445C"/>
<rect x="4.5" y="127" width="8" height="1" transform="rotate(90 4.5 127)" fill="#4B445C"/>
<rect y="150.5" width="8" height="1" fill="#4B445C"/>
<rect x="4.5" y="147" width="8" height="1" transform="rotate(90 4.5 147)" fill="#4B445C"/>
<rect y="170.5" width="8" height="1" fill="#4B445C"/>
<rect x="4.5" y="167" width="8" height="1" transform="rotate(90 4.5 167)" fill="#4B445C"/>
<rect y="190.5" width="8" height="1" fill="#4B445C"/>
<rect x="4.5" y="187" width="8" height="1" transform="rotate(90 4.5 187)" fill="#4B445C"/>
<rect y="210.5" width="8" height="1" fill="#4B445C"/>
<rect x="4.5" y="207" width="8" height="1" transform="rotate(90 4.5 207)" fill="#4B445C"/>
<rect x="20" y="110.5" width="8" height="1" fill="#4B445C"/>
<rect x="24.5" y="107" width="8" height="1" transform="rotate(90 24.5 107)" fill="#4B445C"/>
<rect x="20" y="130.5" width="8" height="1" fill="#4B445C"/>
<rect x="24.5" y="127" width="8" height="1" transform="rotate(90 24.5 127)" fill="#4B445C"/>
<rect x="20" y="150.5" width="8" height="1" fill="#4B445C"/>
<rect x="24.5" y="147" width="8" height="1" transform="rotate(90 24.5 147)" fill="#4B445C"/>
<rect x="20" y="170.5" width="8" height="1" fill="#4B445C"/>
<rect x="24.5" y="167" width="8" height="1" transform="rotate(90 24.5 167)" fill="#4B445C"/>
<rect x="20" y="190.5" width="8" height="1" fill="#4B445C"/>
<rect x="24.5" y="187" width="8" height="1" transform="rotate(90 24.5 187)" fill="#4B445C"/>
<rect x="20" y="210.5" width="8" height="1" fill="#4B445C"/>
<rect x="24.5" y="207" width="8" height="1" transform="rotate(90 24.5 207)" fill="#4B445C"/>
<rect x="40" y="110.5" width="8" height="1" fill="#4B445C"/>
<rect x="44.5" y="107" width="8" height="1" transform="rotate(90 44.5 107)" fill="#4B445C"/>
<rect x="40" y="130.5" width="8" height="1" fill="#4B445C"/>
<rect x="44.5" y="127" width="8" height="1" transform="rotate(90 44.5 127)" fill="#4B445C"/>
<rect x="40" y="150.5" width="8" height="1" fill="#4B445C"/>
<rect x="44.5" y="147" width="8" height="1" transform="rotate(90 44.5 147)" fill="#4B445C"/>
<rect x="40" y="170.5" width="8" height="1" fill="#4B445C"/>
<rect x="44.5" y="167" width="8" height="1" transform="rotate(90 44.5 167)" fill="#4B445C"/>
<rect x="40" y="190.5" width="8" height="1" fill="#4B445C"/>
<rect x="44.5" y="187" width="8" height="1" transform="rotate(90 44.5 187)" fill="#4B445C"/>
<rect x="40" y="210.5" width="8" height="1" fill="#4B445C"/>
<rect x="44.5" y="207" width="8" height="1" transform="rotate(90 44.5 207)" fill="#4B445C"/>
<rect x="60" y="110.5" width="8" height="1" fill="#4B445C"/>
<rect x="64.5" y="107" width="8" height="1" transform="rotate(90 64.5 107)" fill="#4B445C"/>
<rect x="60" y="130.5" width="8" height="1" fill="#F55B19"/>
<rect x="64.5" y="127" width="8" height="1" transform="rotate(90 64.5 127)" fill="#F55B19"/>
<rect x="60" y="150.5" width="8" height="1" fill="#4B445C"/>
<rect x="64.5" y="147" width="8" height="1" transform="rotate(90 64.5 147)" fill="#4B445C"/>
<rect x="60" y="170.5" width="8" height="1" fill="#4B445C"/>
<rect x="64.5" y="167" width="8" height="1" transform="rotate(90 64.5 167)" fill="#4B445C"/>
<rect x="60" y="190.5" width="8" height="1" fill="#4B445C"/>
<rect x="64.5" y="187" width="8" height="1" transform="rotate(90 64.5 187)" fill="#4B445C"/>
<rect x="60" y="210.5" width="8" height="1" fill="#4B445C"/>
<rect x="64.5" y="207" width="8" height="1" transform="rotate(90 64.5 207)" fill="#4B445C"/>
<rect x="80" y="110.5" width="8" height="1" fill="#4B445C"/>
<rect x="84.5" y="107" width="8" height="1" transform="rotate(90 84.5 107)" fill="#4B445C"/>
<rect x="80" y="130.5" width="8" height="1" fill="#4B445C"/>
<rect x="84.5" y="127" width="8" height="1" transform="rotate(90 84.5 127)" fill="#4B445C"/>
<rect x="80" y="150.5" width="8" height="1" fill="#4B445C"/>
<rect x="84.5" y="147" width="8" height="1" transform="rotate(90 84.5 147)" fill="#4B445C"/>
<rect x="80" y="170.5" width="8" height="1" fill="#4B445C"/>
<rect x="84.5" y="167" width="8" height="1" transform="rotate(90 84.5 167)" fill="#4B445C"/>
<rect x="80" y="190.5" width="8" height="1" fill="#4B445C"/>
<rect x="84.5" y="187" width="8" height="1" transform="rotate(90 84.5 187)" fill="#4B445C"/>
<rect x="80" y="210.5" width="8" height="1" fill="#4B445C"/>
<rect x="84.5" y="207" width="8" height="1" transform="rotate(90 84.5 207)" fill="#4B445C"/>
<rect x="100" y="110.5" width="8" height="1" fill="#4B445C"/>
<rect x="104.5" y="107" width="8" height="1" transform="rotate(90 104.5 107)" fill="#4B445C"/>
<rect x="100" y="130.5" width="8" height="1" fill="#4B445C"/>
<rect x="104.5" y="127" width="8" height="1" transform="rotate(90 104.5 127)" fill="#4B445C"/>
<rect x="100" y="150.5" width="8" height="1" fill="#4B445C"/>
<rect x="104.5" y="147" width="8" height="1" transform="rotate(90 104.5 147)" fill="#4B445C"/>
<rect x="100" y="170.5" width="8" height="1" fill="#4B445C"/>
<rect x="104.5" y="167" width="8" height="1" transform="rotate(90 104.5 167)" fill="#4B445C"/>
<rect x="100" y="190.5" width="8" height="1" fill="#4B445C"/>
<rect x="104.5" y="187" width="8" height="1" transform="rotate(90 104.5 187)" fill="#4B445C"/>
<rect x="100" y="210.5" width="8" height="1" fill="#4B445C"/>
<rect x="104.5" y="207" width="8" height="1" transform="rotate(90 104.5 207)" fill="#4B445C"/>
<rect x="120" y="110.5" width="8" height="1" fill="#4B445C"/>
<rect x="124.5" y="107" width="8" height="1" transform="rotate(90 124.5 107)" fill="#4B445C"/>
<rect x="120" y="130.5" width="8" height="1" fill="#4B445C"/>
<rect x="124.5" y="127" width="8" height="1" transform="rotate(90 124.5 127)" fill="#4B445C"/>
<rect x="120" y="150.5" width="8" height="1" fill="#4B445C"/>
<rect x="124.5" y="147" width="8" height="1" transform="rotate(90 124.5 147)" fill="#4B445C"/>
<rect x="120" y="170.5" width="8" height="1" fill="#4B445C"/>
<rect x="124.5" y="167" width="8" height="1" transform="rotate(90 124.5 167)" fill="#4B445C"/>
<rect x="120" y="190.5" width="8" height="1" fill="#4B445C"/>
<rect x="124.5" y="187" width="8" height="1" transform="rotate(90 124.5 187)" fill="#4B445C"/>
<rect x="120" y="210.5" width="8" height="1" fill="#F8BB1E"/>
<rect x="124.5" y="207" width="8" height="1" transform="rotate(90 124.5 207)" fill="#F8BB1E"/>
<rect x="140" y="110.5" width="8" height="1" fill="#4B445C"/>
<rect x="144.5" y="107" width="8" height="1" transform="rotate(90 144.5 107)" fill="#4B445C"/>
<rect x="140" y="130.5" width="8" height="1" fill="#4B445C"/>
<rect x="144.5" y="127" width="8" height="1" transform="rotate(90 144.5 127)" fill="#4B445C"/>
<rect x="140" y="150.5" width="8" height="1" fill="#4B445C"/>
<rect x="144.5" y="147" width="8" height="1" transform="rotate(90 144.5 147)" fill="#4B445C"/>
<rect x="140" y="170.5" width="8" height="1" fill="#4B445C"/>
<rect x="144.5" y="167" width="8" height="1" transform="rotate(90 144.5 167)" fill="#4B445C"/>
<rect x="140" y="190.5" width="8" height="1" fill="#4B445C"/>
<rect x="144.5" y="187" width="8" height="1" transform="rotate(90 144.5 187)" fill="#4B445C"/>
<rect x="140" y="210.5" width="8" height="1" fill="#F8BB1E"/>
<rect x="144.5" y="207" width="8" height="1" transform="rotate(90 144.5 207)" fill="#F8BB1E"/>
<rect x="160" y="110.5" width="8" height="1" fill="#4B445C"/>
<rect x="164.5" y="107" width="8" height="1" transform="rotate(90 164.5 107)" fill="#4B445C"/>
<rect x="160" y="130.5" width="8" height="1" fill="#4B445C"/>
<rect x="164.5" y="127" width="8" height="1" transform="rotate(90 164.5 127)" fill="#4B445C"/>
<rect x="160" y="150.5" width="8" height="1" fill="#4B445C"/>
<rect x="164.5" y="147" width="8" height="1" transform="rotate(90 164.5 147)" fill="#4B445C"/>
<rect x="160" y="170.5" width="8" height="1" fill="#4B445C"/>
<rect x="164.5" y="167" width="8" height="1" transform="rotate(90 164.5 167)" fill="#4B445C"/>
<rect x="160" y="190.5" width="8" height="1" fill="#4B445C"/>
<rect x="164.5" y="187" width="8" height="1" transform="rotate(90 164.5 187)" fill="#4B445C"/>
<rect x="160" y="210.5" width="8" height="1" fill="#4B445C"/>
<rect x="164.5" y="207" width="8" height="1" transform="rotate(90 164.5 207)" fill="#4B445C"/>
<rect x="180" y="110.5" width="8" height="1" fill="#4B445C"/>
<rect x="184.5" y="107" width="8" height="1" transform="rotate(90 184.5 107)" fill="#4B445C"/>
<rect x="180" y="130.5" width="8" height="1" fill="#4B445C"/>
<rect x="184.5" y="127" width="8" height="1" transform="rotate(90 184.5 127)" fill="#4B445C"/>
<rect x="180" y="150.5" width="8" height="1" fill="#4B445C"/>
<rect x="184.5" y="147" width="8" height="1" transform="rotate(90 184.5 147)" fill="#4B445C"/>
<rect x="180" y="170.5" width="8" height="1" fill="#4B445C"/>
<rect x="184.5" y="167" width="8" height="1" transform="rotate(90 184.5 167)" fill="#4B445C"/>
<rect x="180" y="190.5" width="8" height="1" fill="#4B445C"/>
<rect x="184.5" y="187" width="8" height="1" transform="rotate(90 184.5 187)" fill="#4B445C"/>
<rect x="180" y="210.5" width="8" height="1" fill="#4B445C"/>
<rect x="184.5" y="207" width="8" height="1" transform="rotate(90 184.5 207)" fill="#4B445C"/>
<rect x="200" y="110.5" width="8" height="1" fill="#4B445C"/>
<rect x="204.5" y="107" width="8" height="1" transform="rotate(90 204.5 107)" fill="#4B445C"/>
<rect x="200" y="130.5" width="8" height="1" fill="#4B445C"/>
<rect x="204.5" y="127" width="8" height="1" transform="rotate(90 204.5 127)" fill="#4B445C"/>
<rect x="200" y="150.5" width="8" height="1" fill="#4B445C"/>
<rect x="204.5" y="147" width="8" height="1" transform="rotate(90 204.5 147)" fill="#4B445C"/>
<rect x="200" y="170.5" width="8" height="1" fill="#4B445C"/>
<rect x="204.5" y="167" width="8" height="1" transform="rotate(90 204.5 167)" fill="#4B445C"/>
<rect x="200" y="190.5" width="8" height="1" fill="#4B445C"/>
<rect x="204.5" y="187" width="8" height="1" transform="rotate(90 204.5 187)" fill="#4B445C"/>
<rect x="200" y="210.5" width="8" height="1" fill="#4B445C"/>
<rect x="204.5" y="207" width="8" height="1" transform="rotate(90 204.5 207)" fill="#4B445C"/>
<rect x="220" y="110.5" width="8" height="1" fill="#4B445C"/>
<rect x="224.5" y="107" width="8" height="1" transform="rotate(90 224.5 107)" fill="#4B445C"/>
<rect x="220" y="130.5" width="8" height="1" fill="#4B445C"/>
<rect x="224.5" y="127" width="8" height="1" transform="rotate(90 224.5 127)" fill="#4B445C"/>
<rect x="220" y="150.5" width="8" height="1" fill="#4B445C"/>
<rect x="224.5" y="147" width="8" height="1" transform="rotate(90 224.5 147)" fill="#4B445C"/>
<rect x="220" y="170.5" width="8" height="1" fill="#4B445C"/>
<rect x="224.5" y="167" width="8" height="1" transform="rotate(90 224.5 167)" fill="#4B445C"/>
<rect x="220" y="190.5" width="8" height="1" fill="#4B445C"/>
<rect x="224.5" y="187" width="8" height="1" transform="rotate(90 224.5 187)" fill="#4B445C"/>
<rect x="220" y="210.5" width="8" height="1" fill="#4B445C"/>
<rect x="224.5" y="207" width="8" height="1" transform="rotate(90 224.5 207)" fill="#4B445C"/>
<rect x="120" y="230.5" width="8" height="1" fill="#4B445C"/>
<rect x="124.5" y="227" width="8" height="1" transform="rotate(90 124.5 227)" fill="#4B445C"/>
<rect x="120" y="250.5" width="8" height="1" fill="#4B445C"/>
<rect x="124.5" y="247" width="8" height="1" transform="rotate(90 124.5 247)" fill="#4B445C"/>
<rect x="120" y="270.5" width="8" height="1" fill="#4B445C"/>
<rect x="124.5" y="267" width="8" height="1" transform="rotate(90 124.5 267)" fill="#4B445C"/>
<rect x="140" y="230.5" width="8" height="1" fill="#4B445C"/>
<rect x="144.5" y="227" width="8" height="1" transform="rotate(90 144.5 227)" fill="#4B445C"/>
<rect x="140" y="250.5" width="8" height="1" fill="#4B445C"/>
<rect x="144.5" y="247" width="8" height="1" transform="rotate(90 144.5 247)" fill="#4B445C"/>
<rect x="140" y="270.5" width="8" height="1" fill="#4B445C"/>
<rect x="144.5" y="267" width="8" height="1" transform="rotate(90 144.5 267)" fill="#4B445C"/>
<rect x="160" y="230.5" width="8" height="1" fill="#4B445C"/>
<rect x="164.5" y="227" width="8" height="1" transform="rotate(90 164.5 227)" fill="#4B445C"/>
<rect x="160" y="250.5" width="8" height="1" fill="#4B445C"/>
<rect x="164.5" y="247" width="8" height="1" transform="rotate(90 164.5 247)" fill="#4B445C"/>
<rect x="160" y="270.5" width="8" height="1" fill="#4B445C"/>
<rect x="164.5" y="267" width="8" height="1" transform="rotate(90 164.5 267)" fill="#4B445C"/>
<rect x="180" y="230.5" width="8" height="1" fill="#4B445C"/>
<rect x="184.5" y="227" width="8" height="1" transform="rotate(90 184.5 227)" fill="#4B445C"/>
<rect x="180" y="250.5" width="8" height="1" fill="#4B445C"/>
<rect x="184.5" y="247" width="8" height="1" transform="rotate(90 184.5 247)" fill="#4B445C"/>
<rect x="180" y="270.5" width="8" height="1" fill="#4B445C"/>
<rect x="184.5" y="267" width="8" height="1" transform="rotate(90 184.5 267)" fill="#4B445C"/>
<rect x="200" y="230.5" width="8" height="1" fill="#4B445C"/>
<rect x="204.5" y="227" width="8" height="1" transform="rotate(90 204.5 227)" fill="#4B445C"/>
<rect x="200" y="250.5" width="8" height="1" fill="#4B445C"/>
<rect x="204.5" y="247" width="8" height="1" transform="rotate(90 204.5 247)" fill="#4B445C"/>
<rect x="200" y="270.5" width="8" height="1" fill="#4B445C"/>
<rect x="204.5" y="267" width="8" height="1" transform="rotate(90 204.5 267)" fill="#4B445C"/>
<rect x="220" y="230.5" width="8" height="1" fill="#4B445C"/>
<rect x="224.5" y="227" width="8" height="1" transform="rotate(90 224.5 227)" fill="#4B445C"/>
<rect x="220" y="250.5" width="8" height="1" fill="#4B445C"/>
<rect x="224.5" y="247" width="8" height="1" transform="rotate(90 224.5 247)" fill="#4B445C"/>
<rect x="220" y="270.5" width="8" height="1" fill="#4B445C"/>
<rect x="224.5" y="267" width="8" height="1" transform="rotate(90 224.5 267)" fill="#4B445C"/>
<rect x="1336.5" width="8" height="1" transform="rotate(90 1336.5 0)" fill="#4B445C"/>
<rect x="1340" y="4.5" width="8" height="1" transform="rotate(-180 1340 4.5)" fill="#4B445C"/>
<rect x="1316.5" width="8" height="1" transform="rotate(90 1316.5 0)" fill="#4B445C"/>
<rect x="1320" y="4.5" width="8" height="1" transform="rotate(-180 1320 4.5)" fill="#4B445C"/>
<rect x="1296.5" width="8" height="1" transform="rotate(90 1296.5 0)" fill="#4B445C"/>
<rect x="1300" y="4.5" width="8" height="1" transform="rotate(-180 1300 4.5)" fill="#4B445C"/>
<rect x="1336.5" y="20" width="8" height="1" transform="rotate(90 1336.5 20)" fill="#4B445C"/>
<rect x="1340" y="24.5" width="8" height="1" transform="rotate(-180 1340 24.5)" fill="#4B445C"/>
<rect x="1316.5" y="20" width="8" height="1" transform="rotate(90 1316.5 20)" fill="#4B445C"/>
<rect x="1320" y="24.5" width="8" height="1" transform="rotate(-180 1320 24.5)" fill="#4B445C"/>
<rect x="1296.5" y="20" width="8" height="1" transform="rotate(90 1296.5 20)" fill="#4B445C"/>
<rect x="1300" y="24.5" width="8" height="1" transform="rotate(-180 1300 24.5)" fill="#4B445C"/>
<rect x="1336.5" y="40" width="8" height="1" transform="rotate(90 1336.5 40)" fill="#4B445C"/>
<rect x="1340" y="44.5" width="8" height="1" transform="rotate(-180 1340 44.5)" fill="#4B445C"/>
<rect x="1316.5" y="40" width="8" height="1" transform="rotate(90 1316.5 40)" fill="#4B445C"/>
<rect x="1320" y="44.5" width="8" height="1" transform="rotate(-180 1320 44.5)" fill="#4B445C"/>
<rect x="1296.5" y="40" width="8" height="1" transform="rotate(90 1296.5 40)" fill="#4B445C"/>
<rect x="1300" y="44.5" width="8" height="1" transform="rotate(-180 1300 44.5)" fill="#4B445C"/>
<rect x="1396.5" y="60" width="8" height="1" transform="rotate(90 1396.5 60)" fill="#4B445C"/>
<rect x="1400" y="64.5" width="8" height="1" transform="rotate(-180 1400 64.5)" fill="#4B445C"/>
<rect x="1376.5" y="60" width="8" height="1" transform="rotate(90 1376.5 60)" fill="#F55B19"/>
<rect x="1380" y="64.5" width="8" height="1" transform="rotate(-180 1380 64.5)" fill="#F55B19"/>
<rect x="1356.5" y="60" width="8" height="1" transform="rotate(90 1356.5 60)" fill="#4B445C"/>
<rect x="1360" y="64.5" width="8" height="1" transform="rotate(-180 1360 64.5)" fill="#4B445C"/>
<rect x="1336.5" y="60" width="8" height="1" transform="rotate(90 1336.5 60)" fill="#4B445C"/>
<rect x="1340" y="64.5" width="8" height="1" transform="rotate(-180 1340 64.5)" fill="#4B445C"/>
<rect x="1316.5" y="60" width="8" height="1" transform="rotate(90 1316.5 60)" fill="#4B445C"/>
<rect x="1320" y="64.5" width="8" height="1" transform="rotate(-180 1320 64.5)" fill="#4B445C"/>
<rect x="1296.5" y="60" width="8" height="1" transform="rotate(90 1296.5 60)" fill="#4B445C"/>
<rect x="1300" y="64.5" width="8" height="1" transform="rotate(-180 1300 64.5)" fill="#4B445C"/>
<rect x="1396.5" y="80" width="8" height="1" transform="rotate(90 1396.5 80)" fill="#4B445C"/>
<rect x="1400" y="84.5" width="8" height="1" transform="rotate(-180 1400 84.5)" fill="#4B445C"/>
<rect x="1376.5" y="80" width="8" height="1" transform="rotate(90 1376.5 80)" fill="#4B445C"/>
<rect x="1380" y="84.5" width="8" height="1" transform="rotate(-180 1380 84.5)" fill="#4B445C"/>
<rect x="1356.5" y="80" width="8" height="1" transform="rotate(90 1356.5 80)" fill="#4B445C"/>
<rect x="1360" y="84.5" width="8" height="1" transform="rotate(-180 1360 84.5)" fill="#4B445C"/>
<rect x="1336.5" y="80" width="8" height="1" transform="rotate(90 1336.5 80)" fill="#4B445C"/>
<rect x="1340" y="84.5" width="8" height="1" transform="rotate(-180 1340 84.5)" fill="#4B445C"/>
<rect x="1316.5" y="80" width="8" height="1" transform="rotate(90 1316.5 80)" fill="#4B445C"/>
<rect x="1320" y="84.5" width="8" height="1" transform="rotate(-180 1320 84.5)" fill="#4B445C"/>
<rect x="1296.5" y="80" width="8" height="1" transform="rotate(90 1296.5 80)" fill="#4B445C"/>
<rect x="1300" y="84.5" width="8" height="1" transform="rotate(-180 1300 84.5)" fill="#4B445C"/>
<rect x="1396.5" y="100" width="8" height="1" transform="rotate(90 1396.5 100)" fill="#4B445C"/>
<rect x="1400" y="104.5" width="8" height="1" transform="rotate(-180 1400 104.5)" fill="#4B445C"/>
<rect x="1376.5" y="100" width="8" height="1" transform="rotate(90 1376.5 100)" fill="#4B445C"/>
<rect x="1380" y="104.5" width="8" height="1" transform="rotate(-180 1380 104.5)" fill="#4B445C"/>
<rect x="1356.5" y="100" width="8" height="1" transform="rotate(90 1356.5 100)" fill="#4B445C"/>
<rect x="1360" y="104.5" width="8" height="1" transform="rotate(-180 1360 104.5)" fill="#4B445C"/>
<rect x="1336.5" y="100" width="8" height="1" transform="rotate(90 1336.5 100)" fill="#4B445C"/>
<rect x="1340" y="104.5" width="8" height="1" transform="rotate(-180 1340 104.5)" fill="#4B445C"/>
<rect x="1316.5" y="100" width="8" height="1" transform="rotate(90 1316.5 100)" fill="#4B445C"/>
<rect x="1320" y="104.5" width="8" height="1" transform="rotate(-180 1320 104.5)" fill="#4B445C"/>
<rect x="1296.5" y="100" width="8" height="1" transform="rotate(90 1296.5 100)" fill="#4B445C"/>
<rect x="1300" y="104.5" width="8" height="1" transform="rotate(-180 1300 104.5)" fill="#4B445C"/>
<rect x="1396.5" y="120" width="8" height="1" transform="rotate(90 1396.5 120)" fill="#4B445C"/>
<rect x="1400" y="124.5" width="8" height="1" transform="rotate(-180 1400 124.5)" fill="#4B445C"/>
<rect x="1376.5" y="120" width="8" height="1" transform="rotate(90 1376.5 120)" fill="#4B445C"/>
<rect x="1380" y="124.5" width="8" height="1" transform="rotate(-180 1380 124.5)" fill="#4B445C"/>
<rect x="1356.5" y="120" width="8" height="1" transform="rotate(90 1356.5 120)" fill="#4B445C"/>
<rect x="1360" y="124.5" width="8" height="1" transform="rotate(-180 1360 124.5)" fill="#4B445C"/>
<rect x="1336.5" y="120" width="8" height="1" transform="rotate(90 1336.5 120)" fill="#4B445C"/>
<rect x="1340" y="124.5" width="8" height="1" transform="rotate(-180 1340 124.5)" fill="#4B445C"/>
<rect x="1316.5" y="120" width="8" height="1" transform="rotate(90 1316.5 120)" fill="#4B445C"/>
<rect x="1320" y="124.5" width="8" height="1" transform="rotate(-180 1320 124.5)" fill="#4B445C"/>
<rect x="1296.5" y="120" width="8" height="1" transform="rotate(90 1296.5 120)" fill="#F8BB1E"/>
<rect x="1300" y="124.5" width="8" height="1" transform="rotate(-180 1300 124.5)" fill="#F8BB1E"/>
<rect x="1396.5" y="140" width="8" height="1" transform="rotate(90 1396.5 140)" fill="#4B445C"/>
<rect x="1400" y="144.5" width="8" height="1" transform="rotate(-180 1400 144.5)" fill="#4B445C"/>
<rect x="1376.5" y="140" width="8" height="1" transform="rotate(90 1376.5 140)" fill="#4B445C"/>
<rect x="1380" y="144.5" width="8" height="1" transform="rotate(-180 1380 144.5)" fill="#4B445C"/>
<rect x="1356.5" y="140" width="8" height="1" transform="rotate(90 1356.5 140)" fill="#4B445C"/>
<rect x="1360" y="144.5" width="8" height="1" transform="rotate(-180 1360 144.5)" fill="#4B445C"/>
<rect x="1336.5" y="140" width="8" height="1" transform="rotate(90 1336.5 140)" fill="#4B445C"/>
<rect x="1340" y="144.5" width="8" height="1" transform="rotate(-180 1340 144.5)" fill="#4B445C"/>
<rect x="1316.5" y="140" width="8" height="1" transform="rotate(90 1316.5 140)" fill="#4B445C"/>
<rect x="1320" y="144.5" width="8" height="1" transform="rotate(-180 1320 144.5)" fill="#4B445C"/>
<rect x="1296.5" y="140" width="8" height="1" transform="rotate(90 1296.5 140)" fill="#F8BB1E"/>
<rect x="1300" y="144.5" width="8" height="1" transform="rotate(-180 1300 144.5)" fill="#F8BB1E"/>
<rect x="1396.5" y="160" width="8" height="1" transform="rotate(90 1396.5 160)" fill="#4B445C"/>
<rect x="1400" y="164.5" width="8" height="1" transform="rotate(-180 1400 164.5)" fill="#4B445C"/>
<rect x="1376.5" y="160" width="8" height="1" transform="rotate(90 1376.5 160)" fill="#4B445C"/>
<rect x="1380" y="164.5" width="8" height="1" transform="rotate(-180 1380 164.5)" fill="#4B445C"/>
<rect x="1356.5" y="160" width="8" height="1" transform="rotate(90 1356.5 160)" fill="#4B445C"/>
<rect x="1360" y="164.5" width="8" height="1" transform="rotate(-180 1360 164.5)" fill="#4B445C"/>
<rect x="1336.5" y="160" width="8" height="1" transform="rotate(90 1336.5 160)" fill="#4B445C"/>
<rect x="1340" y="164.5" width="8" height="1" transform="rotate(-180 1340 164.5)" fill="#4B445C"/>
<rect x="1316.5" y="160" width="8" height="1" transform="rotate(90 1316.5 160)" fill="#4B445C"/>
<rect x="1320" y="164.5" width="8" height="1" transform="rotate(-180 1320 164.5)" fill="#4B445C"/>
<rect x="1296.5" y="160" width="8" height="1" transform="rotate(90 1296.5 160)" fill="#4B445C"/>
<rect x="1300" y="164.5" width="8" height="1" transform="rotate(-180 1300 164.5)" fill="#4B445C"/>
<rect x="1396.5" y="180" width="8" height="1" transform="rotate(90 1396.5 180)" fill="#4B445C"/>
<rect x="1400" y="184.5" width="8" height="1" transform="rotate(-180 1400 184.5)" fill="#4B445C"/>
<rect x="1376.5" y="180" width="8" height="1" transform="rotate(90 1376.5 180)" fill="#4B445C"/>
<rect x="1380" y="184.5" width="8" height="1" transform="rotate(-180 1380 184.5)" fill="#4B445C"/>
<rect x="1356.5" y="180" width="8" height="1" transform="rotate(90 1356.5 180)" fill="#4B445C"/>
<rect x="1360" y="184.5" width="8" height="1" transform="rotate(-180 1360 184.5)" fill="#4B445C"/>
<rect x="1336.5" y="180" width="8" height="1" transform="rotate(90 1336.5 180)" fill="#4B445C"/>
<rect x="1340" y="184.5" width="8" height="1" transform="rotate(-180 1340 184.5)" fill="#4B445C"/>
<rect x="1316.5" y="180" width="8" height="1" transform="rotate(90 1316.5 180)" fill="#4B445C"/>
<rect x="1320" y="184.5" width="8" height="1" transform="rotate(-180 1320 184.5)" fill="#4B445C"/>
<rect x="1296.5" y="180" width="8" height="1" transform="rotate(90 1296.5 180)" fill="#4B445C"/>
<rect x="1300" y="184.5" width="8" height="1" transform="rotate(-180 1300 184.5)" fill="#4B445C"/>
<rect x="1396.5" y="200" width="8" height="1" transform="rotate(90 1396.5 200)" fill="#4B445C"/>
<rect x="1400" y="204.5" width="8" height="1" transform="rotate(-180 1400 204.5)" fill="#4B445C"/>
<rect x="1376.5" y="200" width="8" height="1" transform="rotate(90 1376.5 200)" fill="#4B445C"/>
<rect x="1380" y="204.5" width="8" height="1" transform="rotate(-180 1380 204.5)" fill="#4B445C"/>
<rect x="1356.5" y="200" width="8" height="1" transform="rotate(90 1356.5 200)" fill="#4B445C"/>
<rect x="1360" y="204.5" width="8" height="1" transform="rotate(-180 1360 204.5)" fill="#4B445C"/>
<rect x="1336.5" y="200" width="8" height="1" transform="rotate(90 1336.5 200)" fill="#4B445C"/>
<rect x="1340" y="204.5" width="8" height="1" transform="rotate(-180 1340 204.5)" fill="#4B445C"/>
<rect x="1316.5" y="200" width="8" height="1" transform="rotate(90 1316.5 200)" fill="#4B445C"/>
<rect x="1320" y="204.5" width="8" height="1" transform="rotate(-180 1320 204.5)" fill="#4B445C"/>
<rect x="1296.5" y="200" width="8" height="1" transform="rotate(90 1296.5 200)" fill="#4B445C"/>
<rect x="1300" y="204.5" width="8" height="1" transform="rotate(-180 1300 204.5)" fill="#4B445C"/>
<rect x="1396.5" y="220" width="8" height="1" transform="rotate(90 1396.5 220)" fill="#4B445C"/>
<rect x="1400" y="224.5" width="8" height="1" transform="rotate(-180 1400 224.5)" fill="#4B445C"/>
<rect x="1376.5" y="220" width="8" height="1" transform="rotate(90 1376.5 220)" fill="#4B445C"/>
<rect x="1380" y="224.5" width="8" height="1" transform="rotate(-180 1380 224.5)" fill="#4B445C"/>
<rect x="1356.5" y="220" width="8" height="1" transform="rotate(90 1356.5 220)" fill="#4B445C"/>
<rect x="1360" y="224.5" width="8" height="1" transform="rotate(-180 1360 224.5)" fill="#4B445C"/>
<rect x="1336.5" y="220" width="8" height="1" transform="rotate(90 1336.5 220)" fill="#4B445C"/>
<rect x="1340" y="224.5" width="8" height="1" transform="rotate(-180 1340 224.5)" fill="#4B445C"/>
<rect x="1316.5" y="220" width="8" height="1" transform="rotate(90 1316.5 220)" fill="#4B445C"/>
<rect x="1320" y="224.5" width="8" height="1" transform="rotate(-180 1320 224.5)" fill="#4B445C"/>
<rect x="1296.5" y="220" width="8" height="1" transform="rotate(90 1296.5 220)" fill="#4B445C"/>
<rect x="1300" y="224.5" width="8" height="1" transform="rotate(-180 1300 224.5)" fill="#4B445C"/>
<rect x="1276.5" y="120" width="8" height="1" transform="rotate(90 1276.5 120)" fill="#4B445C"/>
<rect x="1280" y="124.5" width="8" height="1" transform="rotate(-180 1280 124.5)" fill="#4B445C"/>
<rect x="1256.5" y="120" width="8" height="1" transform="rotate(90 1256.5 120)" fill="#4B445C"/>
<rect x="1260" y="124.5" width="8" height="1" transform="rotate(-180 1260 124.5)" fill="#4B445C"/>
<rect x="1236.5" y="120" width="8" height="1" transform="rotate(90 1236.5 120)" fill="#4B445C"/>
<rect x="1240" y="124.5" width="8" height="1" transform="rotate(-180 1240 124.5)" fill="#4B445C"/>
<rect x="1216.5" y="120" width="8" height="1" transform="rotate(90 1216.5 120)" fill="#4B445C"/>
<rect x="1220" y="124.5" width="8" height="1" transform="rotate(-180 1220 124.5)" fill="#4B445C"/>
<rect x="1196.5" y="120" width="8" height="1" transform="rotate(90 1196.5 120)" fill="#4B445C"/>
<rect x="1200" y="124.5" width="8" height="1" transform="rotate(-180 1200 124.5)" fill="#4B445C"/>
<rect x="1176.5" y="120" width="8" height="1" transform="rotate(90 1176.5 120)" fill="#4B445C"/>
<rect x="1180" y="124.5" width="8" height="1" transform="rotate(-180 1180 124.5)" fill="#4B445C"/>
<rect x="1276.5" y="140" width="8" height="1" transform="rotate(90 1276.5 140)" fill="#4B445C"/>
<rect x="1280" y="144.5" width="8" height="1" transform="rotate(-180 1280 144.5)" fill="#4B445C"/>
<rect x="1256.5" y="140" width="8" height="1" transform="rotate(90 1256.5 140)" fill="#4B445C"/>
<rect x="1260" y="144.5" width="8" height="1" transform="rotate(-180 1260 144.5)" fill="#4B445C"/>
<rect x="1236.5" y="140" width="8" height="1" transform="rotate(90 1236.5 140)" fill="#4B445C"/>
<rect x="1240" y="144.5" width="8" height="1" transform="rotate(-180 1240 144.5)" fill="#4B445C"/>
<rect x="1216.5" y="140" width="8" height="1" transform="rotate(90 1216.5 140)" fill="#4B445C"/>
<rect x="1220" y="144.5" width="8" height="1" transform="rotate(-180 1220 144.5)" fill="#4B445C"/>
<rect x="1196.5" y="140" width="8" height="1" transform="rotate(90 1196.5 140)" fill="#4B445C"/>
<rect x="1200" y="144.5" width="8" height="1" transform="rotate(-180 1200 144.5)" fill="#4B445C"/>
<rect x="1176.5" y="140" width="8" height="1" transform="rotate(90 1176.5 140)" fill="#4B445C"/>
<rect x="1180" y="144.5" width="8" height="1" transform="rotate(-180 1180 144.5)" fill="#4B445C"/>
<rect x="1276.5" y="160" width="8" height="1" transform="rotate(90 1276.5 160)" fill="#4B445C"/>
<rect x="1280" y="164.5" width="8" height="1" transform="rotate(-180 1280 164.5)" fill="#4B445C"/>
<rect x="1256.5" y="160" width="8" height="1" transform="rotate(90 1256.5 160)" fill="#4B445C"/>
<rect x="1260" y="164.5" width="8" height="1" transform="rotate(-180 1260 164.5)" fill="#4B445C"/>
<rect x="1236.5" y="160" width="8" height="1" transform="rotate(90 1236.5 160)" fill="#4B445C"/>
<rect x="1240" y="164.5" width="8" height="1" transform="rotate(-180 1240 164.5)" fill="#4B445C"/>
<rect x="1216.5" y="160" width="8" height="1" transform="rotate(90 1216.5 160)" fill="#4B445C"/>
<rect x="1220" y="164.5" width="8" height="1" transform="rotate(-180 1220 164.5)" fill="#4B445C"/>
<rect x="1196.5" y="160" width="8" height="1" transform="rotate(90 1196.5 160)" fill="#4B445C"/>
<rect x="1200" y="164.5" width="8" height="1" transform="rotate(-180 1200 164.5)" fill="#4B445C"/>
<rect x="1176.5" y="160" width="8" height="1" transform="rotate(90 1176.5 160)" fill="#4B445C"/>
<rect x="1180" y="164.5" width="8" height="1" transform="rotate(-180 1180 164.5)" fill="#4B445C"/>
<rect x="1276.5" y="180" width="8" height="1" transform="rotate(90 1276.5 180)" fill="#4B445C"/>
<rect x="1280" y="184.5" width="8" height="1" transform="rotate(-180 1280 184.5)" fill="#4B445C"/>
<rect x="1256.5" y="180" width="8" height="1" transform="rotate(90 1256.5 180)" fill="#4B445C"/>
<rect x="1260" y="184.5" width="8" height="1" transform="rotate(-180 1260 184.5)" fill="#4B445C"/>
<rect x="1236.5" y="180" width="8" height="1" transform="rotate(90 1236.5 180)" fill="#4B445C"/>
<rect x="1240" y="184.5" width="8" height="1" transform="rotate(-180 1240 184.5)" fill="#4B445C"/>
<rect x="1216.5" y="180" width="8" height="1" transform="rotate(90 1216.5 180)" fill="#4B445C"/>
<rect x="1220" y="184.5" width="8" height="1" transform="rotate(-180 1220 184.5)" fill="#4B445C"/>
<rect x="1196.5" y="180" width="8" height="1" transform="rotate(90 1196.5 180)" fill="#4B445C"/>
<rect x="1200" y="184.5" width="8" height="1" transform="rotate(-180 1200 184.5)" fill="#4B445C"/>
<rect x="1176.5" y="180" width="8" height="1" transform="rotate(90 1176.5 180)" fill="#4B445C"/>
<rect x="1180" y="184.5" width="8" height="1" transform="rotate(-180 1180 184.5)" fill="#4B445C"/>
<rect x="1276.5" y="200" width="8" height="1" transform="rotate(90 1276.5 200)" fill="#4B445C"/>
<rect x="1280" y="204.5" width="8" height="1" transform="rotate(-180 1280 204.5)" fill="#4B445C"/>
<rect x="1256.5" y="200" width="8" height="1" transform="rotate(90 1256.5 200)" fill="#4B445C"/>
<rect x="1260" y="204.5" width="8" height="1" transform="rotate(-180 1260 204.5)" fill="#4B445C"/>
<rect x="1236.5" y="200" width="8" height="1" transform="rotate(90 1236.5 200)" fill="#4B445C"/>
<rect x="1240" y="204.5" width="8" height="1" transform="rotate(-180 1240 204.5)" fill="#4B445C"/>
<rect x="1216.5" y="200" width="8" height="1" transform="rotate(90 1216.5 200)" fill="#4B445C"/>
<rect x="1220" y="204.5" width="8" height="1" transform="rotate(-180 1220 204.5)" fill="#4B445C"/>
<rect x="1196.5" y="200" width="8" height="1" transform="rotate(90 1196.5 200)" fill="#4B445C"/>
<rect x="1200" y="204.5" width="8" height="1" transform="rotate(-180 1200 204.5)" fill="#4B445C"/>
<rect x="1176.5" y="200" width="8" height="1" transform="rotate(90 1176.5 200)" fill="#4B445C"/>
<rect x="1180" y="204.5" width="8" height="1" transform="rotate(-180 1180 204.5)" fill="#4B445C"/>
<rect x="1276.5" y="220" width="8" height="1" transform="rotate(90 1276.5 220)" fill="#4B445C"/>
<rect x="1280" y="224.5" width="8" height="1" transform="rotate(-180 1280 224.5)" fill="#4B445C"/>
<rect x="1256.5" y="220" width="8" height="1" transform="rotate(90 1256.5 220)" fill="#4B445C"/>
<rect x="1260" y="224.5" width="8" height="1" transform="rotate(-180 1260 224.5)" fill="#4B445C"/>
<rect x="1236.5" y="220" width="8" height="1" transform="rotate(90 1236.5 220)" fill="#4B445C"/>
<rect x="1240" y="224.5" width="8" height="1" transform="rotate(-180 1240 224.5)" fill="#4B445C"/>
<rect x="1216.5" y="220" width="8" height="1" transform="rotate(90 1216.5 220)" fill="#4B445C"/>
<rect x="1220" y="224.5" width="8" height="1" transform="rotate(-180 1220 224.5)" fill="#4B445C"/>
<rect x="1196.5" y="220" width="8" height="1" transform="rotate(90 1196.5 220)" fill="#4B445C"/>
<rect x="1200" y="224.5" width="8" height="1" transform="rotate(-180 1200 224.5)" fill="#4B445C"/>
<rect x="1176.5" y="220" width="8" height="1" transform="rotate(90 1176.5 220)" fill="#4B445C"/>
<rect x="1180" y="224.5" width="8" height="1" transform="rotate(-180 1180 224.5)" fill="#4B445C"/>
</svg>
