<svg width="45" height="39" viewBox="0 0 45 39" fill="none" xmlns="http://www.w3.org/2000/svg">
<path fill-rule="evenodd" clip-rule="evenodd" d="M21.1816 0C16.0996 0.291748 11.3339 2.2666 7.52985 5.65674L13.4129 11.5398C15.6268 9.69678 18.3151 8.58276 21.1816 8.32104V0ZM11.5479 13.4036L5.66492 7.52075C2.27179 11.3237 0.294495 16.0898 0.000976562 21.1731H8.3222C8.58588 18.3059 9.70209 15.6174 11.5479 13.4036ZM44.999 21.1731H36.6778C36.4141 18.3059 35.2979 15.6174 33.4521 13.4036L39.3351 7.52075C42.7283 11.3237 44.7055 16.0898 44.999 21.1731ZM36.676 23.8098C36.4911 25.8403 35.9117 27.5339 35.2263 28.8923C35.409 29.1741 35.5834 29.4438 35.7479 29.699L36.0479 30.1653C36.3546 30.6428 36.6166 31.053 36.8206 31.3735C37.8234 32.9495 37.6014 34.9727 36.2805 36.2935C35.9598 36.6143 35.5935 36.8726 35.1965 37.0637L36.5667 38.4338C36.8245 38.6917 37.1625 38.8206 37.5005 38.8206C37.8385 38.8206 38.1765 38.6917 38.4342 38.4338C42.3826 34.4858 44.6849 29.3342 45 23.8098H36.676ZM0 23.8098H8.3241C8.76007 28.5996 11.3895 31.522 12.4333 32.5659C12.949 33.0815 12.949 33.9177 12.4333 34.4336L8.43329 38.4338C8.17542 38.6917 7.8374 38.8208 7.49945 38.8208C7.1615 38.8208 6.82355 38.6919 6.56567 38.4338C2.61737 34.4858 0.315063 29.3342 0 23.8098ZM37.4702 5.65674C33.6661 2.2666 28.9004 0.291748 23.8184 0V8.32104C26.6848 8.58276 29.3731 9.69678 31.5871 11.5398L37.4702 5.65674ZM19.571 19.584C21.1861 17.969 23.8142 17.969 25.4294 19.584C27.4698 21.6245 33.8727 31.6523 34.5961 32.7891C34.9279 33.3105 34.853 33.9922 34.4161 34.4292C33.9791 34.866 33.2974 34.9409 32.7761 34.6091C31.6393 33.8857 21.6115 27.4829 19.571 25.4426C17.9558 23.8274 17.9558 21.1992 19.571 19.584Z" fill="url(#paint0_linear)"/>
<defs>
<linearGradient id="paint0_linear" x1="17" y1="44.4394" x2="12.18" y2="7.11802" gradientUnits="userSpaceOnUse">
<stop stop-color="#F55B19"/>
<stop offset="0.97762" stop-color="white"/>
</linearGradient>
</defs>
</svg>
