<svg width="45" height="41" viewBox="0 0 45 41" fill="none" xmlns="http://www.w3.org/2000/svg">
<path fill-rule="evenodd" clip-rule="evenodd" d="M44.0988 13.9766L39.6387 12.5195V2.04322C39.6387 1.6106 39.4262 1.20655 39.0709 0.959237C38.7181 0.714608 38.2663 0.655282 37.8569 0.808602L34.3652 2.11793V33.6091L37.8569 34.9185C38.2568 35.0689 38.7138 35.0156 39.0709 34.7678C39.4262 34.5205 39.6387 34.1165 39.6387 33.6838V23.2075L44.0988 21.7505C44.6369 21.5715 45 21.0681 45 20.5003V15.2268C45 14.6589 44.6369 14.1555 44.0988 13.9766ZM18.5449 8.05055L31.7285 3.1067V32.6204L18.5449 27.6765V8.05055ZM15.9082 27.092H3.95508C1.77417 27.092 0 25.3179 0 23.137V12.5901C0 10.4092 1.77417 8.63502 3.95508 8.63502H15.9082V27.092ZM10.6348 13.9085H5.27344C4.54474 13.9085 3.95508 14.4983 3.95508 15.2268C3.95508 15.9556 4.54474 16.5452 5.27344 16.5452H10.6348C11.3635 16.5452 11.9531 15.9556 11.9531 15.2268C11.9531 14.4983 11.3635 13.9085 10.6348 13.9085ZM10.6348 19.1819H5.27344C4.54474 19.1819 3.95508 19.7717 3.95508 20.5003C3.95508 21.229 4.54474 21.8186 5.27344 21.8186H10.6348C11.3635 21.8186 11.9531 21.229 11.9531 20.5003C11.9531 19.7717 11.3635 19.1819 10.6348 19.1819ZM12.2353 29.7288L10.6154 39.1802C10.5073 39.8135 9.95889 40.2756 9.3165 40.2756H4.04306C3.65424 40.2756 3.28595 40.1045 3.03494 39.8071C2.78516 39.5098 2.67828 39.1182 2.74393 38.7346L4.28738 29.7288H12.2353Z" fill="url(#paint0_linear)"/>
<defs>
<linearGradient id="paint0_linear" x1="17" y1="46" x2="12" y2="8" gradientUnits="userSpaceOnUse">
<stop stop-color="#F8BB1E"/>
<stop offset="0.97762" stop-color="white"/>
</linearGradient>
</defs>
</svg>
