<svg width="45" height="45" viewBox="0 0 45 45" fill="none" xmlns="http://www.w3.org/2000/svg">
<path fill-rule="evenodd" clip-rule="evenodd" d="M30.3637 5.59814C30.795 5.71407 31.1388 6.03979 31.2766 6.46333C31.4143 6.88819 31.3281 7.35427 31.0474 7.70056L28.2318 11.1792L28.4661 15.648C28.4893 16.0934 28.2846 16.5209 27.9241 16.7836C27.5527 17.0507 27.0818 17.1037 26.6766 16.947L22.5 15.3429L18.3235 16.947C17.9077 17.1093 17.4391 17.0436 17.076 16.7836C16.7155 16.5209 16.5108 16.0934 16.534 15.648L16.7683 11.1792L13.9527 7.70056C13.672 7.35427 13.5858 6.88819 13.7235 6.46333C13.8613 6.0397 14.2051 5.71398 14.6363 5.59814L18.957 4.44071L21.3941 0.561947C21.8808 -0.187316 23.1193 -0.187316 23.606 0.561947L26.0431 4.44071L30.3637 5.59814ZM41.9512 13.5946L44.4359 15.6558C44.7939 15.9532 44.969 16.4166 44.8957 16.8761C44.8236 17.3358 44.5134 17.7233 44.0808 17.8958L41.081 19.088L39.8888 22.0878C39.7163 22.5203 39.3287 22.8306 38.8691 22.9027C38.4336 22.9766 37.9557 22.8128 37.6486 22.4431L35.5874 19.9584L32.3635 19.7511C31.9 19.7215 31.4854 19.4486 31.2743 19.034C31.0619 18.6194 31.085 18.1237 31.3348 17.7298L33.0625 15.0017L32.263 11.8731C32.1472 11.4225 32.2785 10.9448 32.6081 10.6152C32.9364 10.2843 33.4179 10.1543 33.8659 10.2702L36.9945 11.0697L39.7226 9.34197C40.1166 9.08963 40.6084 9.06907 41.0268 9.2815C41.4414 9.4927 41.7143 9.90728 41.7439 10.3707L41.9512 13.5946ZM12.3919 10.6154C12.0636 10.2845 11.5834 10.1545 11.134 10.2703L8.00545 11.0699L5.27733 9.34211C4.88463 9.09232 4.39025 9.07176 3.97312 9.28164C3.55854 9.49275 3.28564 9.90733 3.25602 10.3709L3.04877 13.5947L0.476125 15.6558C0.118234 15.9532 -0.0568438 16.4167 0.0165449 16.8764C0.0886152 17.3359 0.398957 17.7235 0.831467 17.8961L3.91915 19.0882L5.1113 22.088C5.28383 22.5206 5.67134 22.8308 6.13101 22.9029C6.56712 22.9769 7.04507 22.8125 7.35155 22.4433L9.41276 19.9586L12.6366 19.7513C13.1 19.7217 13.5146 19.4488 13.7258 19.0342C13.9382 18.6197 13.915 18.124 13.6653 17.73L11.9376 15.0019L12.7371 11.8734C12.8528 11.4227 12.7215 10.945 12.3919 10.6154ZM5.49992 27.7183C5.27606 27.0651 5.58623 26.3555 6.22027 26.0819C8.62986 25.0423 14.5639 22.6286 22.814 22.6287C30.22 22.6287 36.2367 24.9488 38.584 25.9765C39.1963 26.2445 39.4978 26.9195 39.3046 27.5592C38.6718 29.6532 38.0277 31.7527 37.6326 33.0362C37.4189 33.73 36.6776 34.1132 35.9828 33.9026C31.6011 32.5742 27.661 31.4953 22.948 31.4953C18.9594 31.4953 14.6122 32.2453 8.98248 33.9169C8.30441 34.1181 7.57105 33.7621 7.34175 33.0931L5.49992 27.7183ZM43.9407 39.2934C44.417 39.1981 44.8032 38.848 44.9436 38.3832C45.0839 37.9171 44.9577 37.4124 44.614 37.0687L40.4153 32.9579C40.3219 33.2619 40.2289 33.564 40.1523 33.8128C39.5057 35.9137 37.3018 37.0522 35.2201 36.4276C34.6639 36.2588 34.1319 36.1062 33.6001 35.9537L33.6 35.9536L33.2028 35.8396C32.8996 36.5119 32.7279 37.2412 32.7279 38.0009C32.7279 39.4093 33.2764 40.8221 34.2729 41.8173L37.0692 44.6136C37.4184 44.9628 37.9278 45.0826 38.3837 44.9432C38.8484 44.8028 39.1986 44.4166 39.2939 43.9403L40.0535 40.053L43.9407 39.2934ZM4.94659 40.0531L1.05937 39.2934C0.582999 39.1982 0.19672 38.848 0.0563586 38.3832C-0.0840027 37.9171 0.0422083 37.4125 0.385948 37.0687L4.52753 33.0152L4.84649 33.9467C5.52948 35.9393 7.6814 37.0501 9.73364 36.4444C10.2412 36.2937 10.7105 36.1703 11.1794 36.0471C11.3847 35.9931 11.5899 35.9392 11.7983 35.883C12.0472 36.4458 12.2224 37.0421 12.2619 37.6674C12.3572 39.1789 11.7971 40.7474 10.7272 41.8173L7.93092 44.6136C7.58138 44.9632 7.0717 45.0826 6.61643 44.9432C6.15166 44.8029 5.8015 44.4167 5.70623 43.9403L4.94659 40.0531Z" fill="url(#paint0_linear)"/>
<defs>
<linearGradient id="paint0_linear" x1="17" y1="51.5131" x2="10.5597" y2="8.4936" gradientUnits="userSpaceOnUse">
<stop stop-color="#F55B19"/>
<stop offset="0.97762" stop-color="white"/>
</linearGradient>
</defs>
</svg>
