<svg width="45" height="45" viewBox="0 0 45 45" fill="none" xmlns="http://www.w3.org/2000/svg">
<path fill-rule="evenodd" clip-rule="evenodd" d="M44.9223 1.28597C44.8749 0.634002 44.3558 0.118675 43.7059 0.0699236C40.468 -0.173835 37.2428 0.224419 34.0815 1.19121C34.3194 3.36307 35.4428 5.71345 37.3606 7.63125C39.3014 9.5717 41.7156 10.6947 43.9263 10.9048C44.7777 7.92101 45.1815 4.72537 44.9223 1.28597ZM26.1738 18.8177C24.6319 17.2755 24.6319 14.7669 26.1738 13.2247C27.716 11.6825 30.225 11.6825 31.7672 13.2247C33.3094 14.7669 33.3094 17.2755 31.7672 18.8177C30.225 20.3599 27.716 20.3599 26.1738 18.8177ZM0.386167 21.2814L4.11499 17.5526C7.28625 14.3813 10.9814 13.982 12.0996 14.6989C10.1664 17.2244 8.34094 20.0046 6.64218 23.0248C5.44811 22.7186 3.67485 22.9469 1.65955 23.4873C1.07865 23.6428 0.468221 23.3829 0.176741 22.8727C-0.121949 22.3557 -0.035432 21.703 0.386167 21.2814ZM6.81486 30.3589C6.41352 29.9572 6.3143 29.343 6.56905 28.8348C6.60284 28.7678 6.6508 28.67 6.71293 28.5433C7.02065 27.9158 7.67591 26.5795 8.6791 24.7651L10.7531 26.8395C10.7102 26.8789 10.6667 26.9097 10.6233 26.9406L10.6233 26.9406C10.5722 26.9768 10.5212 27.013 10.4709 27.0633C9.15426 28.3796 8.06868 29.5774 7.13724 30.6812L6.81486 30.3589ZM14.3165 37.8604C15.4141 36.9283 16.6088 35.8407 17.9285 34.521C17.9793 34.4704 18.0158 34.4191 18.0523 34.3677C18.0829 34.3246 18.1136 34.2815 18.1527 34.2387L20.3246 36.4106C18.5289 37.4107 17.4814 37.9365 16.7838 38.2867L16.7831 38.2871C16.5954 38.3813 16.433 38.4628 16.2882 38.5375C15.7783 38.7998 15.1583 38.7023 14.7532 38.2971L14.3165 37.8604ZM17.2258 27.7678C16.2731 26.8151 13.5938 27.6693 12.3352 28.9275C8.12465 33.138 6.22299 36.1232 5.36915 37.8858C5.12436 38.3909 5.22633 38.9954 5.62321 39.3923C6.02077 39.7902 6.62639 39.8912 7.13176 39.6464C8.8549 38.8097 11.8037 36.917 16.0643 32.6567C17.4482 31.2721 18.1311 28.6735 17.2268 27.7688L17.2258 27.7678ZM22.3148 44.8584C22.8226 45.1152 23.4375 45.016 23.8395 44.6136L27.5687 40.8848C30.4557 37.9971 30.9638 34.2714 30.3087 33.09C27.4921 35.2127 24.6388 37.0052 21.9767 38.5059C22.1603 39.5431 22.0381 40.5493 21.6038 43.4882C21.519 44.0571 21.8129 44.6074 22.3148 44.8584ZM31.533 2.10894C31.9629 4.67081 33.3025 7.30203 35.4963 9.49586C37.7259 11.7254 40.4391 13.0674 43.0635 13.464C39.2695 23.1453 30.3472 30.422 22.6836 35.0407L19.6105 31.9677C20.4355 29.9376 20.6576 27.4708 19.0904 25.9032C17.5251 24.3384 15.0573 24.5564 13.0245 25.3817L10.0493 22.4065C16.0379 12.446 23.6164 5.35574 31.533 2.10894ZM24.3095 20.6823C26.8796 23.2521 31.0616 23.2521 33.6314 20.6823C36.2015 18.1122 36.2015 13.9302 33.6314 11.3601C31.0616 8.79033 26.8796 8.79033 24.3095 11.3601C21.7394 13.9299 21.7394 18.1122 24.3095 20.6823Z" fill="url(#paint0_linear)"/>
<defs>
<linearGradient id="paint0_linear" x1="17" y1="51.5129" x2="10.5598" y2="8.49354" gradientUnits="userSpaceOnUse">
<stop stop-color="#F8BB1E"/>
<stop offset="0.97762" stop-color="white"/>
</linearGradient>
</defs>
</svg>
