<svg width="45" height="44" viewBox="0 0 45 44" fill="none" xmlns="http://www.w3.org/2000/svg">
<path fill-rule="evenodd" clip-rule="evenodd" d="M38.85 8.9625C39.1181 9.2325 39.4781 9.375 39.8438 9.375C40.0256 9.375 40.2075 9.33937 40.3819 9.26812C40.9069 9.05062 41.25 8.53687 41.25 7.96875V1.40625C41.25 0.63 40.62 0 39.8438 0H33.2813C32.7113 0 32.1994 0.343125 31.9819 0.868125C31.7663 1.39313 31.8844 1.99875 32.2875 2.4L34.1647 4.2772L28.8806 9.28322L14.2875 7.5151C13.755 7.44947 13.2188 7.61635 12.8175 7.97447L4.38002 15.4745C3.60565 16.1626 3.53627 17.3476 4.2244 18.122C4.59377 18.5382 5.1094 18.7501 5.62502 18.7501C6.06752 18.7501 6.51377 18.5945 6.87002 18.2776L14.6756 11.3382L29.3044 13.1138C29.8556 13.1795 30.4144 12.9976 30.8194 12.6132L36.8179 6.93041L38.85 8.9625ZM13.125 32.3437V37.5H1.87502V32.3437C1.87502 31.05 2.92502 30 4.21877 30H10.7813C12.075 30 13.125 31.05 13.125 32.3437ZM28.125 37.5V21.0937C28.125 19.8 27.075 18.75 25.7813 18.75H19.2188C17.925 18.75 16.875 19.8 16.875 21.0937V37.5H28.125ZM43.125 24.8439V37.5001H31.875V24.8439C31.875 23.5501 32.925 22.5001 34.2188 22.5001H40.7813C42.075 22.5001 43.125 23.5501 43.125 24.8439ZM1.40625 43.125H43.5938C44.37 43.125 45 42.495 45 41.7188C45 40.9425 44.37 40.3125 43.5938 40.3125H1.40625C0.63 40.3125 0 40.9425 0 41.7188C0 42.495 0.63 43.125 1.40625 43.125Z" fill="url(#paint0_linear)"/>
<defs>
<linearGradient id="paint0_linear" x1="17" y1="49.3666" x2="11.0747" y2="8.0658" gradientUnits="userSpaceOnUse">
<stop stop-color="#F8BB1E"/>
<stop offset="0.97762" stop-color="white"/>
</linearGradient>
</defs>
</svg>
