<svg width="45" height="45" viewBox="0 0 45 45" fill="none" xmlns="http://www.w3.org/2000/svg">
<path fill-rule="evenodd" clip-rule="evenodd" d="M45 3.95508V10.5469H0V3.95508C0 1.77417 1.77426 0 3.95508 0H41.0449C43.2257 0 45 1.77417 45 3.95508ZM38.3203 5.27344H30.4102C29.6821 5.27344 29.0918 5.86377 29.0918 6.5918C29.0918 7.31982 29.6821 7.91016 30.4102 7.91016H38.3203C39.0484 7.91016 39.6387 7.31982 39.6387 6.5918C39.6387 5.86377 39.0484 5.27344 38.3203 5.27344ZM18.5449 6.5918C18.5449 5.86377 17.9547 5.27344 17.2266 5.27344C16.4985 5.27344 15.9082 5.86377 15.9082 6.5918C15.9082 7.31982 16.4985 7.91016 17.2266 7.91016C17.9547 7.91016 18.5449 7.31982 18.5449 6.5918ZM13.2715 6.5918C13.2715 5.86377 12.6812 5.27344 11.9531 5.27344C11.225 5.27344 10.6348 5.86377 10.6348 6.5918C10.6348 7.31982 11.225 7.91016 11.9531 7.91016C12.6812 7.91016 13.2715 7.31982 13.2715 6.5918ZM7.99805 6.5918C7.99805 5.86377 7.40778 5.27344 6.67969 5.27344C5.9516 5.27344 5.36133 5.86377 5.36133 6.5918C5.36133 7.31982 5.9516 7.91016 6.67969 7.91016C7.40778 7.91016 7.99805 7.31982 7.99805 6.5918ZM0 40.8691V13.1836H45V40.8691C45 43.05 43.2257 44.8242 41.0449 44.8242H3.95508C1.77426 44.8242 0 43.05 0 40.8691ZM15.6193 33.7825C16.0741 33.2139 15.982 32.3843 15.4134 31.9294L10.1085 27.6855L15.4134 23.4414C15.982 22.9866 16.0741 22.157 15.6193 21.5884C15.1644 21.0198 14.3346 20.9277 13.7663 21.3826L7.1745 26.656C6.51498 27.1836 6.51541 28.1877 7.1745 28.7148L13.7663 33.9883C14.3348 34.4434 15.1646 34.3511 15.6193 33.7825ZM19.7567 37.4333L27.6668 18.9763C27.9537 18.3071 27.6436 17.532 26.9744 17.2454C26.3052 16.9585 25.5302 17.2686 25.2433 17.9377L17.3332 36.3948C17.0463 37.064 17.3564 37.8391 18.0256 38.1257C18.695 38.4128 19.4699 38.1025 19.7567 37.4333ZM31.2337 33.9885L37.8255 28.7151C38.485 28.1875 38.4846 27.1833 37.8255 26.6562L31.2337 21.3828C30.6651 20.9277 29.8354 21.02 29.3807 21.5886C28.9259 22.1572 29.018 22.9868 29.5866 23.4417L34.8915 27.6855L29.5866 31.9297C29.018 32.3843 28.9259 33.2141 29.3807 33.7827C29.8362 34.3521 30.6661 34.4426 31.2337 33.9885Z" fill="url(#paint0_linear)"/>
<defs>
<linearGradient id="paint0_linear" x1="17" y1="51.3117" x2="10.6089" y2="8.45306" gradientUnits="userSpaceOnUse">
<stop stop-color="#F55B19"/>
<stop offset="0.97762" stop-color="white"/>
</linearGradient>
</defs>
</svg>
