<svg width="833" height="322" viewBox="0 0 833 322" fill="none" xmlns="http://www.w3.org/2000/svg">
<path d="M236.141 0.13C245.249 0.13 253.367 2.44 260.495 7.05999C267.755 11.548 273.431 18.082 277.523 26.662C281.747 35.11 283.859 45.142 283.859 56.758C283.859 68.242 281.747 78.274 277.523 86.854C273.431 95.434 267.755 102.034 260.495 106.654C253.367 111.142 245.249 113.386 236.141 113.386C227.693 113.386 220.433 111.472 214.361 107.644C208.289 103.816 203.867 98.602 201.095 92.002V164.668H167.237V1.51599H201.095V21.514C203.867 14.914 208.289 9.7 214.361 5.872C220.433 2.044 227.693 0.13 236.141 0.13ZM225.251 29.83C218.123 29.83 212.249 32.272 207.629 37.156C203.141 41.908 200.897 48.442 200.897 56.758C200.897 64.942 203.141 71.476 207.629 76.36C212.249 81.244 218.123 83.686 225.251 83.686C232.511 83.686 238.319 81.31 242.675 76.558C247.163 71.806 249.407 65.206 249.407 56.758C249.407 48.31 247.163 41.71 242.675 36.958C238.319 32.206 232.511 29.83 225.251 29.83ZM335.286 22.306C339.51 15.574 344.922 10.228 351.522 6.26799C358.254 2.308 365.514 0.327998 373.302 0.327998V36.562H363.6C354.624 36.562 347.628 38.476 342.612 42.304C337.728 46.132 335.286 52.6 335.286 61.708V112H301.428V1.51599H335.286V22.306ZM439.151 0.13C450.107 0.13 459.875 2.44 468.455 7.05999C477.167 11.548 483.965 18.082 488.849 26.662C493.865 35.242 496.373 45.274 496.373 56.758C496.373 68.242 493.865 78.274 488.849 86.854C483.965 95.434 477.167 102.034 468.455 106.654C459.875 111.142 450.107 113.386 439.151 113.386C428.195 113.386 418.361 111.142 409.649 106.654C400.937 102.034 394.073 95.434 389.057 86.854C384.173 78.274 381.731 68.242 381.731 56.758C381.731 45.274 384.173 35.242 389.057 26.662C394.073 18.082 400.937 11.548 409.649 7.05999C418.361 2.44 428.195 0.13 439.151 0.13ZM439.151 29.434C432.683 29.434 427.205 31.81 422.717 36.562C418.361 41.182 416.183 47.914 416.183 56.758C416.183 65.602 418.361 72.334 422.717 76.954C427.205 81.574 432.683 83.884 439.151 83.884C445.619 83.884 451.031 81.574 455.387 76.954C459.743 72.334 461.921 65.602 461.921 56.758C461.921 47.914 459.743 41.182 455.387 36.562C451.031 31.81 445.619 29.434 439.151 29.434ZM657.084 0.327998C670.68 0.327998 681.372 4.552 689.16 13C696.948 21.316 700.842 32.932 700.842 47.848V112H667.182V51.808C667.182 44.812 665.268 39.4 661.44 35.572C657.744 31.612 652.662 29.632 646.194 29.632C639.462 29.632 634.116 31.744 630.156 35.968C626.328 40.06 624.414 45.868 624.414 53.392V112H590.556V51.808C590.556 44.812 588.708 39.4 585.012 35.572C581.316 31.612 576.234 29.632 569.766 29.632C563.034 29.632 557.688 31.678 553.728 35.77C549.768 39.862 547.788 45.736 547.788 53.392V112H513.93V1.51599H547.788V20.326C550.692 14.122 555.114 9.23799 561.054 5.674C567.126 2.11 574.188 0.327998 582.24 0.327998C590.688 0.327998 598.146 2.308 604.614 6.26799C611.082 10.096 615.966 15.64 619.266 22.9C623.094 16.036 628.308 10.558 634.908 6.46599C641.64 2.374 649.032 0.327998 657.084 0.327998ZM775.016 0.13C785.972 0.13 795.74 2.44 804.32 7.05999C813.032 11.548 819.83 18.082 824.714 26.662C829.73 35.242 832.238 45.274 832.238 56.758C832.238 68.242 829.73 78.274 824.714 86.854C819.83 95.434 813.032 102.034 804.32 106.654C795.74 111.142 785.972 113.386 775.016 113.386C764.06 113.386 754.226 111.142 745.514 106.654C736.802 102.034 729.938 95.434 724.922 86.854C720.038 78.274 717.596 68.242 717.596 56.758C717.596 45.274 720.038 35.242 724.922 26.662C729.938 18.082 736.802 11.548 745.514 7.05999C754.226 2.44 764.06 0.13 775.016 0.13ZM775.016 29.434C768.548 29.434 763.07 31.81 758.582 36.562C754.226 41.182 752.048 47.914 752.048 56.758C752.048 65.602 754.226 72.334 758.582 76.954C763.07 81.574 768.548 83.884 775.016 83.884C781.484 83.884 786.896 81.574 791.252 76.954C795.608 72.334 797.786 65.602 797.786 56.758C797.786 47.914 795.608 41.182 791.252 36.562C786.896 31.81 781.484 29.434 775.016 29.434ZM71.25 292.894V322H56.004C43.068 322 32.97 318.832 25.71 312.496C18.582 306.028 15.018 295.402 15.018 280.618V240.028H0.168V211.516H15.018V184.39H48.876V211.516H71.052V240.028H48.876V281.212C48.876 285.568 49.734 288.604 51.45 290.32C53.298 292.036 56.334 292.894 60.558 292.894H71.25ZM87.1117 180.43C87.1117 175.282 88.9597 171.058 92.6557 167.758C96.3517 164.326 101.236 162.61 107.308 162.61C113.38 162.61 118.264 164.326 121.96 167.758C125.656 171.058 127.504 175.282 127.504 180.43C127.504 185.446 125.656 189.67 121.96 193.102C118.264 196.402 113.38 198.052 107.308 198.052C101.236 198.052 96.3517 196.402 92.6557 193.102C88.9597 189.67 87.1117 185.446 87.1117 180.43ZM124.138 211.516V322H90.2797V211.516H124.138ZM216.616 322L194.044 290.518L175.63 322H138.406L175.036 264.382L137.02 211.516H175.036L197.41 242.602L215.824 211.516H253.048L215.626 267.748L254.632 322H216.616Z" fill="#E3E2E9"/>
</svg>
